<?xml version="1.0" standalone="no"?>
<!DOCTYPE svg PUBLIC "-//W3C//DTD SVG 20010904//EN"
 "http://www.w3.org/TR/2001/REC-SVG-20010904/DTD/svg10.dtd">
<svg version="1.0" xmlns="http://www.w3.org/2000/svg"
 width="1080.000000pt" height="810.000000pt" viewBox="0 0 1080.000000 810.000000"
 preserveAspectRatio="xMidYMid meet">

<g transform="translate(0.000000,810.000000) scale(0.100000,-0.100000)"
fill="#000000" stroke="none">
<path d="M3138 7105 c-69 -26 -126 -74 -221 -187 -52 -62 -129 -151 -172 -198
-168 -182 -225 -283 -225 -395 0 -275 148 -576 526 -1073 196 -259 234 -313
228 -323 -9 -15 -117 -66 -185 -88 -165 -53 -400 -64 -719 -36 -265 24 -450
30 -506 16 -66 -17 -89 -41 -119 -125 -15 -39 -37 -100 -50 -136 -13 -36 -26
-76 -29 -90 -3 -14 -20 -41 -38 -61 -18 -19 -65 -69 -104 -111 -80 -85 -100
-123 -137 -258 -42 -153 -87 -448 -87 -575 0 -35 -7 -48 -55 -99 -114 -121
-203 -279 -251 -446 -24 -81 -25 -94 -19 -260 4 -96 10 -194 16 -217 25 -114
95 -241 207 -373 55 -65 146 -150 162 -150 4 0 26 -15 49 -34 54 -45 153 -99
221 -121 30 -10 70 -27 89 -38 22 -13 53 -21 85 -22 28 0 61 -6 73 -13 24 -13
143 -32 216 -34 32 0 54 5 65 15 14 15 19 15 51 -5 32 -20 49 -22 173 -23 131
0 138 1 153 23 21 29 36 28 66 -4 23 -25 26 -25 141 -22 105 3 119 5 140 26
30 27 44 28 58 1 11 -19 18 -20 156 -17 l144 3 24 30 24 30 24 -21 c33 -31 60
-34 187 -27 103 6 117 9 137 30 26 28 28 28 63 2 26 -19 36 -20 155 -13 114 6
131 10 156 31 l28 23 40 -20 c37 -20 50 -20 182 -14 140 7 143 8 168 36 30 33
44 35 80 8 24 -18 34 -19 97 -10 39 6 135 28 215 49 283 76 356 89 555 98 161
7 299 -6 450 -43 223 -54 289 -58 733 -46 330 10 409 15 428 27 18 12 29 13
51 4 35 -14 372 -2 390 13 7 6 27 7 45 4 18 -4 73 -6 122 -6 80 1 93 4 119 26
l30 25 15 -22 c14 -20 20 -21 116 -15 180 10 233 19 259 44 27 26 43 28 51 7
7 -19 44 -19 192 0 77 10 129 23 149 35 27 16 36 18 61 8 24 -9 54 -7 150 11
65 12 130 30 144 39 14 9 45 18 70 18 25 1 99 20 165 41 110 36 121 42 134 71
16 34 35 42 45 17 3 -9 18 -15 35 -15 44 0 213 68 238 95 12 14 40 29 62 34
50 11 239 115 266 146 11 13 34 30 52 39 17 9 70 52 117 97 95 89 133 155 161
270 41 175 -11 533 -95 659 -10 14 -27 54 -39 90 -41 125 -72 152 -194 169
-91 13 -241 -1 -517 -49 -352 -61 -559 -92 -576 -86 -11 4 -14 26 -14 95 0
114 -14 216 -51 360 -30 122 -61 180 -109 210 -39 23 -211 70 -535 146 -122
28 -286 90 -516 194 -302 136 -472 241 -725 446 -71 57 -219 175 -329 261
-155 121 -244 202 -395 354 -107 109 -206 217 -220 240 -41 69 -80 110 -131
135 -45 23 -69 45 -162 146 -30 33 -55 50 -86 59 -114 30 -187 -18 -602 -398
l-27 -24 -248 254 c-449 458 -706 703 -858 817 -110 83 -267 172 -356 202 -83
28 -247 36 -302 14z m-180 -282 c-6 -21 -8 -83 -6 -138 6 -119 46 -249 132
-427 98 -205 197 -339 558 -758 268 -312 302 -355 282 -358 -38 -6 -130 -46
-163 -70 -45 -34 -71 -93 -71 -167 0 -111 34 -178 115 -226 43 -25 47 -29 24
-29 -65 0 -184 85 -261 185 -12 17 -82 100 -154 187 -166 197 -443 562 -561
738 -139 207 -199 341 -228 508 -29 164 -5 222 170 413 33 36 82 91 108 122
27 31 52 57 57 57 5 0 4 -17 -2 -37z m212 -3 c23 -12 150 -181 179 -237 12
-24 28 -74 36 -113 8 -39 22 -85 31 -103 22 -43 98 -136 235 -288 310 -343
628 -723 629 -749 0 -14 -102 -90 -121 -90 -8 0 -313 309 -450 455 -302 324
-489 599 -570 840 -30 86 -35 269 -9 285 19 12 18 12 40 0z m2373 -662 c10 -5
33 -33 52 -63 37 -58 62 -78 141 -118 55 -28 84 -62 84 -101 0 -18 51 -74 208
-229 256 -253 315 -305 522 -468 91 -71 201 -159 245 -195 168 -137 409 -290
625 -398 168 -83 456 -201 565 -231 33 -9 81 -23 107 -31 26 -9 53 -14 60 -11
7 2 29 -2 48 -9 19 -7 80 -23 135 -35 55 -11 105 -24 112 -28 9 -4 4 -19 -17
-51 -53 -81 -71 -198 -51 -325 5 -27 20 -111 34 -186 44 -228 78 -593 59 -633
-17 -38 -67 -46 -272 -46 -408 0 -796 54 -1192 165 -392 110 -507 156 -1168
470 -535 254 -659 307 -960 410 -270 91 -485 142 -850 200 -58 9 -193 32 -300
50 -245 42 -541 83 -970 135 -530 65 -947 137 -957 167 -2 5 7 39 19 74 29 80
31 80 204 40 71 -16 206 -41 299 -56 158 -25 186 -27 385 -22 239 6 308 17
539 87 74 22 144 40 157 40 15 0 43 -25 92 -82 39 -46 88 -100 109 -120 78
-76 238 -122 346 -100 109 22 166 51 237 121 75 74 102 130 121 250 12 80 -5
166 -47 238 -13 23 -24 48 -24 55 0 7 40 39 88 70 124 81 407 301 537 417 61
54 214 199 340 323 127 123 239 230 250 236 20 11 55 7 88 -10z m-1532 -1068
c44 -23 69 -58 49 -70 -7 -4 -32 4 -56 17 -36 20 -44 22 -44 9 0 -12 -7 -14
-32 -10 l-33 5 38 -22 c38 -23 47 -38 25 -40 -45 -4 -75 -3 -72 3 2 4 -10 8
-28 10 -41 4 -40 20 1 32 17 5 31 13 31 17 0 14 -37 11 -75 -5 -42 -18 -43
-15 -9 30 44 57 122 66 205 24z m-184 -320 c31 -24 83 -27 83 -5 0 8 9 15 20
15 11 0 20 -5 20 -11 0 -7 10 -5 25 5 35 23 39 20 15 -13 -23 -34 -50 -45 -99
-42 -40 2 -106 34 -114 56 -9 22 20 19 50 -5z m-2007 -301 c119 -30 480 -101
620 -123 91 -14 305 -41 475 -61 369 -42 461 -56 619 -96 209 -53 307 -69 496
-85 102 -8 214 -19 250 -25 166 -25 532 -133 750 -219 146 -58 626 -278 826
-378 144 -72 532 -245 699 -312 157 -62 243 -89 457 -144 412 -106 685 -146
1065 -153 454 -10 732 27 1103 143 290 91 627 241 814 361 37 24 73 42 78 41
18 -6 59 -121 68 -188 5 -36 15 -106 23 -156 16 -94 12 -166 -13 -269 -43
-171 -186 -297 -483 -425 -165 -71 -260 -101 -507 -161 -410 -99 -542 -122
-1055 -185 -166 -20 -277 -26 -655 -34 -495 -11 -621 -16 -1167 -51 l-362 -23
-133 19 c-100 15 -182 20 -333 19 -211 -1 -179 3 -621 -78 -122 -23 -297 -34
-764 -51 -579 -21 -1109 -44 -1293 -56 -83 -6 -282 -13 -442 -16 -437 -8 -562
14 -808 139 -122 62 -222 141 -274 218 -13 19 -48 71 -78 115 -77 112 -112
200 -120 305 -4 47 -2 104 3 127 8 34 7 45 -5 55 -26 21 -11 137 32 253 42
114 73 172 120 224 18 20 35 45 39 56 3 12 28 42 54 68 48 47 52 49 167 73 80
16 150 24 219 24 165 0 631 -27 931 -54 416 -38 1005 -84 1220 -96 316 -18
529 -38 752 -70 272 -38 307 -39 383 0 73 37 79 46 27 42 -23 -2 -109 8 -192
22 -318 54 -581 83 -1360 151 -154 13 -350 29 -435 35 -85 6 -245 20 -355 30
-678 66 -1081 77 -1242 34 -23 -6 -23 -5 -23 85 0 88 1 92 25 101 26 10 55 57
55 90 0 28 -23 21 -30 -10 -5 -22 -6 -22 -23 -6 -32 32 -13 70 43 87 28 9 42
19 46 35 15 60 -18 94 -57 58 -18 -16 -19 -16 -19 10 0 19 6 29 19 33 12 3 21
17 25 41 18 112 35 143 131 239 87 87 108 116 134 187 9 21 15 26 29 21 9 -4
33 -11 52 -16z m8180 -881 c11 -24 19 -50 19 -58 -1 -54 -403 -254 -730 -364
-180 -60 -473 -126 -558 -126 -62 0 -109 61 -95 123 5 24 9 28 27 22 56 -19
113 -15 264 15 368 74 822 250 978 379 33 27 64 50 68 50 4 1 17 -18 27 -41z"/>
<path d="M3020 6196 c-5 -13 -14 -26 -21 -28 -7 -2 -14 -13 -15 -24 -1 -10 -6
-29 -9 -41 -6 -18 -3 -23 11 -23 23 0 78 99 68 123 -9 24 -23 21 -34 -7z"/>
<path d="M5837 5573 c-24 -6 -39 -47 -27 -77 24 -63 177 -206 221 -206 73 0
62 95 -25 200 -56 67 -116 97 -169 83z"/>
<path d="M6340 5190 c-18 -33 5 -82 63 -137 106 -100 189 -142 216 -109 26 32
-11 97 -107 186 -76 70 -91 80 -124 80 -27 0 -40 -5 -48 -20z"/>
<path d="M6070 4782 c-50 -50 -53 -88 -11 -154 56 -88 183 -132 261 -91 118
61 3 268 -156 281 -52 4 -55 3 -94 -36z"/>
<path d="M6772 4778 c-20 -20 -14 -69 13 -103 39 -52 142 -124 201 -141 51
-15 150 -21 161 -11 21 22 -68 126 -160 189 -105 71 -185 96 -215 66z"/>
<path d="M7346 4491 c-13 -20 4 -49 55 -95 87 -78 191 -116 322 -116 60 0 79
3 83 15 9 23 -13 43 -95 85 -176 87 -348 140 -365 111z"/>
<path d="M7478 4065 c-49 -28 -62 -80 -33 -135 49 -94 283 -124 310 -39 11 34
-3 84 -33 111 -67 63 -189 94 -244 63z"/>
<path d="M2790 2793 c-55 -25 -103 -44 -360 -142 -161 -62 -273 -103 -560
-206 -176 -64 -226 -78 -278 -79 -60 -1 -65 1 -92 31 -43 48 -56 106 -36 167
8 28 14 52 12 54 -8 7 -68 -90 -109 -175 -39 -81 -42 -95 -42 -168 0 -67 4
-85 22 -111 33 -47 86 -69 160 -68 54 1 77 8 170 53 60 29 142 72 183 95 41
24 100 57 130 73 30 16 118 66 195 110 77 44 194 108 260 143 66 35 138 75
160 90 22 15 81 49 130 75 143 77 180 116 55 58z"/>
</g>
</svg>
