<?xml version="1.0" standalone="no"?>
<!DOCTYPE svg PUBLIC "-//W3C//DTD SVG 20010904//EN"
 "http://www.w3.org/TR/2001/REC-SVG-20010904/DTD/svg10.dtd">
<svg version="1.0" xmlns="http://www.w3.org/2000/svg"
 width="1080.000000pt" height="813.000000pt" viewBox="0 0 1080.000000 813.000000"
 preserveAspectRatio="xMidYMid meet">

<g transform="translate(0.000000,813.000000) scale(0.100000,-0.100000)"
fill="#000000" stroke="none">
<path d="M3206 7170 c-35 -11 -85 -56 -97 -87 -5 -13 -17 -23 -28 -23 -13 0
-21 -8 -23 -22 -4 -29 -38 -38 -38 -10 0 17 -24 31 -53 32 -11 0 -67 -91 -67
-109 0 -9 -22 -41 -48 -72 -26 -31 -55 -69 -64 -85 -10 -16 -37 -56 -61 -89
-24 -33 -57 -85 -74 -115 -16 -30 -51 -85 -76 -122 -80 -117 -100 -163 -93
-214 3 -24 14 -61 25 -82 11 -21 35 -83 54 -138 40 -115 97 -232 168 -346 69
-112 296 -408 446 -582 172 -200 168 -195 156 -215 -14 -22 -146 -74 -272
-106 -58 -15 -113 -30 -121 -32 -71 -26 -558 -56 -735 -47 -38 2 -156 9 -261
15 -140 8 -196 8 -212 0 -25 -13 -37 -50 -52 -161 -7 -47 -15 -89 -20 -95 -4
-5 -10 -35 -13 -65 -7 -56 -24 -80 -57 -80 -9 0 -47 -21 -85 -48 -74 -51 -135
-128 -135 -170 0 -16 -16 -42 -43 -71 -26 -28 -71 -101 -114 -186 -57 -113
-73 -155 -82 -216 -18 -118 4 -225 58 -273 28 -26 26 -38 -8 -59 -70 -41 -191
-180 -216 -247 -9 -25 -20 -52 -25 -62 -30 -56 -60 -277 -54 -393 4 -72 15
-135 25 -141 5 -3 9 -16 9 -29 0 -13 4 -26 9 -29 5 -3 17 -36 26 -73 21 -80
32 -101 105 -211 30 -46 62 -94 70 -107 9 -13 49 -51 88 -84 40 -34 78 -66 85
-71 167 -141 409 -205 819 -216 238 -7 954 9 1198 26 74 5 245 14 380 20 269
11 807 51 995 75 215 27 269 36 370 65 116 34 198 45 460 61 230 14 522 7 621
-15 99 -22 429 -39 604 -31 80 4 190 2 245 -3 106 -10 595 -2 1035 18 282 12
613 43 750 70 52 10 138 23 190 30 130 17 223 43 273 76 25 16 53 27 69 26 33
-3 143 40 172 67 12 10 37 21 58 24 36 5 152 52 220 88 20 10 55 26 78 34 23
8 74 36 114 61 39 26 89 59 111 73 132 86 223 231 250 400 8 49 19 100 24 113
16 43 23 144 12 184 -6 23 -34 66 -66 102 -49 57 -55 68 -55 108 0 43 -32 116
-66 151 -9 9 -9 22 -2 47 13 40 4 99 -17 116 -21 18 -87 21 -105 6 -23 -20
-185 -104 -232 -122 -94 -34 -197 -66 -268 -84 -41 -10 -94 -28 -117 -39 -23
-12 -48 -18 -56 -15 -8 3 -34 0 -57 -6 -23 -6 -55 -13 -71 -15 -32 -4 -59 -21
-59 -37 0 -7 18 -8 48 -3 86 13 38 -4 -69 -24 -161 -30 -250 -43 -255 -38 -6
5 115 32 189 42 50 7 66 32 27 42 -33 9 -17 27 33 40 25 6 61 22 79 35 75 53
96 63 158 73 45 7 45 7 27 -13 -10 -11 -33 -23 -52 -26 -36 -7 -60 -29 -50
-46 10 -16 29 -12 48 10 9 11 29 20 46 20 20 0 34 8 45 25 13 20 20 23 40 15
13 -4 27 -5 32 0 11 10 137 60 151 60 6 0 16 7 23 15 7 8 29 15 49 15 21 0 46
7 57 15 10 8 27 15 36 15 9 0 26 13 38 30 15 21 30 30 50 30 15 0 43 6 61 14
l34 14 -39 8 c-53 9 -246 -1 -496 -27 -130 -13 -281 -22 -413 -23 -191 -1
-210 1 -222 17 -14 19 -25 63 -80 313 -18 83 -38 160 -44 172 -18 34 -62 62
-97 62 -28 0 -35 -4 -40 -27 -4 -16 -24 -44 -45 -63 -32 -28 -42 -48 -56 -102
-15 -59 -16 -74 -4 -125 7 -32 15 -84 18 -115 5 -55 4 -58 -22 -68 -20 -8 -33
-7 -53 4 -15 8 -66 18 -114 21 l-88 7 0 56 c1 32 5 77 11 102 6 25 14 72 19
105 20 129 66 225 109 225 9 0 43 -7 75 -15 57 -15 96 -13 96 5 0 12 -95 46
-147 53 -23 4 -59 17 -80 30 -21 13 -88 43 -148 65 -61 23 -159 60 -220 83
-227 85 -342 99 -240 29 111 -76 343 -164 496 -187 l112 -17 -29 -23 c-16 -12
-43 -33 -59 -47 -17 -13 -41 -45 -53 -70 -13 -25 -28 -46 -33 -46 -5 0 -9 21
-9 48 0 33 -3 43 -10 32 -13 -21 -20 -9 -27 49 -6 51 -18 66 -26 34 -3 -13 -5
-11 -7 7 -1 14 -2 28 -2 31 1 3 -18 12 -41 20 -23 7 -55 21 -72 31 -16 10 -38
18 -48 18 -25 0 -187 78 -187 90 0 6 -4 10 -9 10 -6 0 -29 13 -53 28 -24 16
-64 36 -90 46 -63 23 -70 37 -15 30 57 -8 73 11 33 40 -57 43 -210 126 -265
142 -62 20 -121 52 -166 94 -16 15 -63 49 -104 76 -40 27 -85 64 -100 82 -14
18 -39 40 -56 49 -16 9 -80 56 -141 104 -62 49 -117 89 -123 89 -5 0 -37 26
-69 58 -32 31 -126 120 -207 197 -82 77 -251 240 -376 363 -144 141 -238 226
-256 231 -20 5 -31 17 -39 41 -6 18 -27 48 -47 67 -30 27 -45 33 -79 33 -53 0
-52 1 -120 -85 -68 -84 -256 -277 -353 -361 -117 -101 -541 -406 -625 -449
-28 -14 -158 -99 -247 -160 -10 -7 -18 -5 -29 9 -8 11 -14 23 -14 26 0 4 24
17 53 31 130 60 667 455 667 491 0 22 -185 237 -571 663 -437 482 -652 669
-882 767 -73 31 -172 44 -221 28z m-266 -175 c0 -8 -4 -15 -10 -15 -5 0 -7 7
-4 15 4 8 8 15 10 15 2 0 4 -7 4 -15z m146 -218 c0 -226 8 -290 50 -417 16
-47 93 -184 100 -178 2 2 -14 39 -36 82 -21 43 -48 118 -59 166 -22 91 -28
224 -12 235 14 8 167 -131 281 -257 110 -121 270 -324 435 -553 59 -82 134
-184 167 -225 123 -159 218 -295 216 -310 -2 -10 -24 -19 -63 -27 -55 -11 -62
-11 -87 8 -30 21 -34 15 -19 -24 l9 -24 -41 14 c-33 11 -78 50 -202 176 -89
89 -199 194 -245 232 -103 85 -179 160 -289 285 -46 52 -91 102 -101 111 -28
24 -114 157 -145 224 -40 84 -64 259 -64 450 1 95 4 138 9 117 9 -40 15 -46
35 -38 18 6 18 8 35 96 10 58 17 80 23 80 1 0 2 -100 3 -223z m-386 -640 c83
-247 271 -526 664 -981 73 -85 142 -202 134 -226 -5 -15 -80 64 -283 295 -361
409 -472 569 -561 805 -26 70 -28 86 -28 225 -1 111 3 158 13 180 14 29 15 24
23 -88 6 -90 15 -141 38 -210z m2630 -427 c0 -12 -220 -200 -234 -200 -13 0
17 29 139 132 99 85 95 82 95 68z m780 -398 c0 -28 -35 -72 -58 -72 -10 0 -12
7 -8 23 4 12 12 44 18 71 l12 48 18 -22 c10 -12 18 -34 18 -48z m-2169 -43
c40 -14 137 -90 161 -128 10 -14 18 -36 18 -47 0 -17 -16 -5 -78 56 -106 105
-174 129 -274 94 -31 -10 -63 -33 -97 -69 -53 -56 -65 -56 -30 1 24 39 67 72
118 90 45 16 137 18 182 3z m-151 -113 c0 -2 -7 -7 -16 -10 -8 -3 -12 -2 -9 4
6 10 25 14 25 6z m-96 -77 c-31 -33 -41 -32 -23 3 14 27 30 39 42 31 5 -3 -4
-18 -19 -34z m92 26 c-26 -19 -42 -19 -26 0 7 8 20 15 29 15 13 -1 13 -3 -3
-15z m51 -11 c-9 -9 -28 6 -21 18 4 6 10 6 17 -1 6 -6 8 -13 4 -17z m63 17 c0
-5 -7 -14 -15 -21 -12 -10 -15 -10 -15 2 0 8 3 18 7 21 9 10 23 9 23 -2z
m-170 -61 c-6 -12 -14 -19 -17 -17 -2 3 1 15 7 27 6 12 14 19 17 17 2 -3 -1
-15 -7 -27z m180 -72 c0 -16 -4 -28 -10 -28 -5 0 -7 7 -4 15 11 27 -16 47 -53
40 l-33 -6 17 29 17 30 33 -27 c23 -18 33 -34 33 -53z m-110 52 c0 -21 -20
-35 -40 -28 -12 4 16 48 31 48 5 0 9 -9 9 -20z m-95 -70 c-10 -32 4 -61 38
-75 21 -9 26 -14 14 -15 -26 0 -74 36 -82 61 -7 20 9 49 27 49 5 0 6 -9 3 -20z
m125 -10 c0 -5 -4 -10 -10 -10 -5 0 -10 5 -10 10 0 6 5 10 10 10 6 0 10 -4 10
-10z m62 -83 c-24 -11 -38 -5 -28 11 3 6 16 8 28 4 l22 -5 -22 -10z m2492
-169 c13 -36 0 -76 -35 -110 -16 -17 -29 -31 -27 -32 2 -1 27 -16 56 -34 29
-18 60 -32 67 -32 8 0 18 -6 22 -13 4 -8 23 -22 41 -32 17 -11 32 -23 32 -27
0 -4 4 -8 9 -8 6 0 30 -13 54 -30 25 -16 55 -30 66 -30 12 0 24 -7 27 -15 4
-10 10 -12 18 -6 7 6 24 3 49 -9 20 -10 37 -14 37 -9 0 5 4 9 10 9 5 0 7 -13
4 -29 -7 -34 14 -55 23 -22 3 11 10 18 15 15 5 -3 7 -12 4 -19 -3 -8 2 -19 11
-27 13 -10 17 -10 20 0 7 19 27 14 71 -18 23 -16 46 -30 52 -30 5 0 14 -9 20
-21 7 -11 14 -18 17 -15 11 11 33 -16 33 -40 0 -15 6 -24 15 -24 8 0 15 -6 15
-14 0 -18 55 -77 64 -69 3 3 15 -2 26 -12 20 -18 31 -20 208 -28 23 -2 32 -7
32 -19 0 -10 7 -36 16 -58 19 -48 49 -60 176 -67 l87 -5 31 31 c30 30 31 34
25 83 -7 45 -5 50 10 45 9 -4 22 -7 29 -7 7 0 30 -15 52 -34 23 -19 57 -38 79
-42 21 -4 49 -17 62 -30 19 -19 21 -27 13 -49 -14 -37 -13 -43 11 -55 25 -14
31 -9 35 27 9 84 26 122 57 123 13 0 4 -207 -9 -220 -8 -8 -20 -3 -43 20 -29
29 -34 31 -63 21 -21 -8 -35 -8 -42 -1 -12 12 -93 13 -100 1 -3 -5 -38 -7 -78
-6 -40 2 -99 -1 -131 -7 -51 -10 -59 -9 -71 7 -7 10 -18 15 -24 11 -7 -4 -22
2 -34 14 -24 22 -55 23 -50 1 6 -27 -20 -38 -104 -45 -60 -5 -90 -4 -100 5
-10 8 -14 8 -14 0 0 -6 5 -11 10 -11 6 0 10 -5 10 -11 0 -6 -9 -9 -19 -6 -22
5 -31 -10 -31 -53 0 -16 -4 -32 -10 -35 -6 -4 -10 6 -10 24 0 16 -4 41 -9 54
-11 29 -4 42 15 26 16 -13 19 -6 27 52 5 33 3 37 -29 52 -19 9 -34 23 -34 31
0 19 -29 48 -41 41 -5 -4 -9 -15 -9 -26 0 -12 -4 -17 -11 -14 -6 4 -8 13 -5
21 9 23 -13 27 -50 9 -43 -20 -80 -17 -78 8 2 20 -14 22 -39 2 -23 -17 -48 -9
-40 13 5 14 3 15 -8 5 -20 -19 -50 -17 -42 4 4 10 2 14 -5 9 -6 -3 -13 -2 -17
4 -3 5 -15 10 -26 10 -10 0 -19 7 -19 15 0 9 -11 20 -24 25 -13 5 -27 13 -30
19 -4 5 -23 15 -44 22 -20 6 -45 20 -55 30 -10 11 -28 19 -40 19 -13 0 -27 4
-32 9 -6 4 -35 17 -65 27 -30 10 -62 24 -71 31 -9 8 -23 11 -31 8 -7 -3 -36 6
-63 21 -28 14 -71 33 -97 40 -26 8 -50 19 -53 24 -3 6 -15 10 -26 10 -10 0
-24 9 -31 20 -7 11 -19 20 -26 20 -24 0 -69 32 -86 61 -10 16 -26 29 -37 29
-10 0 -19 7 -19 15 0 9 -9 15 -21 15 -17 0 -20 5 -17 25 3 13 1 22 -4 19 -13
-8 -58 24 -58 40 0 8 5 16 11 18 8 3 6 10 -5 21 -9 9 -16 23 -14 31 2 8 -6 22
-17 30 -20 15 -20 15 1 16 11 0 25 -5 32 -12 7 -7 12 -8 12 -2 0 5 -5 15 -10
20 -8 8 0 18 24 35 23 15 34 31 33 44 -1 14 5 21 23 23 14 2 29 8 35 13 16 16
30 10 43 -21 30 -66 103 -117 183 -127 l46 -5 40 56 c23 31 44 72 47 92 8 40
26 41 40 2z m-2314 12 c0 -5 -4 -10 -10 -10 -5 0 -10 5 -10 10 0 6 5 10 10 10
6 0 10 -4 10 -10z m1810 -60 c0 -5 -8 -10 -17 -10 -15 0 -16 2 -3 10 19 12 20
12 20 0z m-3150 -369 c459 -57 683 -90 695 -103 24 -25 -346 4 -690 53 -156
23 -173 25 -264 33 -35 4 -67 9 -71 11 -4 2 -56 7 -116 10 -60 4 -125 11 -144
16 -19 5 -52 9 -72 9 -22 0 -38 5 -38 11 0 24 353 3 700 -40z m2465 -514 c143
-49 374 -161 1115 -538 269 -138 441 -215 592 -269 62 -22 119 -42 127 -45 34
-13 -3 -15 -61 -5 -56 11 -264 83 -328 115 -113 56 -155 75 -166 75 -8 0 -14
4 -14 10 0 5 -11 12 -24 16 -14 3 -27 12 -30 20 -3 8 -12 14 -19 14 -17 0 -85
28 -172 70 -100 48 -299 146 -320 157 -11 6 -45 23 -75 37 -30 15 -71 36 -90
48 -19 11 -64 33 -100 48 -36 15 -126 57 -200 94 -75 36 -141 66 -148 66 -7 0
-11 6 -9 13 1 7 -10 12 -31 12 -21 1 -37 7 -43 17 -5 10 -16 15 -24 12 -8 -3
-31 3 -52 14 -21 11 -46 23 -55 26 -10 3 -18 12 -18 20 0 17 38 10 145 -27z
m2425 -77 c0 -5 -7 -10 -16 -10 -8 0 -12 5 -9 10 3 6 10 10 16 10 5 0 9 -4 9
-10z m54 -86 c9 -3 16 -10 16 -14 0 -9 -53 -4 -105 10 -26 7 -23 8 22 9 28 1
58 -2 67 -5z m-6355 -218 c9 -11 4 -17 -23 -30 -44 -21 -46 -20 -46 8 0 33 48
48 69 22z m68 8 c-3 -3 -12 -4 -19 -1 -8 3 -5 6 6 6 11 1 17 -2 13 -5z m8068
-34 c-3 -5 -14 -10 -23 -10 -15 0 -15 2 -2 10 20 13 33 13 25 0z m-55 -20
c-20 -13 -33 -13 -25 0 3 6 14 10 23 10 15 0 15 -2 2 -10z m-70 -20 c-14 -4
-32 -8 -40 -9 -13 -1 -13 0 0 9 8 5 26 9 40 9 l25 -1 -25 -8z m-2424 -41 c32
-11 92 -23 132 -26 74 -6 89 -16 49 -34 -41 -18 -257 41 -257 71 0 14 9 13 76
-11z m1911 -45 c-3 -3 -12 -4 -19 -1 -8 3 -5 6 6 6 11 1 17 -2 13 -5z m-7197
-14 c11 -7 6 -9 -17 -7 -18 1 -33 5 -33 10 0 10 32 9 50 -3z m-85 -9 c9 -16
-35 -35 -48 -22 -9 9 -8 14 3 21 19 12 37 13 45 1z m270 -1 c-3 -5 -10 -10
-16 -10 -5 0 -9 5 -9 10 0 6 7 10 16 10 8 0 12 -4 9 -10z m55 -21 c0 -5 -7 -9
-15 -9 -9 0 -12 6 -9 15 6 15 24 11 24 -6z m-280 -20 c0 -23 -13 -25 -31 -3
-10 13 -10 17 1 24 18 11 30 3 30 -21z m120 22 c0 -17 -18 -21 -24 -6 -3 9 0
15 9 15 8 0 15 -4 15 -9z m47 3 c-3 -3 -12 -4 -19 -1 -8 3 -5 6 6 6 11 1 17
-2 13 -5z m-99 -15 c-2 -6 -8 -10 -13 -10 -5 0 -11 4 -13 10 -2 6 4 11 13 11
9 0 15 -5 13 -11z m-163 -29 c3 -5 1 -10 -4 -10 -6 0 -11 5 -11 10 0 6 2 10 4
10 3 0 8 -4 11 -10z m922 4 c-3 -3 -12 -4 -19 -1 -8 3 -5 6 6 6 11 1 17 -2 13
-5z m-647 -14 c0 -5 -4 -10 -9 -10 -6 0 -13 5 -16 10 -3 6 1 10 9 10 9 0 16
-4 16 -10z m340 0 c0 -5 -7 -10 -15 -10 -8 0 -15 5 -15 10 0 6 7 10 15 10 8 0
15 -4 15 -10z m-385 -10 c3 -5 -1 -10 -10 -10 -9 0 -13 5 -10 10 3 6 8 10 10
10 2 0 7 -4 10 -10z m445 0 c0 -5 -4 -10 -10 -10 -5 0 -10 5 -10 10 0 6 5 10
10 10 6 0 10 -4 10 -10z m-347 -7 c-7 -2 -19 -2 -25 0 -7 3 -2 5 12 5 14 0 19
-2 13 -5z m410 0 c-7 -2 -19 -2 -25 0 -7 3 -2 5 12 5 14 0 19 -2 13 -5z m-673
-7 c0 -3 -4 -8 -10 -11 -5 -3 -10 -1 -10 4 0 6 5 11 10 11 6 0 10 -2 10 -4z
m367 -12 c-3 -3 -12 -4 -19 -1 -8 3 -5 6 6 6 11 1 17 -2 13 -5z m-190 -90 c-3
-3 -12 -4 -19 -1 -8 3 -5 6 6 6 11 1 17 -2 13 -5z m321 -486 c-2 -7 -65 -62
-140 -123 -75 -60 -160 -131 -190 -156 -130 -111 -227 -134 -269 -65 -28 45
-24 110 10 175 l28 54 7 -42 c8 -52 36 -81 79 -81 33 0 46 7 332 174 134 78
149 85 143 64z"/>
<path d="M3246 6158 c15 -29 116 -150 178 -213 l59 -60 -54 63 c-30 35 -73 89
-97 120 -47 62 -100 117 -86 90z"/>
<path d="M7045 3880 c3 -5 8 -10 11 -10 2 0 4 5 4 10 0 6 -5 10 -11 10 -5 0
-7 -4 -4 -10z"/>
<path d="M8110 4230 c0 -5 5 -10 10 -10 6 0 10 5 10 10 0 6 -4 10 -10 10 -5 0
-10 -4 -10 -10z"/>
</g>
</svg>
