<?xml version="1.0" standalone="no"?>
<!DOCTYPE svg PUBLIC "-//W3C//DTD SVG 20010904//EN"
 "http://www.w3.org/TR/2001/REC-SVG-20010904/DTD/svg10.dtd">
<svg version="1.0" xmlns="http://www.w3.org/2000/svg"
 width="1080.000000pt" height="810.000000pt" viewBox="0 0 1080.000000 810.000000"
 preserveAspectRatio="xMidYMid meet">

<g transform="translate(0.000000,810.000000) scale(0.100000,-0.100000)"
fill="#000000" stroke="none">
<path d="M3232 7064 c-68 -34 -100 -76 -171 -226 -55 -117 -76 -152 -168 -272
-21 -28 -53 -75 -72 -105 -18 -31 -53 -79 -76 -107 -118 -138 -122 -231 -16
-417 61 -105 149 -215 346 -429 239 -259 344 -406 319 -445 -17 -28 -236 -118
-394 -162 -291 -80 -457 -97 -810 -80 -394 19 -455 3 -475 -121 -4 -24 -18
-73 -31 -107 -13 -35 -24 -72 -24 -83 0 -36 -21 -65 -80 -109 -126 -95 -274
-323 -347 -536 -25 -74 -53 -260 -53 -358 0 -56 -2 -60 -60 -127 -138 -161
-215 -441 -190 -689 25 -237 108 -434 245 -580 147 -158 395 -293 565 -308 30
-2 71 -13 90 -23 34 -18 171 -37 220 -32 14 2 38 15 53 30 l28 27 29 -35 29
-35 137 0 137 0 17 29 c23 42 35 42 59 2 12 -19 28 -37 37 -40 9 -3 76 -6 149
-6 l133 0 33 41 33 42 33 -39 32 -39 127 0 126 0 30 38 c38 47 62 47 111 -1
l38 -37 164 0 c159 0 164 1 189 24 l26 24 25 -23 c24 -22 28 -23 142 -16 65 3
134 10 153 15 19 5 103 27 185 50 275 74 442 92 870 92 320 0 376 -8 575 -84
123 -47 144 -51 236 -55 94 -4 104 -2 133 19 26 19 35 21 49 11 47 -34 83 -42
198 -42 l117 0 33 35 c18 19 36 35 41 35 4 -1 17 -15 28 -33 l21 -32 156 0
157 0 36 35 36 35 28 -33 27 -34 146 4 147 3 33 32 34 33 27 -27 27 -27 139 2
c169 4 197 11 237 58 l32 37 16 -31 c26 -51 40 -54 198 -40 136 11 144 13 171
40 35 35 40 35 62 2 16 -25 21 -26 74 -21 80 9 147 34 166 64 l17 25 23 -22
c23 -22 24 -22 97 -5 136 30 145 34 172 70 l27 35 29 -21 28 -21 73 22 c133
40 175 59 187 84 8 18 16 22 40 18 33 -4 111 31 155 72 18 17 39 26 60 26 18
0 63 16 101 35 39 19 75 35 81 35 6 0 24 13 39 29 16 16 40 32 53 36 75 19
274 193 350 308 93 140 145 330 146 532 1 130 -23 246 -65 313 -11 18 -24 63
-29 102 -16 129 -96 243 -191 272 -80 24 -352 15 -623 -21 -269 -36 -459 -49
-468 -34 -9 14 -55 232 -77 365 -29 172 -75 247 -170 276 -19 6 -71 16 -115
22 -116 17 -294 56 -415 92 -219 65 -564 205 -710 289 -143 82 -537 365 -684
491 -67 57 -180 151 -252 210 -71 58 -151 131 -177 161 -25 30 -62 62 -81 71
-21 10 -72 60 -123 119 -48 56 -148 163 -222 238 -158 158 -199 182 -280 160
-54 -14 -124 -60 -230 -151 -124 -107 -341 -280 -351 -280 -6 0 -36 28 -68 62
-297 321 -663 682 -837 824 -141 115 -342 260 -412 297 -149 78 -324 99 -421
51z m376 -742 c140 -166 457 -602 438 -602 -3 0 -37 42 -75 93 -38 52 -131
163 -208 248 -175 194 -293 353 -293 394 0 19 52 -30 138 -133z m-542 -211 c2
-2 19 6 39 18 20 11 38 21 40 21 8 0 -16 -53 -35 -78 -11 -13 -20 -40 -20 -58
0 -28 18 -52 132 -176 243 -262 242 -262 283 -255 39 6 43 2 18 -25 -19 -21
-37 -22 -82 -7 -37 13 -294 292 -352 384 -43 66 -66 147 -55 191 7 27 8 27 18
9 6 -11 12 -22 14 -24z m342 -55 c15 -8 73 -61 128 -118 132 -134 144 -182 59
-222 -30 -15 -39 -15 -62 -4 -34 16 -163 174 -200 244 -31 59 -27 78 18 101
30 16 25 16 57 -1z m1972 -42 c0 -16 -81 -101 -192 -199 -195 -174 -167 -154
-408 -298 -238 -142 -350 -199 -369 -188 -7 5 31 38 101 86 228 159 398 282
590 427 252 189 278 205 278 172z m-2248 -331 c65 -67 158 -187 158 -204 0
-22 -26 -3 -100 72 -44 45 -93 105 -110 134 -51 89 -37 88 52 -2z m999 -85
c11 -21 11 -22 -4 -9 -10 7 -17 17 -17 22 0 15 9 10 21 -13z m29 -48 c6 -11 8
-20 6 -20 -3 0 -10 9 -16 20 -6 11 -8 20 -6 20 3 0 10 -9 16 -20z m104 -163
c64 -103 102 -177 91 -177 -8 0 -185 294 -185 308 0 14 31 -30 94 -131z m70 5
c13 -20 31 -44 40 -51 17 -14 50 -81 43 -87 -4 -4 -120 150 -125 166 -9 25 20
6 42 -28z m1749 -36 c-12 -22 -151 -164 -224 -231 -57 -51 -64 -62 -52 -73 8
-8 21 -11 30 -8 21 8 43 -11 36 -31 -4 -10 -2 -14 7 -11 7 2 24 -7 37 -20 18
-18 23 -31 18 -49 -5 -21 -3 -24 11 -19 20 8 45 -11 38 -29 -6 -16 29 -37 54
-33 11 2 22 -8 32 -29 8 -18 19 -33 24 -33 5 0 18 -8 29 -17 15 -13 21 -15 24
-5 7 20 23 3 23 -24 0 -21 4 -24 20 -19 11 4 20 2 20 -4 0 -6 -4 -11 -10 -11
-5 0 -14 -10 -21 -21 -10 -20 -9 -21 15 -15 15 4 26 2 26 -4 0 -5 9 -10 20
-10 11 0 20 -7 20 -15 0 -9 9 -15 22 -15 20 0 18 -3 -14 -30 -59 -49 -68 -118
-23 -186 33 -51 209 -112 284 -99 20 3 47 14 60 24 24 19 25 19 43 -4 10 -13
40 -34 65 -47 26 -13 55 -31 65 -40 10 -10 25 -18 33 -18 12 0 15 -13 15 -57
1 -120 74 -194 193 -195 69 -1 123 26 148 71 24 45 26 46 47 28 10 -10 44 -27
75 -40 l57 -23 -26 -38 c-37 -54 -41 -94 -12 -135 32 -47 81 -71 146 -71 112
0 179 79 138 161 -20 40 -16 45 15 21 32 -24 107 -52 111 -41 4 10 239 -19
255 -33 16 -13 92 -13 106 1 19 19 22 13 22 -59 0 -80 8 -92 89 -134 141 -75
278 23 222 158 -18 44 -66 77 -129 87 l-52 8 65 -3 c73 -4 173 -43 184 -71 6
-16 8 -17 24 -1 25 22 36 20 67 -8 33 -31 45 -73 45 -162 0 -57 -4 -77 -20
-95 l-20 -24 -23 28 c-27 32 -70 35 -156 12 -57 -15 -287 -10 -297 7 -3 4 -14
3 -25 -2 -13 -7 -31 -8 -57 -1 -33 9 -176 21 -289 24 -24 1 -43 4 -43 8 0 7
-88 23 -293 54 -59 9 -125 22 -146 30 -22 7 -61 17 -88 21 -26 4 -62 15 -79
25 -17 9 -42 17 -55 18 -37 1 -103 13 -109 20 -7 9 -62 34 -84 38 -11 2 -33
10 -49 18 -17 8 -38 15 -49 15 -10 0 -18 4 -18 9 0 9 -17 19 -115 69 -27 14
-57 31 -65 38 -9 8 -35 20 -58 28 -23 8 -52 24 -64 36 -12 11 -28 20 -35 20
-7 0 -17 9 -23 20 -6 11 -18 20 -27 20 -9 0 -26 9 -37 19 -12 10 -46 32 -76
47 -30 16 -74 48 -98 71 -24 24 -48 43 -52 43 -5 0 -20 10 -33 23 -50 47 -90
77 -103 77 -7 0 -11 6 -8 13 3 8 -8 16 -28 22 -23 7 -32 15 -30 28 2 9 -2 17
-8 17 -5 0 -10 7 -10 16 0 8 -5 12 -10 9 -16 -10 -34 46 -18 57 17 11 -7 28
-39 28 -13 0 -23 5 -23 10 0 6 -11 10 -25 10 -23 0 -24 2 -13 20 7 11 20 20
28 21 8 0 2 5 -15 10 -19 5 -31 5 -33 -1 -5 -13 -42 -13 -42 0 0 6 -5 10 -10
10 -6 0 -22 11 -35 24 -14 14 -33 30 -42 36 -13 8 -14 13 -5 16 24 11 11 24
-24 24 -33 0 -35 2 -23 16 12 15 11 16 -8 10 -12 -4 -24 -2 -28 4 -3 5 -13 10
-20 10 -13 0 -98 -36 -179 -76 -41 -20 -66 -18 -66 5 0 11 5 23 10 26 6 3 10
13 10 21 0 12 -7 14 -32 9 -33 -7 -33 -7 -13 13 11 11 83 63 161 115 77 52
214 152 305 221 90 69 168 126 174 126 5 0 -24 -34 -65 -75 -52 -52 -69 -75
-56 -75 10 0 35 13 56 30 20 16 48 34 61 40 37 16 132 72 170 101 92 69 118
84 102 55z m398 -83 c134 -98 197 -163 159 -163 -11 0 -234 182 -245 200 -15
24 28 6 86 -37z m-2343 -9 c59 -29 90 -65 126 -145 49 -111 43 -239 -15 -319
-55 -76 -162 -122 -284 -122 -92 -1 -134 14 -182 64 -168 174 -54 508 187 552
45 8 114 -5 168 -30z m1852 -304 c0 -5 -5 -10 -11 -10 -5 0 -7 5 -4 10 3 6 8
10 11 10 2 0 4 -4 4 -10z m50 -60 c-12 -22 -30 -18 -30 6 0 8 9 14 20 14 18 0
19 -3 10 -20z m100 -90 c0 -5 -5 -10 -11 -10 -5 0 -7 5 -4 10 3 6 8 10 11 10
2 0 4 -4 4 -10z m1010 -153 c0 -18 -2 -19 -10 -7 -13 20 -13 43 0 35 6 -3 10
-16 10 -28z m-1370 -87 c0 -5 -7 -10 -16 -10 -8 0 -12 5 -9 10 3 6 10 10 16
10 5 0 9 -4 9 -10z m1784 -31 c82 -25 88 -27 81 -39 -6 -9 -142 35 -159 51
-15 13 -1 11 78 -12z m-4354 -45 c114 -14 205 -33 196 -41 -2 -2 -95 7 -205
21 -111 14 -222 26 -246 26 -24 0 -47 5 -51 11 -8 13 119 6 306 -17z m4219
-158 c-2 -2 -13 8 -23 22 l-19 27 24 -22 c12 -12 21 -24 18 -27z m-263 -25 c5
-5 38 -18 74 -30 36 -11 58 -20 49 -20 -25 -1 -113 27 -134 43 -11 9 -15 16
-9 16 5 0 14 -4 20 -9z m723 -37 c17 -4 31 -10 31 -14 0 -8 -89 6 -98 15 -7 7
29 6 67 -1z m-3233 -59 c220 -38 621 -153 784 -225 221 -97 608 -306 655 -353
6 -6 -51 22 -125 62 -185 98 -511 257 -590 288 -215 82 -391 133 -653 188 -89
18 -173 38 -187 44 l-25 10 26 0 c15 1 66 -6 115 -14z m1344 -341 l25 -15 -25
7 c-14 3 -29 10 -34 15 -16 14 6 10 34 -7z m-650 -14 c8 -5 11 -10 5 -10 -5 0
-17 5 -25 10 -8 5 -10 10 -5 10 6 0 17 -5 25 -10z m219 -101 c89 -45 160 -84
157 -86 -4 -4 -322 151 -335 163 -20 18 43 -9 178 -77z m3816 -89 c-3 -5 -19
-10 -36 -10 -16 0 -29 5 -29 10 0 6 16 10 36 10 21 0 33 -4 29 -10z m-160 -20
c-27 -12 -35 -12 -35 0 0 6 12 10 28 9 24 0 25 -1 7 -9z m-145 -30 c0 -5 -4
-10 -10 -10 -5 0 -10 5 -10 10 0 6 5 10 10 10 6 0 10 -4 10 -10z m-6610 -20
c0 -5 -4 -10 -10 -10 -5 0 -10 5 -10 10 0 6 5 10 10 10 6 0 10 -4 10 -10z
m160 -56 c0 -14 -8 -25 -20 -29 -18 -6 -20 -12 -14 -43 l6 -37 -30 36 c-28 32
-39 37 -105 48 -41 7 -98 13 -126 13 -29 1 -54 5 -56 9 -6 9 87 19 207 22 73
1 99 5 103 15 8 21 35 -5 35 -34z m-750 -20 c13 -33 13 -111 0 -119 -6 -4 -10
13 -10 44 0 27 -4 61 -10 75 -6 17 -6 26 0 26 6 0 15 -12 20 -26z m1275 16 c5
7 17 9 34 4 27 -8 105 -15 155 -15 30 0 66 -15 66 -28 0 -4 -48 -6 -106 -3
l-107 3 22 -26 c21 -28 20 -45 -4 -45 -18 0 -38 37 -31 56 5 13 -5 17 -39 17
-5 0 -20 -3 -32 -7 -21 -7 -22 -6 -7 24 12 24 19 28 29 20 10 -8 15 -8 20 0z
m-1535 -50 c0 -5 -5 -10 -11 -10 -5 0 -7 5 -4 10 3 6 8 10 11 10 2 0 4 -4 4
-10z m90 -5 c0 -8 -7 -15 -15 -15 -9 0 -12 6 -9 15 4 8 10 15 15 15 5 0 9 -7
9 -15z m90 -5 c0 -5 -4 -10 -10 -10 -5 0 -10 5 -10 10 0 6 5 10 10 10 6 0 10
-4 10 -10z m370 -15 c0 -14 -4 -25 -10 -25 -11 0 -14 33 -3 43 11 11 13 8 13
-18z m110 4 c0 -14 -5 -19 -17 -17 -26 5 -29 38 -4 38 15 0 21 -6 21 -21z
m115 11 c3 -4 1 -18 -3 -30 -8 -21 -8 -21 -32 -2 -13 10 -21 23 -17 28 7 12
45 15 52 4z m123 -23 c3 -25 0 -28 -20 -25 -17 2 -24 11 -26 31 -3 25 0 28 20
25 17 -2 24 -11 26 -31z m840 0 c2 -12 -3 -17 -17 -17 -12 0 -21 6 -21 13 0
31 32 34 38 4z m-238 -12 c0 -8 -6 -15 -14 -15 -17 0 -28 14 -19 24 12 12 33
6 33 -9z m-1352 -82 c-4 -22 -22 -20 -26 1 -2 10 3 16 13 16 10 0 15 -7 13
-17z m556 1 c19 -7 21 -34 3 -34 -14 0 -37 20 -37 32 0 10 13 10 34 2z m146
-28 c0 -10 -7 -11 -35 -2 -31 10 -33 13 -19 23 19 14 54 1 54 -21z m-260 8 c0
-2 -7 -4 -15 -4 -8 0 -15 4 -15 10 0 5 7 7 15 4 8 -4 15 -8 15 -10z m968 6 c6
0 12 -4 12 -9 0 -5 -8 -7 -19 -4 -10 3 -22 0 -25 -6 -8 -13 -46 -15 -46 -3 0
17 26 33 45 28 11 -3 26 -6 33 -6z m127 1 c7 -12 -26 -31 -52 -31 -16 1 -15 3
6 20 26 22 37 25 46 11z m133 -23 c-7 -20 -48 -23 -48 -4 0 11 9 16 26 16 16
0 24 -5 22 -12z m642 2 c0 -5 -4 -10 -10 -10 -5 0 -10 5 -10 10 0 6 5 10 10
10 6 0 10 -4 10 -10z m2675 -71 c44 -27 18 -22 -35 7 -25 14 -34 22 -20 18 14
-3 39 -15 55 -25z m-4525 -19 c0 -5 -4 -10 -9 -10 -6 0 -13 5 -16 10 -3 6 1
10 9 10 9 0 16 -4 16 -10z m135 -10 c3 -6 -5 -10 -19 -10 -14 0 -28 5 -31 10
-3 6 5 10 19 10 14 0 28 -4 31 -10z m134 1 c11 -7 10 -11 -6 -19 -22 -12 -49
0 -39 17 9 13 26 14 45 2z m1491 -1 c0 -5 -7 -10 -15 -10 -8 0 -15 5 -15 10 0
6 7 10 15 10 8 0 15 -4 15 -10z m210 -5 c0 -8 -9 -15 -20 -15 -11 0 -20 7 -20
15 0 8 9 15 20 15 11 0 20 -7 20 -15z m151 5 c5 0 9 -7 9 -15 0 -18 -21 -20
-38 -3 -17 17 -15 31 4 24 9 -3 20 -6 25 -6z m-1153 -16 c-9 -9 -21 -13 -27
-9 -16 10 -3 25 22 25 20 0 20 -1 5 -16z m672 6 c0 -5 -9 -10 -21 -10 -11 0
-17 5 -14 10 3 6 13 10 21 10 8 0 14 -4 14 -10z m-482 -18 c2 -7 -6 -12 -17
-12 -21 0 -27 11 -14 24 9 9 26 2 31 -12z m892 -105 c12 -4 11 -6 -3 -6 -26
-1 -59 18 -51 30 4 7 12 5 22 -4 10 -8 24 -17 32 -20z m-170 -3 c0 -2 -9 0
-20 6 -11 6 -20 13 -20 16 0 2 9 0 20 -6 11 -6 20 -13 20 -16z m344 20 c24 -9
19 -24 -8 -24 -26 0 -40 12 -29 24 8 8 17 8 37 0z m-528 -11 c-12 -12 -58 -15
-51 -3 3 5 18 10 32 10 15 0 23 -3 19 -7z m-951 -443 c3 -5 1 -10 -4 -10 -6 0
-11 5 -11 10 0 6 2 10 4 10 3 0 8 -4 11 -10z"/>
<path d="M5776 5035 c-3 -8 -1 -15 3 -15 5 0 11 7 15 15 3 8 1 15 -3 15 -5 0
-11 -7 -15 -15z"/>
<path d="M5895 4910 c-3 -5 -1 -10 4 -10 6 0 11 5 11 10 0 6 -2 10 -4 10 -3 0
-8 -4 -11 -10z"/>
<path d="M3968 5180 c-58 -10 -104 -37 -152 -90 -40 -45 -47 -80 -16 -80 13 0
20 7 20 18 0 31 21 44 42 25 17 -15 18 -14 18 15 0 22 5 32 15 32 8 0 15 -3
15 -7 1 -5 5 -28 9 -52 8 -38 6 -44 -10 -48 -11 -3 -19 -10 -19 -15 0 -6 -6
-8 -14 -5 -7 3 -19 0 -25 -6 -8 -8 -15 -6 -26 9 -13 17 -14 18 -15 1 0 -10 -7
-20 -15 -23 -23 -9 -19 -37 4 -29 11 3 22 1 26 -5 5 -8 11 -5 20 6 7 10 19 15
29 11 9 -4 16 -2 16 4 0 14 43 29 54 18 5 -4 17 3 28 16 10 13 29 27 41 31 12
4 25 12 29 18 13 20 19 -2 10 -35 -5 -19 -14 -33 -20 -32 -6 2 -31 -15 -54
-37 -24 -22 -47 -40 -52 -40 -20 0 -85 -36 -86 -46 0 -20 38 -61 70 -74 39
-16 110 -8 143 16 14 11 38 41 52 67 24 43 25 50 11 60 -14 11 -13 14 9 34 29
25 39 15 30 -30 -24 -109 -98 -177 -193 -177 -62 0 -91 11 -141 50 -106 86
-114 230 -19 352 27 35 32 44 14 28 -79 -71 -117 -217 -81 -303 55 -132 212
-192 327 -124 55 32 91 87 107 166 17 81 -2 152 -32 122 -6 -6 -17 -11 -25
-11 -17 0 -12 42 6 48 7 2 11 -2 10 -10 -2 -9 5 -12 22 -10 48 5 70 12 70 23
0 6 -7 8 -15 5 -8 -3 -22 -9 -30 -12 -19 -8 -32 41 -16 60 9 10 9 16 1 21 -6
4 -34 -14 -61 -40 -46 -43 -51 -45 -63 -30 -11 16 -15 14 -34 -19 -12 -20 -28
-36 -36 -36 -17 0 -33 61 -21 80 4 6 1 18 -6 26 -19 23 2 37 66 42 30 2 55 8
55 13 0 5 -4 9 -9 9 -5 0 -15 2 -23 4 -7 2 -34 0 -60 -4z"/>
<path d="M4251 4896 c-7 -26 -24 -63 -37 -82 -29 -42 -31 -53 -5 -30 25 23 63
112 59 138 -2 14 -8 6 -17 -26z"/>
</g>
</svg>
