<?xml version="1.0" standalone="no"?>
<!DOCTYPE svg PUBLIC "-//W3C//DTD SVG 20010904//EN"
 "http://www.w3.org/TR/2001/REC-SVG-20010904/DTD/svg10.dtd">
<svg version="1.0" xmlns="http://www.w3.org/2000/svg"
 width="1080.000000pt" height="810.000000pt" viewBox="0 0 1080.000000 810.000000"
 preserveAspectRatio="xMidYMid meet">

<g transform="translate(0.000000,810.000000) scale(0.100000,-0.100000)"
fill="#000000" stroke="none">
<path d="M3295 6821 c-82 -20 -153 -78 -190 -157 -24 -51 -38 -145 -28 -185 9
-32 13 -34 60 -41 204 -30 430 -196 757 -558 135 -149 227 -259 331 -395 37
-49 74 -95 82 -101 11 -9 9 -14 -11 -27 -59 -39 -199 -109 -245 -123 l-50 -14
-73 49 c-87 58 -289 259 -383 381 -22 28 -62 78 -90 112 -27 33 -66 83 -86
112 -19 28 -61 78 -92 111 -66 69 -208 272 -247 354 -38 78 -54 162 -46 243 6
65 37 168 60 198 10 12 8 12 -10 0 -33 -23 -69 -69 -108 -141 -19 -35 -49 -78
-67 -94 -17 -17 -40 -50 -51 -75 -20 -43 -21 -44 -29 -21 -8 20 -12 21 -25 10
-8 -7 -24 -29 -35 -48 l-20 -36 5 33 c5 30 4 32 -14 22 -30 -16 -47 -48 -60
-113 -29 -142 -4 -289 72 -442 52 -102 184 -287 347 -483 368 -444 360 -434
329 -460 -23 -18 -204 -90 -331 -130 -160 -52 -300 -79 -472 -92 -76 -6 -142
-13 -145 -16 -3 -3 41 -4 98 -2 56 1 102 0 102 -3 0 -17 -213 -24 -285 -10
l-40 9 35 2 c49 3 -354 39 -474 42 -79 3 -100 0 -106 -12 -33 -64 -72 -301
-57 -343 13 -40 -5 -55 -79 -67 -68 -11 -132 -51 -153 -95 -30 -63 -51 -137
-51 -183 0 -36 -5 -54 -20 -67 -17 -16 -20 -30 -20 -114 1 -121 11 -176 40
-206 l23 -24 -32 -30 c-21 -19 -31 -38 -31 -58 1 -43 33 -104 73 -140 55 -48
55 -49 -50 -73 -75 -17 -162 -77 -220 -151 -26 -34 -65 -79 -86 -100 -21 -22
-47 -60 -58 -86 -27 -63 -51 -178 -43 -209 4 -17 0 -31 -12 -46 -15 -16 -19
-36 -19 -98 1 -46 7 -89 14 -104 11 -20 11 -31 2 -54 -10 -25 -7 -40 24 -121
19 -51 35 -98 35 -105 0 -6 9 -28 19 -49 10 -20 22 -48 25 -61 7 -28 51 -83
147 -183 61 -64 108 -101 218 -176 18 -13 41 -17 76 -15 46 3 55 0 94 -34 32
-27 56 -39 90 -43 25 -3 66 -11 91 -18 32 -8 179 -12 500 -12 586 0 1123 17
1435 45 66 6 192 15 280 20 149 8 165 10 230 40 62 28 103 36 355 71 157 22
346 48 420 59 239 34 353 42 531 38 228 -7 386 -30 462 -69 79 -40 137 -40
169 0 35 44 73 46 81 3 4 -18 16 -33 34 -41 41 -20 180 -31 231 -19 28 7 46 7
55 1 18 -15 431 -26 497 -13 40 8 73 8 120 -1 69 -12 551 2 720 21 47 5 140
14 208 20 91 7 138 16 182 35 39 16 69 23 85 19 27 -7 206 11 272 28 22 5 54
23 69 39 30 32 49 35 89 17 20 -9 43 -9 100 1 139 23 448 135 470 170 3 7 15
7 30 1 33 -12 88 5 129 40 27 25 39 28 69 23 37 -6 44 -2 131 69 21 17 40 25
53 22 33 -9 199 85 215 122 8 17 19 24 38 24 20 0 40 14 74 52 25 28 46 58 46
66 0 7 10 22 21 31 12 10 20 23 18 30 -3 8 -29 0 -84 -28 -43 -22 -81 -38 -84
-36 -6 6 29 39 50 47 9 3 22 27 29 52 15 55 32 71 25 24 -4 -28 -4 -29 4 -8
10 32 34 70 43 70 3 0 8 -8 11 -18 2 -12 8 -7 22 20 19 39 15 59 -7 41 -20
-15 -178 -76 -184 -71 -7 8 13 21 101 67 96 51 135 89 135 132 0 24 -4 30 -15
25 -18 -6 -21 24 -4 41 14 14 8 68 -8 69 -26 3 -28 5 -10 18 27 20 19 70 -10
74 -27 4 -30 30 -7 47 15 10 14 14 -10 40 -23 25 -30 27 -46 17 -11 -7 -24
-12 -29 -12 -5 0 -44 -17 -87 -37 -125 -58 -280 -113 -322 -113 -12 0 -30 -8
-41 -19 -10 -10 -34 -21 -52 -24 -19 -3 -50 -10 -69 -15 -19 -6 -64 -18 -100
-26 -36 -9 -74 -20 -85 -25 -36 -17 -65 -23 -65 -13 0 15 21 28 70 41 251 69
690 242 760 300 l25 21 -25 -3 c-22 -2 -25 2 -23 28 1 17 7 55 14 86 12 57 7
109 -11 109 -6 0 -38 -21 -73 -46 -68 -50 -247 -140 -342 -172 -81 -27 -522
-119 -659 -137 -61 -8 -157 -15 -215 -15 -59 0 -120 -4 -138 -9 -25 -7 -33 -6
-37 6 -9 23 -8 25 15 18 11 -4 55 1 97 11 l77 17 -50 12 c-46 10 -48 11 -22
18 28 8 35 21 17 32 -8 5 -7 11 0 20 6 8 15 26 19 42 8 30 3 29 136 33 17 1
54 -2 83 -5 38 -6 52 -4 52 5 0 7 7 10 15 6 9 -3 18 1 21 9 4 8 11 12 18 7 19
-12 85 -9 90 5 6 16 36 17 36 2 0 -7 7 -8 18 -4 9 4 40 11 67 15 43 7 53 5 72
-13 25 -23 43 -16 23 8 -10 13 -9 15 10 15 13 0 28 -7 35 -16 11 -15 14 -15
33 6 17 18 24 21 35 12 27 -23 188 -2 280 35 118 48 156 73 167 111 15 54 2
62 -99 62 -92 0 -285 -29 -811 -122 -281 -49 -300 -51 -300 -27 0 5 -7 9 -15
9 -29 0 -35 32 -76 423 -12 116 -39 225 -51 204 -4 -9 -11 -94 -14 -189 -7
-258 -12 -298 -32 -291 -9 4 -19 9 -22 13 -3 3 -19 16 -36 27 -30 21 -30 21
-43 2 -16 -27 -72 -50 -88 -38 -6 6 -17 9 -25 8 -7 -2 -23 2 -35 9 -15 8 -49
11 -95 8 -40 -2 -78 1 -85 6 -7 5 -31 11 -55 13 -24 1 -55 6 -70 10 -19 5 -28
3 -28 -5 0 -6 -5 -8 -12 -4 -6 4 -32 8 -57 8 -25 1 -50 4 -56 7 -5 3 -23 5
-40 4 -16 -1 -36 3 -44 8 -18 15 -43 18 -58 6 -8 -7 -18 -7 -33 1 -11 6 -25 8
-30 5 -5 -3 -11 -1 -15 4 -3 6 -27 10 -54 9 -27 0 -57 4 -67 10 -9 5 -25 7
-35 5 -11 -3 -19 0 -19 6 0 6 -13 11 -29 11 -17 0 -33 5 -37 11 -3 6 -15 9
-25 6 -11 -3 -19 -1 -19 4 0 4 -19 13 -42 19 -24 6 -50 14 -58 17 -8 4 -19 8
-25 8 -5 1 -17 4 -25 7 -79 27 -91 29 -105 18 -11 -9 -16 -7 -25 9 -12 24 -45
29 -36 6 8 -21 -8 -19 -29 5 -10 11 -28 20 -41 20 -13 0 -26 5 -29 11 -4 6
-14 8 -22 4 -9 -3 -26 1 -39 10 -13 8 -39 16 -59 17 -22 2 -34 7 -31 15 3 7
-1 10 -9 7 -8 -3 -24 1 -37 10 -12 9 -32 16 -44 16 -42 0 -84 21 -90 46 -3 13
-10 24 -15 24 -5 0 -6 -7 -3 -15 9 -22 -9 -18 -24 5 -6 11 -18 17 -26 14 -8
-3 -17 -1 -21 5 -3 6 -13 11 -21 11 -17 0 -54 35 -54 51 0 9 -4 9 -13 0 -11
-8 -18 -6 -32 8 -14 17 -20 18 -37 8 -16 -10 -21 -9 -29 6 -8 14 -14 15 -31 6
-11 -6 -18 -7 -15 -2 10 17 -31 52 -68 59 -21 4 -35 12 -35 21 0 8 -7 13 -17
11 -10 -2 -26 5 -37 16 -14 14 -20 16 -27 5 -6 -10 -14 -7 -35 14 -15 15 -37
27 -50 27 -17 0 -24 6 -24 19 0 28 -38 53 -61 41 -26 -14 -36 -12 -15 3 16 12
17 16 5 35 -8 12 -23 22 -35 22 -15 0 -24 8 -28 25 -4 14 -13 25 -20 25 -8 0
-13 8 -12 18 1 13 -6 17 -26 15 -30 -2 -38 14 -13 23 12 5 13 9 4 20 -6 8 -17
14 -23 13 -26 -3 -46 2 -46 11 0 6 14 10 30 10 36 0 39 13 8 28 -13 6 -17 11
-9 11 11 1 11 4 1 16 -10 12 -10 18 0 30 11 13 10 18 -8 31 -26 18 -28 34 -4
34 16 1 16 1 0 14 -20 14 -14 28 8 19 9 -3 14 2 14 16 0 12 -6 21 -15 21 -11
0 -13 7 -9 29 4 16 1 32 -5 35 -18 11 -13 26 10 26 19 0 19 1 -3 23 -13 12
-19 19 -14 15 14 -11 44 -10 50 1 4 5 -2 7 -13 4 -27 -7 -38 17 -15 35 18 13
18 14 -4 7 -21 -6 -23 -4 -17 13 3 13 -2 37 -14 60 l-20 40 22 15 c21 15 21
16 2 17 -11 0 -29 7 -39 15 -19 15 -19 15 2 15 26 0 29 15 5 25 -17 6 -17 7
-1 19 15 11 15 13 -2 24 -11 6 -26 9 -35 6 -8 -3 -15 -2 -15 4 0 5 7 13 16 16
9 4 14 13 10 21 -3 9 1 18 9 21 8 4 15 11 15 17 0 18 204 212 270 257 62 42
80 64 80 100 0 18 -3 19 -22 9 -13 -7 -57 -38 -98 -70 -154 -118 -319 -208
-328 -179 -2 6 -14 10 -26 10 -12 0 -26 4 -32 9 -5 5 -18 12 -29 15 -12 3 -9
4 8 2 38 -5 44 11 7 19 -17 4 -35 15 -40 26 -6 10 -17 19 -25 19 -8 0 -15 9
-15 20 0 11 -7 20 -15 20 -8 0 -15 5 -15 10 0 6 10 10 23 10 15 0 18 3 9 9
-10 6 3 24 50 68 89 84 142 131 227 198 40 33 69 61 64 62 -12 4 -69 -22 -146
-66 -110 -63 -301 -151 -329 -151 -17 0 -27 -5 -26 -12 2 -8 -7 -12 -24 -10
-14 2 -29 -2 -33 -7 -4 -8 -12 -8 -27 0 -14 8 -23 8 -31 0 -6 -6 -23 -11 -38
-11 -25 0 -131 -53 -194 -97 -94 -66 -415 -264 -447 -276 -10 -3 -18 -3 -18 2
0 9 17 21 240 166 121 79 272 190 515 376 44 34 147 106 228 161 82 55 147
102 144 104 -12 12 -98 -22 -201 -80 -61 -35 -156 -87 -211 -116 -55 -29 -104
-56 -110 -60 -16 -12 -89 -34 -105 -32 -8 1 -68 -36 -132 -82 -128 -92 -172
-120 -151 -94 11 12 9 18 -8 34 -12 10 -53 62 -92 114 -39 52 -87 113 -108
135 -20 22 -86 99 -147 170 -125 148 -216 238 -353 351 -164 135 -201 163
-299 225 -213 135 -324 174 -425 150z m295 -350 c0 -20 -35 -51 -57 -51 -20 0
-16 21 9 47 26 28 48 30 48 4z m-273 -1318 c52 -76 37 -73 -22 4 -28 35 -56
71 -62 78 -7 8 -13 17 -13 21 0 14 60 -50 97 -103z m799 11 c41 -41 84 -126
84 -164 -1 -19 -9 -9 -37 43 -20 37 -54 87 -75 112 -49 56 -26 62 28 9z m-168
-50 c44 -18 85 -55 115 -104 31 -51 30 -167 -2 -230 -36 -69 -61 -98 -111
-130 -110 -71 -246 -33 -317 88 -37 62 -39 165 -6 228 27 52 69 101 97 116 13
7 5 -7 -21 -34 -54 -60 -73 -99 -80 -163 -5 -43 -1 -63 21 -111 47 -102 101
-144 186 -144 134 0 225 101 237 264 5 67 3 74 -27 118 -39 58 -79 88 -139
104 -36 10 -40 13 -18 13 15 1 44 -6 65 -15z m-131 0 c-3 -3 -12 -4 -19 -1 -8
3 -5 6 6 6 11 1 17 -2 13 -5z m102 -48 c6 -7 9 -21 5 -30 -7 -18 20 -23 31 -6
10 16 24 12 50 -15 31 -31 31 -39 -1 -54 -23 -10 -25 -10 -19 9 3 11 2 20 -4
20 -5 0 -13 -10 -16 -22 -11 -35 -46 -68 -72 -68 -13 0 -23 4 -23 9 0 5 -8 11
-18 13 -14 4 -21 19 -25 59 -4 30 -10 64 -13 77 -6 21 -3 22 44 22 30 0 54 -5
61 -14z m-153 -143 c15 -24 15 -25 -5 -18 -12 4 -21 2 -21 -4 0 -6 7 -11 15
-11 10 0 15 -11 15 -35 0 -26 4 -35 18 -36 14 0 14 -2 -3 -9 -30 -13 -35 -12
-36 8 0 9 -8 41 -18 70 -16 50 -18 52 -29 30 -6 -13 -11 -41 -11 -63 0 -22 0
-53 0 -70 0 -16 6 -42 14 -59 24 -46 9 -42 -19 6 -38 65 -48 99 -41 137 8 43
40 108 69 139 l21 24 7 -42 c4 -24 15 -54 24 -67z m1989 87 c3 -5 -1 -10 -10
-10 -9 0 -13 5 -10 10 3 6 8 10 10 10 2 0 7 -4 10 -10z m-2348 -96 c-3 -3 -12
-4 -19 -1 -8 3 -5 6 6 6 11 1 17 -2 13 -5z m327 -83 c-6 -6 -24 19 -24 34 1 6
7 1 15 -9 8 -11 12 -22 9 -25z m246 -49 c0 -12 -36 -43 -88 -76 -52 -33 -50
-44 3 -21 21 8 40 13 42 11 2 -2 -16 -12 -41 -21 -43 -16 -46 -16 -82 1 -23
12 -42 31 -50 52 l-13 32 47 1 c26 0 74 6 107 14 75 17 75 17 75 7z m-1390
-656 c0 -3 -4 -8 -10 -11 -5 -3 -10 -1 -10 4 0 6 5 11 10 11 6 0 10 -2 10 -4z
m7618 -994 c2 -7 -6 -12 -17 -12 -21 0 -27 11 -14 24 9 9 26 2 31 -12z m-3949
-86 c-14 -7 -48 -17 -75 -21 -27 -4 -56 -13 -64 -20 -10 -9 -26 -11 -49 -7
-52 11 -19 30 74 42 43 5 81 12 83 15 3 3 17 5 31 5 l26 0 -26 -14z m3951 -15
c0 -5 -7 -12 -16 -15 -14 -5 -15 -4 -4 9 14 17 20 19 20 6z m-50 -41 c0 -5 -7
-10 -16 -10 -8 0 -12 5 -9 10 3 6 10 10 16 10 5 0 9 -4 9 -10z m-860 -30 c0
-10 -55 -37 -87 -42 -36 -7 -21 21 19 35 52 19 68 20 68 7z m490 6 c0 -11 -19
-15 -25 -6 -3 5 1 10 9 10 9 0 16 -2 16 -4z m307 -13 c-9 -9 -19 -14 -23 -11
-10 10 6 28 24 28 15 0 15 -1 -1 -17z m-929 -25 c-5 -15 -106 -36 -172 -37
-66 -1 -47 21 21 24 26 2 55 6 63 9 49 17 93 19 88 4z m547 2 c3 -5 2 -10 -4
-10 -5 0 -13 5 -16 10 -3 6 -2 10 4 10 5 0 13 -4 16 -10z m325 0 c0 -5 -4 -10
-10 -10 -5 0 -10 5 -10 10 0 6 5 10 10 10 6 0 10 -4 10 -10z m-3970 -15 c-7
-9 -15 -13 -17 -11 -7 7 7 26 19 26 6 0 6 -6 -2 -15z m74 0 c-4 -8 -13 -15
-21 -15 -13 0 -13 3 -3 15 7 8 16 15 21 15 5 0 6 -7 3 -15z m4078 0 c0 -5 -5
-11 -11 -13 -6 -2 -11 4 -11 13 0 9 5 15 11 13 6 -2 11 -8 11 -13z m-8532 -15
c-8 -5 -17 -7 -19 -4 -3 3 1 9 9 14 8 5 17 7 19 4 3 -3 -1 -9 -9 -14z m4530
16 c0 -3 -4 -8 -10 -11 -5 -3 -10 -1 -10 4 0 6 5 11 10 11 6 0 10 -2 10 -4z
m3775 -6 c3 -5 -1 -10 -10 -10 -9 0 -13 5 -10 10 3 6 8 10 10 10 2 0 7 -4 10
-10z m-48 -26 c-3 -3 -12 -4 -19 -1 -8 3 -5 6 6 6 11 1 17 -2 13 -5z m213 -9
c0 -8 -4 -15 -10 -15 -5 0 -10 7 -10 15 0 8 5 15 10 15 6 0 10 -7 10 -15z
m-8141 -37 c-1 -39 -2 -41 -8 -13 -4 17 -5 36 -3 43 8 23 12 12 11 -30z m-88
-21 c-14 -14 -26 17 -16 41 6 15 8 14 16 -7 6 -16 6 -28 0 -34z m-95 6 c-11
-11 -19 6 -11 24 8 17 8 17 12 0 3 -10 2 -21 -1 -24z m8248 0 c-13 -10 -20
-10 -23 -2 -4 14 19 30 33 22 5 -3 1 -12 -10 -20z m-8337 -25 c-3 -7 -5 -2 -5
12 0 14 2 19 5 13 2 -7 2 -19 0 -25z m4323 2 c0 -5 -5 -10 -11 -10 -5 0 -7 5
-4 10 3 6 8 10 11 10 2 0 4 -4 4 -10z m3930 -15 c0 -8 -7 -15 -15 -15 -26 0
-18 20 13 29 1 1 2 -6 2 -14z m-8329 -28 c-8 -8 -11 -7 -11 4 0 20 13 34 18
19 3 -7 -1 -17 -7 -23z m499 -8 c0 -5 -4 -9 -10 -9 -5 0 -10 7 -10 16 0 8 5
12 10 9 6 -3 10 -10 10 -16z m-290 -8 c0 -22 -16 -36 -24 -22 -8 12 3 41 15
41 5 0 9 -9 9 -19z m200 15 c0 -3 -4 -8 -10 -11 -5 -3 -10 -1 -10 4 0 6 5 11
10 11 6 0 10 -2 10 -4z m-290 -13 c0 -5 -5 -15 -10 -23 -8 -12 -10 -11 -10 8
0 12 5 22 10 22 6 0 10 -3 10 -7z m180 -14 c0 -11 -4 -17 -10 -14 -5 3 -10 13
-10 21 0 8 5 14 10 14 6 0 10 -9 10 -21z m101 -82 c-8 -8 -11 -7 -11 4 0 20
13 34 18 19 3 -7 -1 -17 -7 -23z m-571 9 c0 -7 -7 -33 -15 -56 -61 -172 64
-254 282 -186 147 47 434 126 546 151 62 14 175 43 252 65 77 22 147 40 155
39 24 -1 -166 -64 -420 -139 -129 -38 -309 -93 -400 -120 -257 -79 -364 -78
-424 3 -11 15 -23 51 -26 80 l-6 52 -52 -102 c-45 -89 -52 -110 -52 -160 0
-120 87 -186 214 -162 29 5 189 74 366 158 173 82 371 172 440 201 69 29 145
61 169 71 24 11 46 18 48 16 7 -8 -35 -36 -82 -55 -114 -45 -293 -125 -364
-162 -137 -72 -483 -230 -539 -246 -63 -19 -134 -13 -198 15 -56 25 -89 91
-81 161 8 65 47 163 115 288 54 97 72 119 72 88z m491 -19 c-8 -8 -11 -7 -11
4 0 20 13 34 18 19 3 -7 -1 -17 -7 -23z m809 18 c-6 -8 -48 -26 -92 -40 -85
-27 -120 -28 -46 -1 24 9 66 24 93 35 28 10 52 19 54 20 2 1 -2 -6 -9 -14z
m-950 -2 c0 -5 -5 -15 -10 -23 -8 -12 -10 -11 -10 8 0 12 5 22 10 22 6 0 10
-3 10 -7z m80 0 c-1 -5 -7 -19 -15 -33 l-14 -25 -1 26 c0 14 3 29 7 32 9 9 23
9 23 0z m-160 -10 c0 -5 -8 -17 -17 -28 -14 -18 -15 -18 -9 -2 3 10 6 23 6 28
0 5 5 9 10 9 6 0 10 -3 10 -7z m8334 -111 c10 -16 -146 -142 -176 -142 -20 0
-5 21 33 47 23 15 60 45 83 65 43 39 51 43 60 30z"/>
<path d="M6318 5284 c-23 -12 -28 -21 -28 -53 0 -69 113 -171 191 -173 38 -1
42 4 43 55 1 35 -6 52 -34 89 -60 79 -123 108 -172 82z"/>
<path d="M6751 5034 c13 -16 29 -19 29 -5 0 5 -9 11 -21 14 -16 4 -18 3 -8 -9z"/>
<path d="M6776 4759 c-15 -12 -32 -33 -37 -46 -21 -55 51 -140 143 -168 64
-19 99 -19 143 0 47 19 58 50 35 95 -57 111 -212 175 -284 119z"/>
<path d="M7210 4763 c0 -12 120 -83 138 -83 26 0 6 23 -44 51 -57 32 -94 44
-94 32z"/>
<path d="M7350 4631 c0 -27 115 -85 232 -116 130 -35 163 -32 86 7 -185 93
-318 139 -318 109z"/>
<path d="M7870 4470 c0 -5 10 -10 23 -10 18 0 19 2 7 10 -19 13 -30 13 -30 0z"/>
<path d="M8105 4441 c47 -20 178 -51 217 -50 57 1 30 11 -87 34 -117 24 -157
29 -130 16z"/>
<path d="M7965 4342 c-39 -9 -38 -31 4 -59 49 -33 105 -47 192 -47 62 -1 81 3
98 18 27 25 27 40 -3 54 -52 23 -239 45 -291 34z"/>
<path d="M7508 4283 c-30 -5 -68 -45 -68 -72 1 -45 65 -85 160 -100 102 -17
160 5 160 59 0 33 -20 52 -90 83 -57 26 -116 36 -162 30z"/>
<path d="M9370 3381 c0 -6 5 -13 10 -16 6 -3 10 1 10 9 0 9 -4 16 -10 16 -5 0
-10 -4 -10 -9z"/>
<path d="M9125 3260 c-16 -4 -48 -8 -70 -9 -22 -1 -47 -6 -55 -11 -10 -7 1 -8
35 -4 69 9 176 32 145 32 -14 0 -38 -4 -55 -8z"/>
</g>
</svg>
