<?xml version="1.0" standalone="no"?>
<!DOCTYPE svg PUBLIC "-//W3C//DTD SVG 20010904//EN"
 "http://www.w3.org/TR/2001/REC-SVG-20010904/DTD/svg10.dtd">
<svg version="1.0" xmlns="http://www.w3.org/2000/svg"
 width="1080.000000pt" height="810.000000pt" viewBox="0 0 1080.000000 810.000000"
 preserveAspectRatio="xMidYMid meet">

<g transform="translate(0.000000,810.000000) scale(0.100000,-0.100000)"
fill="#000000" stroke="none">
<path d="M3265 7146 c-93 -30 -277 -128 -318 -169 -60 -60 -257 -359 -320
-484 -49 -100 -52 -111 -55 -194 -4 -97 18 -196 79 -348 96 -242 343 -603 642
-940 59 -67 107 -127 107 -134 0 -25 -400 -114 -642 -143 -160 -20 -721 -26
-883 -10 -79 8 -93 7 -108 -8 -25 -25 -39 -89 -46 -201 l-6 -100 -56 -27
c-175 -83 -428 -489 -485 -781 -14 -74 -15 -94 -4 -144 7 -32 14 -70 17 -84 4
-19 -9 -44 -53 -105 -260 -360 -240 -877 50 -1261 124 -165 290 -275 498 -329
165 -43 317 -49 973 -35 1307 26 1768 48 2170 101 118 16 249 23 620 30 258 6
486 15 507 21 20 5 42 17 47 27 11 20 80 20 326 1 158 -12 182 -19 130 -38
-38 -13 -46 -36 -17 -45 10 -3 51 -10 92 -16 41 -5 122 -16 179 -25 278 -42
1000 -33 1541 20 166 17 220 29 220 50 0 18 -23 25 -81 25 -27 0 -49 5 -49 10
0 6 17 10 38 10 20 0 82 12 137 26 146 37 350 83 425 95 35 5 84 19 109 30 24
10 59 19 78 19 18 0 59 9 91 19 31 10 84 26 117 36 33 9 69 25 80 35 11 9 42
20 69 24 55 7 144 44 191 80 16 13 46 28 65 35 47 15 188 95 220 125 14 13 53
42 86 64 78 52 163 145 199 219 86 176 117 360 80 478 -20 61 -77 157 -129
215 -23 26 -36 56 -50 113 -11 48 -30 95 -50 124 -71 103 -152 114 -683 88
-356 -17 -556 -16 -575 3 -4 4 -14 57 -23 117 -16 120 -69 344 -91 387 -18 34
-33 42 -114 58 -36 6 -144 40 -240 75 -96 35 -209 73 -250 85 -122 36 -345
127 -490 201 -185 93 -502 285 -635 384 -224 166 -766 633 -895 769 -290 307
-529 516 -591 516 -14 0 -36 -8 -49 -17 -14 -9 -129 -119 -256 -243 -126 -125
-240 -233 -253 -239 -20 -11 -29 -4 -125 96 -57 59 -174 187 -262 284 -200
222 -582 627 -694 735 -263 255 -444 342 -605 290z m192 -92 c26 -9 84 -40
128 -69 176 -117 379 -316 779 -765 154 -173 329 -368 389 -432 94 -102 118
-138 88 -138 -11 0 -207 214 -371 405 -312 363 -493 556 -671 716 -154 139
-281 219 -299 189 -5 -8 -5 -21 1 -31 12 -24 11 -29 -6 -29 -13 0 -21 -23 -12
-33 1 -2 -5 -14 -13 -27 -9 -14 -17 -41 -19 -60 -1 -19 -7 -39 -12 -44 -5 -6
-9 -19 -9 -30 -1 -12 -6 -31 -13 -43 -12 -21 -12 -21 -52 14 -138 119 -157
133 -186 133 -16 0 -29 5 -29 10 0 27 65 149 98 184 64 66 120 80 209 50z
m-367 -104 c0 -6 -19 -70 -41 -143 -37 -116 -42 -147 -47 -255 -4 -102 -1
-138 18 -217 39 -170 63 -205 281 -410 106 -99 339 -326 519 -505 374 -372
380 -380 388 -525 4 -66 1 -90 -15 -126 -27 -60 -66 -104 -122 -137 -40 -24
-56 -27 -131 -27 -75 0 -93 4 -151 32 -74 36 -166 114 -198 168 -11 19 -17 35
-13 35 4 0 6 26 5 57 l-3 58 13 -40 c20 -59 86 -173 122 -211 18 -18 49 -40
71 -49 55 -23 182 -31 241 -14 63 17 139 91 149 144 16 86 -18 255 -51 255 -7
0 -27 22 -44 49 -16 28 -77 103 -134 168 -113 129 -574 580 -613 601 -29 15
-30 13 -37 -70 -3 -32 -12 -70 -20 -85 -8 -15 -24 -48 -35 -73 -86 -188 -92
-215 -63 -270 11 -22 52 -82 90 -134 143 -194 -7 -36 -184 194 -204 263 -330
479 -386 660 -19 60 -24 98 -24 190 0 109 2 118 33 184 62 131 263 420 330
475 40 32 52 37 52 21z m106 -249 c77 -57 242 -239 470 -518 75 -92 104 -136
117 -177 11 -33 43 -89 79 -138 56 -75 332 -425 428 -542 22 -26 40 -56 40
-66 0 -20 -89 -70 -125 -70 -13 0 -87 68 -215 196 -280 281 -691 676 -739 710
-47 33 -66 76 -112 249 -31 117 -35 189 -19 295 17 105 17 105 76 61z m2382
-587 c52 -33 241 -208 316 -293 107 -120 315 -316 531 -502 375 -321 551 -459
730 -568 374 -230 540 -313 855 -427 118 -42 219 -81 224 -85 5 -4 -3 -28 -17
-52 -34 -58 -71 -187 -91 -317 -24 -157 -46 -420 -46 -542 0 -95 2 -110 20
-128 24 -24 63 -26 84 -4 13 13 16 45 16 192 0 216 15 438 36 552 14 78 62
271 69 278 2 3 276 -82 301 -92 1 -1 -7 -35 -17 -76 -30 -114 -33 -220 -15
-515 20 -329 30 -412 62 -493 40 -100 49 -95 -181 -113 -330 -27 -452 -30
-617 -19 -160 10 -341 32 -413 49 -22 5 -85 19 -140 31 -389 85 -684 209
-1315 555 -452 248 -603 313 -1106 480 -89 29 -176 56 -195 60 -19 4 -77 19
-129 34 -52 16 -129 33 -170 39 -119 18 -162 28 -205 48 -22 10 -53 19 -70 21
-48 4 -103 33 -101 52 4 25 261 29 312 5 26 -12 51 -15 100 -11 65 5 119 -7
209 -48 74 -33 110 -45 139 -45 18 0 37 -5 42 -10 6 -6 41 -19 78 -30 37 -10
73 -23 79 -28 7 -6 28 -13 47 -16 19 -4 44 -11 55 -16 11 -5 37 -11 57 -15 21
-3 37 -9 37 -13 -4 -26 3 -34 25 -28 14 3 28 2 31 -4 3 -5 14 -10 23 -10 9 0
29 -6 44 -14 15 -8 42 -17 60 -21 18 -4 45 -16 60 -27 16 -11 32 -17 37 -14 5
3 14 -1 21 -8 17 -21 119 -72 160 -81 19 -4 44 -15 55 -24 11 -10 36 -24 55
-31 19 -7 42 -19 51 -27 8 -7 20 -13 26 -13 18 0 69 -29 88 -50 10 -11 23 -20
29 -20 19 0 206 -101 206 -111 0 -5 6 -9 13 -9 8 0 22 -9 31 -19 10 -11 29
-22 44 -26 45 -11 122 -50 122 -61 0 -7 24 -22 54 -34 30 -12 69 -32 86 -45
17 -13 51 -29 76 -36 24 -7 44 -16 44 -19 0 -3 29 -17 64 -30 36 -13 63 -27
60 -32 -3 -4 7 -8 23 -8 15 0 42 -9 60 -19 17 -11 51 -25 75 -31 24 -7 45 -15
48 -19 7 -9 145 -62 156 -60 5 1 22 -3 37 -9 16 -7 36 -12 45 -12 9 0 30 -7
46 -15 34 -18 84 -32 171 -48 33 -6 66 -17 73 -24 7 -7 34 -14 60 -15 26 0 52
-2 57 -3 180 -33 365 -42 655 -33 277 8 364 19 374 44 5 14 -11 169 -30 287
-10 63 -44 77 -184 77 -143 -1 -150 -5 -150 -88 0 -72 -14 -109 -50 -127 -68
-35 -125 19 -145 138 -7 45 -46 73 -115 83 -25 4 -50 10 -56 15 -6 5 -44 15
-85 24 -41 8 -83 19 -94 24 -11 5 -46 14 -77 20 -32 5 -76 19 -99 30 -23 12
-58 24 -78 27 -20 4 -47 13 -61 20 -14 7 -61 25 -105 39 -44 14 -87 29 -95 34
-8 4 -58 25 -110 45 -52 21 -104 41 -115 46 -48 20 -132 50 -157 56 -16 3 -28
10 -28 14 0 4 -12 11 -27 15 -15 3 -77 30 -138 60 -194 93 -243 115 -258 115
-8 0 -26 9 -40 20 -14 11 -28 20 -31 20 -4 0 -38 16 -77 35 -39 19 -78 35 -85
35 -8 0 -17 7 -20 15 -4 8 -15 15 -27 15 -11 0 -28 6 -36 13 -22 19 -306 168
-401 211 -19 9 -42 20 -50 26 -8 5 -58 30 -110 54 -53 24 -102 51 -109 60 -7
9 -26 16 -42 16 -18 0 -32 7 -39 20 -6 12 -21 20 -35 20 -14 0 -25 5 -25 11 0
5 -16 25 -36 43 l-37 34 14 53 c7 30 12 59 11 66 -1 6 24 35 57 64 33 29 62
60 64 69 3 10 19 19 42 23 20 3 51 17 68 30 18 13 41 27 52 32 18 7 18 9 3 12
-21 5 -22 12 -3 37 12 16 12 20 0 33 -8 8 -22 13 -31 11 -10 -2 -18 5 -20 16
-4 26 -22 36 -65 36 -23 0 -39 6 -43 15 -3 8 -12 15 -21 15 -9 0 -15 9 -15 24
0 17 24 46 81 100 44 42 75 76 69 76 -6 0 -49 -24 -96 -52 -46 -29 -92 -57
-102 -63 -9 -5 -33 -22 -53 -37 -53 -41 -63 -34 -27 17 18 25 35 45 40 45 10
0 -20 73 -58 140 -7 14 -14 34 -14 46 0 11 -3 24 -7 28 -11 11 -34 79 -37 109
-5 55 -38 54 -124 -4 -38 -26 -33 -19 28 36 86 78 170 163 393 399 87 91 163
166 168 166 6 0 36 -16 67 -36z m-187 -22 c-10 -19 -81 -78 -81 -68 0 3 16 24
36 46 38 42 62 53 45 22z m-1696 -952 c-10 -11 -23 -20 -28 -20 -6 0 0 11 13
25 27 29 42 25 15 -5z m13 -47 c-41 -44 -58 -88 -58 -147 0 -68 27 -105 86
-116 l39 -8 -43 -1 c-57 -1 -76 10 -96 59 -19 48 -20 70 -4 123 11 38 74 117
93 117 5 0 -3 -12 -17 -27z m377 -72 c-3 -6 -11 -11 -17 -11 -6 0 -6 6 2 15
14 17 26 13 15 -4z m-273 -65 l43 1 -34 -10 c-40 -12 -84 6 -90 38 -3 17 0 16
17 -5 16 -20 29 -25 64 -24z m1073 24 c-3 -5 -12 -10 -18 -10 -7 0 -6 4 3 10
19 12 23 12 15 0z m-41 -31 c-3 -6 -29 -26 -58 -45 -28 -18 -73 -49 -101 -69
-50 -34 -83 -48 -55 -21 17 15 211 146 217 146 2 0 1 -5 -3 -11z m-263 -179
c-13 -11 -28 -20 -35 -20 -6 0 3 9 19 20 38 25 47 25 16 0z m-114 -70 c-14
-11 -27 -20 -30 -20 -3 0 -33 -16 -68 -35 -34 -20 -67 -34 -73 -31 -6 2 -3 5
6 5 9 1 18 5 20 10 3 10 147 90 162 91 5 0 -3 -9 -17 -20z m-2428 -90 c132
-10 136 -12 153 -67 5 -18 -1 -29 -31 -52 -45 -36 -133 -57 -268 -65 l-93 -6
0 86 c0 113 7 126 68 119 26 -3 103 -10 171 -15z m181 -280 c63 -6 128 -13
144 -16 l30 -6 -39 -19 c-21 -11 -42 -19 -47 -19 -4 0 -28 -9 -53 -20 -25 -11
-65 -29 -90 -40 -25 -11 -45 -27 -45 -35 0 -8 -4 -15 -8 -15 -12 0 -72 -88
-72 -105 0 -8 -4 -15 -9 -15 -8 0 -51 -119 -51 -144 0 -8 6 -16 14 -19 8 -3
17 -25 21 -48 6 -33 4 -44 -9 -51 -9 -5 -16 -16 -16 -23 0 -8 -4 -15 -10 -15
-5 0 -10 -5 -10 -11 0 -7 -20 -32 -45 -56 -25 -24 -45 -47 -45 -52 0 -5 -6
-16 -14 -23 -7 -8 -15 -42 -18 -76 l-4 -62 75 0 c389 2 761 -10 926 -29 349
-42 459 -67 622 -141 105 -48 117 -54 131 -67 7 -7 21 -13 31 -13 9 0 22 -5
29 -12 7 -7 12 -9 12 -5 0 4 9 -2 20 -13 11 -11 29 -20 41 -20 13 0 18 -4 13
-12 -5 -8 -2 -9 10 -5 21 8 111 -81 128 -126 l10 -27 24 22 c13 13 24 31 24
41 0 11 8 17 25 17 14 0 25 5 25 10 0 6 7 10 15 10 10 0 15 10 15 30 0 29 0
30 48 24 35 -4 43 -3 32 5 -13 9 -12 11 3 11 10 0 15 5 12 10 -10 15 38 29 75
21 29 -6 31 -8 16 -20 -14 -12 -21 -12 -41 -1 -30 16 -38 10 -37 -27 0 -15 -5
-31 -12 -35 -8 -6 -7 -8 2 -8 6 0 12 -9 12 -19 0 -11 7 -47 16 -82 13 -51 14
-63 2 -70 -10 -7 -9 -9 5 -9 16 0 18 -6 12 -55 -4 -30 -3 -55 1 -55 11 0 10
-372 0 -389 -11 -17 -82 -13 -100 5 -9 8 -16 11 -16 5 0 -6 -11 -11 -25 -11
-15 0 -25 6 -25 15 0 9 -6 12 -16 8 -8 -3 -13 -11 -10 -18 3 -8 -4 -10 -19 -7
-18 3 -31 -7 -64 -48 -23 -28 -41 -55 -41 -60 0 -11 -52 -91 -57 -87 -1 2 13
42 33 90 66 163 80 301 45 440 -20 77 -52 150 -71 162 -6 4 -17 2 -25 -5 -10
-8 -15 -8 -21 1 -4 7 1 18 11 25 17 12 17 15 1 39 -20 31 -29 31 -49 3 -12
-18 -18 -20 -27 -11 -16 15 -4 33 21 33 28 0 24 11 -24 58 -47 46 -63 51 -83
25 -7 -10 -16 -15 -20 -10 -4 4 -2 13 4 19 14 14 16 44 3 52 -16 10 -36 -3
-76 -51 l-39 -46 27 -22 c15 -11 24 -24 21 -28 -12 -12 -22 -8 -29 12 -3 11
-15 23 -26 26 -26 8 -24 23 6 47 14 11 25 26 25 34 0 8 4 14 8 14 5 0 14 11
20 25 10 21 9 26 -7 34 -15 9 -26 1 -65 -41 -25 -28 -49 -48 -53 -44 -3 3 4
17 16 30 13 14 20 29 16 35 -4 7 3 11 19 11 13 0 26 6 29 13 4 13 -21 36 -41
37 -21 0 -82 -51 -82 -69 0 -11 -9 -5 -26 17 -14 17 -31 32 -38 32 -6 0 -36
-25 -65 -56 -29 -30 -55 -53 -58 -50 -3 3 8 17 26 31 17 15 30 29 28 33 -1 4
17 26 41 48 40 40 53 64 33 64 -5 0 -16 3 -25 6 -12 4 -16 0 -16 -16 0 -18 -3
-20 -14 -11 -17 14 -56 -5 -56 -26 0 -7 -7 -13 -15 -13 -22 0 -18 15 6 32 16
10 20 20 15 36 -9 28 -51 30 -66 2 -13 -23 -40 -27 -40 -5 0 8 7 15 15 15 8 0
15 7 15 15 0 18 -37 20 -42 3 -3 -8 -13 -6 -34 6 -28 17 -33 17 -68 2 -49 -20
-58 -20 -54 2 4 22 -34 28 -52 7 -19 -23 -43 -19 -35 5 8 25 -19 38 -40 20
-13 -11 -22 -10 -48 5 -27 14 -38 15 -55 6 -17 -9 -26 -9 -42 1 -16 10 -24 10
-41 0 -15 -10 -24 -11 -32 -3 -17 17 -45 13 -56 -6 -10 -17 -12 -17 -25 0 -18
23 -35 22 -65 -5 -22 -20 -23 -20 -8 -2 9 11 17 24 17 27 0 9 -35 9 -43 0 -9
-9 -68 -10 -73 -1 -3 4 -19 2 -36 -4 -23 -8 -36 -8 -49 0 -24 15 -45 6 -53
-21 l-6 -22 -19 24 c-15 20 -21 22 -39 12 -14 -7 -23 -8 -27 -1 -3 5 -15 10
-27 10 -17 0 -12 -8 25 -45 27 -26 40 -45 31 -45 -8 0 -25 12 -38 26 -21 25
-23 25 -39 10 -9 -9 -21 -24 -25 -33 -5 -9 -14 -13 -21 -9 -18 11 -13 26 8 26
28 0 39 40 15 57 -10 7 -21 13 -26 13 -4 0 -25 -27 -48 -59 -42 -63 -60 -80
-60 -59 0 7 12 22 27 34 27 21 27 22 9 48 -23 35 -40 29 -44 -17 -4 -45 -18
-48 -27 -7 -4 17 -12 30 -19 30 -18 0 -36 -21 -36 -42 0 -10 -4 -18 -9 -18 -5
0 -16 -3 -25 -6 -19 -7 -22 26 -4 44 8 8 8 12 1 12 -17 0 -103 -70 -103 -84 0
-6 -6 -21 -14 -31 -12 -17 -14 -17 -37 -2 -13 10 -27 17 -30 17 -16 0 -50 -89
-43 -115 7 -29 30 -31 48 -3 8 13 6 21 -6 35 -12 13 -14 23 -7 36 15 25 26 21
33 -14 7 -37 37 -37 46 0 3 14 11 26 18 29 17 5 15 -23 -3 -38 -8 -7 -15 -25
-15 -41 0 -29 -14 -40 -23 -16 -7 18 -40 -17 -42 -45 -1 -15 -10 -24 -26 -28
-19 -5 -24 -12 -24 -35 0 -24 5 -31 23 -33 18 -3 22 -8 16 -25 -13 -41 -44
-50 -44 -13 0 24 -23 56 -40 56 -19 0 -20 -35 0 -60 11 -14 25 -35 32 -47 6
-13 15 -23 19 -23 4 0 5 -16 2 -35 -4 -27 0 -40 21 -66 20 -23 24 -35 16 -43
-8 -8 -18 -2 -35 19 l-25 30 -25 -28 c-20 -23 -23 -32 -15 -48 14 -24 27 -24
40 1 13 24 30 26 30 5 0 -15 -36 -73 -53 -86 -11 -8 45 -78 63 -79 36 0 57 61
25 74 -8 3 -15 12 -15 21 0 22 14 18 25 -7 13 -30 45 -36 52 -10 3 11 14 23
25 25 17 5 20 11 15 36 -6 29 -5 30 18 19 24 -11 35 -38 16 -38 -17 0 -141
-132 -141 -150 0 -10 7 -23 15 -30 22 -18 58 15 52 48 -3 17 -1 22 10 18 8 -3
19 -6 24 -6 17 0 9 -29 -9 -34 -10 -4 -31 -26 -46 -51 -16 -25 -35 -50 -42
-56 -8 -6 -14 -18 -14 -27 0 -12 7 -9 28 11 l28 27 23 -23 c13 -12 25 -17 27
-12 11 27 26 40 31 28 5 -15 43 -18 43 -4 0 14 -34 71 -42 71 -4 0 -15 -11
-26 -25 -11 -14 -25 -25 -31 -25 -16 0 -14 6 13 33 12 13 26 30 29 38 5 11 10
9 25 -8 11 -13 28 -23 36 -23 27 0 30 29 7 54 -29 31 -26 45 4 16 20 -19 27
-21 40 -10 24 20 17 -2 -15 -44 -35 -46 -38 -66 -10 -66 13 0 24 10 30 25 11
29 22 31 40 10 17 -20 23 -19 54 11 20 21 29 24 40 15 10 -9 20 -8 42 3 43 22
67 29 88 27 15 -2 17 2 12 24 -7 26 -6 26 19 9 21 -14 28 -14 42 -3 9 8 24 13
34 11 14 -2 17 1 13 12 -7 17 31 55 55 56 7 0 2 -9 -13 -21 -27 -21 -35 -49
-13 -50 32 -1 -584 -215 -648 -225 -52 -7 -101 15 -115 52 -21 53 -5 155 27
181 8 6 12 17 8 23 -18 29 -112 -98 -145 -195 -37 -107 -18 -181 55 -222 78
-44 196 -18 364 80 71 42 68 42 87 23 21 -22 17 -33 -16 -45 -18 -6 -28 -6
-25 -1 11 18 -5 32 -21 19 -11 -9 -12 -15 -3 -26 17 -20 5 -27 -22 -13 -19 11
-29 9 -58 -6 -20 -10 -42 -25 -50 -32 -7 -7 -26 -16 -42 -19 -34 -6 -37 -23
-9 -48 25 -23 26 -38 1 -30 -25 8 -42 -21 -30 -52 5 -13 12 -23 15 -23 13 0
44 33 44 47 0 15 16 18 25 3 3 -5 -3 -18 -15 -30 -11 -11 -20 -28 -20 -39 0
-22 25 -45 40 -36 6 4 6 -3 -1 -19 l-12 -26 -12 23 c-6 13 -31 42 -54 66 -45
46 -61 44 -61 -7 0 -19 4 -22 20 -17 13 4 20 2 20 -7 0 -32 25 -68 48 -68 23
0 30 -14 11 -26 -6 -3 -23 5 -37 18 -50 45 -101 78 -106 69 -6 -10 15 -29 67
-60 57 -34 44 -44 -20 -15 -127 56 -195 108 -282 218 -54 68 -137 226 -171
326 -102 300 -42 656 144 858 51 56 65 63 221 106 71 20 133 40 138 45 5 5 4
18 -2 30 -9 15 -21 21 -44 20 -52 -2 -92 -14 -90 -27 2 -6 -9 -14 -25 -18 -15
-3 -33 -7 -40 -10 -8 -2 -10 1 -6 7 5 8 -9 10 -50 7 -40 -3 -60 -1 -67 9 -8 9
-10 50 -7 121 4 93 10 119 42 202 102 259 275 511 383 557 92 39 318 52 543
33z m6419 -592 c-1 -107 -17 -95 -18 13 -1 57 3 79 16 79 2 0 3 -42 2 -92z
m456 -189 c313 -1 245 -19 -95 -26 -266 -5 -340 1 -348 26 -4 12 15 13 109 8
63 -4 213 -7 334 -8z m925 -14 c9 -9 22 -33 29 -54 6 -21 18 -44 26 -51 16
-13 19 -38 9 -64 -5 -12 -20 -16 -58 -16 -105 0 -353 -80 -566 -183 -113 -54
-172 -75 -304 -108 -113 -27 -122 -28 -133 -12 -7 9 -13 21 -13 26 0 20 -31
37 -67 36 -21 0 -81 -8 -133 -19 -52 -10 -98 -16 -102 -13 -5 2 -8 12 -8 22 0
15 13 21 63 30 56 11 193 47 337 89 30 8 47 17 38 19 -9 2 -47 -5 -85 -16 -37
-11 -117 -27 -178 -36 -60 -9 -122 -20 -137 -25 -40 -13 -50 14 -56 139 l-5
104 134 -7 c74 -4 235 -9 358 -11 247 -6 266 -2 403 66 31 16 87 40 124 54 37
14 72 29 78 34 21 17 51 20 140 15 61 -3 95 -9 106 -19z m-7284 -190 c11 -27
-1 -39 -19 -21 -17 17 -15 36 4 36 5 0 12 -7 15 -15z m-516 -21 c0 -8 -4 -12
-10 -9 -5 3 -10 10 -10 16 0 5 5 9 10 9 6 0 10 -7 10 -16z m420 8 c0 -13 -12
-22 -22 -16 -10 6 -1 24 13 24 5 0 9 -4 9 -8z m-100 -12 c0 -5 -5 -10 -11 -10
-5 0 -7 5 -4 10 3 6 8 10 11 10 2 0 4 -4 4 -10z m-75 -27 l18 -28 -21 19 c-12
11 -22 23 -22 28 0 14 7 9 25 -19z m555 3 c0 -16 -18 -31 -27 -22 -8 8 5 36
17 36 5 0 10 -6 10 -14z m1265 -6 c92 -8 153 -16 335 -40 108 -14 377 -80 412
-100 10 -5 24 -10 31 -10 7 0 30 -9 51 -20 22 -10 42 -17 47 -15 4 3 10 1 13
-4 3 -5 21 -12 40 -15 18 -4 41 -15 51 -26 10 -11 25 -20 34 -20 9 0 36 -11
60 -25 23 -14 49 -25 57 -25 8 0 14 -5 14 -10 0 -12 128 -74 146 -72 5 1 31
-18 56 -43 26 -25 55 -45 66 -45 10 0 19 -6 19 -14 0 -10 -5 -11 -16 -6 -137
75 -435 203 -546 236 -97 29 -107 29 -75 4 14 -10 23 -21 20 -23 -3 -3 -54 6
-115 20 -60 13 -146 31 -190 39 -44 8 -93 19 -110 24 -16 5 -59 14 -95 20 -36
7 -72 18 -80 25 -9 8 -38 19 -65 25 -27 6 -54 15 -60 19 -19 16 -80 24 -152
22 -58 -2 -73 1 -73 12 0 18 -55 28 -87 16 -15 -5 -25 -3 -33 7 -7 7 -21 14
-31 14 -11 0 -19 7 -19 15 0 8 -6 15 -12 16 -7 0 -4 4 7 8 21 9 139 5 300 -9z
m-1485 -4 c0 -13 -29 -31 -37 -22 -4 4 25 36 33 36 2 0 4 -6 4 -14z m110 -8
c0 -13 -23 -5 -28 10 -2 7 2 10 12 6 9 -3 16 -11 16 -16z m-650 2 c0 -5 -4
-10 -10 -10 -5 0 -10 5 -10 10 0 6 5 10 10 10 6 0 10 -4 10 -10z m7887 -18
c15 -16 48 -67 73 -113 44 -81 45 -87 44 -169 0 -67 -7 -106 -33 -185 -58
-177 -98 -229 -259 -343 -111 -79 -175 -113 -392 -205 -229 -98 -548 -171
-1005 -232 -238 -31 -849 -69 -740 -46 22 5 43 7 47 4 4 -2 18 2 30 9 25 13
30 15 54 17 8 0 12 5 9 11 -4 6 6 7 25 4 18 -4 30 -2 30 4 0 6 10 13 23 15 13
3 8 5 -15 6 -31 1 -38 5 -38 21 0 15 7 20 25 20 18 0 25 5 25 20 0 15 7 20 24
20 37 0 41 18 5 22 l-31 3 0 70 c0 68 1 70 25 73 15 2 29 11 32 23 4 10 15 19
25 19 20 0 34 16 36 40 1 8 2 23 3 33 1 21 37 23 45 1 11 -28 30 -9 30 32 1
47 29 56 34 12 5 -43 22 -33 22 12 0 27 5 43 15 46 11 5 15 21 15 60 0 41 4
54 15 54 8 0 15 -8 15 -17 0 -15 2 -16 10 -3 5 8 10 33 10 55 0 31 6 44 25 59
14 11 24 25 21 31 -3 8 33 21 107 39 61 15 118 31 128 36 9 5 72 18 141 29 68
10 189 36 268 57 130 34 169 50 375 154 220 111 362 167 525 209 108 29 142
27 177 -7z m-8423 12 c9 -3 16 -15 16 -26 0 -28 -34 -19 -38 10 -4 24 -2 25
22 16z m966 -3 c0 -6 -4 -13 -10 -16 -5 -3 -10 1 -10 9 0 9 5 16 10 16 6 0 10
-4 10 -9z m-849 -18 c-5 -10 -19 -26 -30 -35 -12 -10 -21 -27 -21 -38 0 -12
-4 -18 -10 -15 -16 10 -12 34 10 57 11 12 20 28 20 35 0 7 9 13 20 13 17 0 19
-3 11 -17z m745 -10 c-10 -10 -19 5 -10 18 6 11 8 11 12 0 2 -7 1 -15 -2 -18z
m7095 -14 c-46 -22 -86 -37 -88 -35 -7 6 138 76 156 75 9 0 -22 -18 -68 -40z
m-7587 -22 c5 -34 3 -63 -5 -80 -11 -25 -37 -43 -47 -32 -3 3 0 5 7 5 6 0 16
12 21 26 12 31 -2 54 -32 54 -28 0 -20 44 9 48 14 2 20 8 16 18 -3 8 1 14 10
14 10 0 17 -16 21 -53z m874 32 c1 -8 -9 -19 -23 -26 -29 -13 -28 -13 -15 22
10 27 33 30 38 4z m112 0 c0 -5 -9 -9 -20 -9 -22 0 -27 16 -7 23 15 5 27 -1
27 -14z m-1089 -10 c-2 -8 -6 -26 -10 -41 -6 -29 -80 -77 -82 -54 -3 25 4 42
33 79 29 37 67 47 59 16z m223 6 c-4 -8 -10 -12 -15 -9 -11 6 -2 24 11 24 5 0
7 -7 4 -15z m641 5 c3 -6 -1 -13 -10 -16 -19 -8 -30 0 -20 15 8 14 22 14 30 1z
m-967 -28 c6 -18 -15 -14 -22 4 -4 10 -1 14 6 12 6 -2 14 -10 16 -16z m-146
-28 c-12 -8 -22 -23 -22 -34 0 -13 -5 -17 -20 -13 -27 7 -25 15 10 35 17 9 30
25 30 35 0 13 3 14 12 5 10 -10 7 -16 -10 -28z m778 5 c-14 -26 -18 -24 -12 6
2 14 8 22 13 19 5 -3 5 -14 -1 -25z m506 5 c-3 -9 -6 -18 -6 -20 0 -2 -7 -4
-15 -4 -18 0 -19 12 -3 28 17 17 31 15 24 -4z m114 -13 c-14 -26 -40 -27 -40
-2 0 13 8 21 23 23 29 5 31 3 17 -21z m934 -23 c7 -5 5 -8 -6 -8 -14 0 -18 8
-17 33 2 27 2 28 6 7 3 -14 10 -28 17 -32z m-1902 -13 c-13 -46 -35 -45 -26 1
9 50 15 60 25 42 4 -8 5 -28 1 -43z m198 51 c0 -2 -7 -9 -15 -16 -12 -10 -15
-10 -15 4 0 9 7 16 15 16 8 0 15 -2 15 -4z m542 -18 c-11 -11 -32 -3 -32 12 0
4 9 6 21 3 13 -4 17 -9 11 -15z m-1060 -46 c-2 -18 2 -35 12 -45 9 -8 16 -19
16 -24 0 -15 81 -103 95 -103 9 0 12 -6 9 -15 -4 -8 0 -23 7 -33 12 -15 12
-16 -2 -4 -9 7 -25 9 -35 5 -17 -6 -17 -5 -5 11 13 15 10 21 -22 54 -21 21
-37 43 -37 50 0 23 -17 12 -35 -23 -21 -37 -15 -56 10 -35 16 14 18 10 9 -14
-9 -24 -44 -20 -44 4 0 11 -5 20 -11 20 -6 0 1 16 15 35 31 41 28 63 -12 100
-26 24 -26 25 -5 25 12 0 25 5 28 10 10 16 12 12 7 -18z m573 18 c3 -5 2 -10
-4 -10 -5 0 -13 5 -16 10 -3 6 -2 10 4 10 5 0 13 -4 16 -10z m545 -20 c0 -12
-50 -59 -63 -60 -4 0 5 16 20 35 28 35 43 44 43 25z m108 -7 c-5 -25 -28 -28
-28 -4 0 12 6 21 16 21 9 0 14 -7 12 -17z m236 -4 c-3 -5 -15 -14 -27 -20 -17
-9 -20 -9 -10 1 6 7 9 18 6 25 -3 10 2 12 16 8 11 -3 18 -9 15 -14z m-1541
-37 c23 -20 22 -32 -3 -32 -13 0 -20 7 -20 18 0 10 -6 24 -12 31 -11 11 -10
12 2 6 8 -4 23 -15 33 -23z m757 16 c0 -19 -18 -43 -25 -36 -9 9 4 48 16 48 5
0 9 -6 9 -12z m614 -23 c-17 -26 -29 -31 -39 -15 -4 7 35 37 53 40 1 0 -5 -11
-14 -25z m-1454 0 c0 -16 -27 -32 -37 -22 -3 4 -3 13 0 22 8 20 37 20 37 0z
m1335 5 c7 -11 -11 -40 -24 -40 -3 0 -7 11 -7 25 -2 25 19 35 31 15z m365 2
c0 -10 -37 -42 -49 -42 -5 0 -12 7 -15 16 -4 11 -2 15 8 11 8 -3 17 1 20 9 6
14 36 20 36 6z m770 -17 c0 -14 -4 -25 -10 -25 -5 0 -10 11 -10 25 0 14 5 25
10 25 6 0 10 -11 10 -25z m-1750 -26 c0 -11 -4 -17 -10 -14 -5 3 -10 13 -10
21 0 8 5 14 10 14 6 0 10 -9 10 -21z m839 14 c0 -5 -18 -23 -40 -42 -47 -40
-53 -23 -6 19 32 29 48 37 46 23z m408 -10 c4 -10 1 -19 -6 -21 -8 -3 -22 -13
-33 -24 -27 -27 -35 -14 -15 27 18 37 43 46 54 18z m-1177 -3 c0 -5 -7 -10
-15 -10 -8 0 -15 5 -15 10 0 6 7 10 15 10 8 0 15 -4 15 -10z m-850 -32 c0 -27
-34 -19 -38 9 -3 17 1 20 17 16 12 -3 21 -14 21 -25z m100 2 c0 -11 -5 -20
-11 -20 -6 0 -25 -11 -43 -25 -18 -14 -36 -22 -39 -18 -12 11 -8 33 6 33 8 0
24 11 37 25 28 30 50 32 50 5z m405 -9 c-3 -6 -16 -16 -28 -23 -20 -10 -20 -9
3 15 24 25 39 29 25 8z m838 -5 c-3 -13 0 -27 6 -30 20 -13 12 -27 -8 -16 -27
14 -34 13 -27 -5 3 -9 0 -15 -10 -15 -19 0 -32 32 -15 38 7 2 16 15 21 28 13
32 39 32 33 0z m439 -8 c-11 -11 -32 -3 -32 12 0 12 34 18 39 7 2 -5 -1 -13
-7 -19z m-108 7 c-4 -8 -10 -15 -14 -15 -4 0 -10 7 -14 15 -4 10 1 15 14 15
13 0 18 -5 14 -15z m-214 0 c0 -11 -70 -78 -75 -73 -3 3 10 21 27 41 31 33 48
45 48 32z m-703 -61 c-26 -25 -47 -52 -47 -60 0 -8 -9 -14 -19 -14 -27 0 -16
34 15 49 13 6 24 18 24 26 0 9 4 14 9 11 4 -3 19 6 31 19 13 14 26 23 28 20 3
-3 -16 -26 -41 -51z m133 21 c0 -12 -29 -35 -44 -35 -3 0 2 13 12 29 16 29 32
32 32 6z m937 -13 c-20 -20 -27 -23 -27 -10 0 15 41 50 49 42 3 -3 -7 -17 -22
-32z m103 1 c0 -13 -3 -13 -15 -3 -8 7 -15 16 -15 21 0 5 7 6 15 3 8 -4 15
-13 15 -21z m-1502 8 c12 -7 11 -13 -2 -37 -16 -29 -16 -29 -14 -4 1 14 -1 31
-5 38 -9 14 2 16 21 3z m1092 6 c0 -11 -70 -80 -76 -75 -8 9 48 78 64 78 6 0
12 -1 12 -3z m-970 -17 c0 -5 -7 -10 -15 -10 -8 0 -15 -7 -15 -16 0 -14 -3
-14 -16 -3 -13 11 -12 14 13 25 15 7 29 13 31 13 1 1 2 -3 2 -9z m1046 -34
c-15 -14 -26 -30 -26 -36 0 -5 -7 -10 -15 -10 -24 0 -17 25 10 40 14 7 25 19
25 26 0 7 6 14 13 17 22 7 19 -11 -7 -37z m134 34 c0 -5 -4 -10 -9 -10 -6 0
-13 5 -16 10 -3 6 1 10 9 10 9 0 16 -4 16 -10z m310 -2 c-1 -22 -50 -70 -65
-64 -21 8 -18 23 6 29 11 3 23 15 26 26 6 22 33 29 33 9z m-1840 -37 c0 -9 6
-23 13 -30 10 -10 5 -11 -24 -6 -46 9 -70 -15 -49 -48 l13 -22 -24 20 c-13 11
-26 21 -28 22 -3 2 10 18 62 74 20 22 37 17 37 -10z m470 9 c0 -5 -7 -7 -15
-4 -8 4 -12 10 -9 15 6 11 24 2 24 -11z m170 -21 c0 -12 -32 4 -49 25 -12 14
-10 14 18 0 17 -9 31 -20 31 -25z m-790 21 c0 -5 -2 -10 -4 -10 -3 0 -8 5 -11
10 -3 6 -1 10 4 10 6 0 11 -4 11 -10z m-60 -22 l29 -21 -20 -25 c-11 -15 -17
-33 -14 -44 7 -19 -2 -23 -22 -10 -10 6 -10 15 -1 40 10 26 9 34 -5 50 -34 37
-13 44 33 10z m1380 7 c-7 -9 -15 -13 -19 -10 -3 3 1 10 9 15 21 14 24 12 10
-5z m509 6 c12 -8 13 -12 1 -26 -10 -13 -15 -13 -21 -3 -20 30 -8 46 20 29z
m-925 -9 c3 -5 -11 -14 -30 -21 -19 -7 -34 -19 -34 -28 0 -13 -3 -13 -16 -2
-14 12 -14 14 4 20 10 4 22 14 25 23 7 17 42 22 51 8z m818 -24 c-15 -15 -26
-4 -18 18 5 13 9 15 18 6 9 -9 9 -15 0 -24z m331 26 c3 -4 -7 -23 -23 -42 -16
-19 -27 -39 -24 -44 3 -4 -2 -8 -11 -8 -10 0 -26 -11 -37 -25 -22 -28 -38 -32
-38 -10 0 8 10 20 22 26 26 14 53 43 73 82 15 27 26 33 38 21z m-1778 -42 l30
-36 -37 29 c-21 17 -38 33 -38 38 0 15 16 4 45 -31z m68 32 c7 -7 -14 -44 -26
-44 -4 0 -3 8 2 19 6 10 7 21 4 25 -3 3 -2 6 4 6 5 0 12 -3 16 -6z m200 -15
c-19 -20 -43 -19 -43 1 0 7 18 13 55 19 5 0 0 -9 -12 -20z m703 -4 c15 -14 24
-28 21 -32 -4 -3 -15 1 -25 11 -9 9 -26 23 -37 31 -17 12 -18 14 -3 15 9 0 29
-11 44 -25z m378 10 c-4 -8 -10 -15 -15 -15 -5 0 -9 7 -9 15 0 8 7 15 15 15 9
0 12 -6 9 -15z m-903 -44 c-31 -33 -41 -38 -41 -19 0 14 64 69 68 58 1 -4 -11
-21 -27 -39z m-293 12 c-15 -36 -29 -55 -36 -48 -3 2 1 11 7 19 9 11 10 20 1
35 -9 19 -8 21 14 21 24 0 25 -2 14 -27z m952 12 c0 -8 -4 -15 -10 -15 -5 0
-10 7 -10 15 0 8 5 15 10 15 6 0 10 -7 10 -15z m520 -11 c-10 -25 -47 -63 -62
-64 -12 0 18 49 43 69 31 26 30 26 19 -5z m-961 -10 c-16 -20 -28 -17 -22 5 3
12 11 17 19 14 11 -4 12 -9 3 -19z m-734 -7 c-4 -8 -15 -17 -26 -20 -15 -4
-17 -2 -9 13 9 16 31 31 38 25 1 -1 0 -9 -3 -18z m405 10 c0 -12 -39 -42 -46
-35 -6 6 26 48 37 48 5 0 9 -6 9 -13z m490 3 c0 -5 -4 -10 -9 -10 -6 0 -13 5
-16 10 -3 6 1 10 9 10 9 0 16 -4 16 -10z m380 0 c0 -6 -7 -13 -15 -16 -8 -4
-15 -12 -15 -19 0 -17 -27 -27 -36 -14 -3 6 5 21 18 34 24 24 48 32 48 15z
m200 -5 c-6 -8 -9 -19 -5 -25 3 -6 -3 -10 -14 -10 -28 0 -27 28 2 40 30 12 31
12 17 -5z m100 -17 c-11 -4 -20 -12 -20 -18 0 -5 -4 -10 -10 -10 -13 0 -1 32
18 47 13 10 17 10 24 1 4 -8 0 -16 -12 -20z m350 25 c0 -15 -18 -35 -41 -47
-13 -6 -29 -22 -35 -35 -12 -23 -12 -23 -23 -3 -15 28 -14 32 7 32 10 0 29 14
44 30 25 28 48 39 48 23z m-1614 -40 c-7 -7 -26 7 -26 19 0 6 6 6 15 -2 9 -7
13 -15 11 -17z m1054 18 c0 -12 -20 -25 -27 -18 -7 7 6 27 18 27 5 0 9 -4 9
-9z m-762 -29 c2 -14 -2 -22 -11 -22 -8 0 -17 -9 -20 -21 -3 -12 -11 -19 -18
-17 -21 7 -21 25 1 31 14 3 20 13 20 32 0 32 23 29 28 -3z m415 2 c-7 -19 -26
-17 -39 4 -11 16 -9 18 16 14 19 -3 27 -9 23 -18z m105 6 c-12 -19 -28 -27
-28 -14 0 6 30 33 38 34 1 0 -3 -9 -10 -20z m-1294 -14 c-3 -9 -12 -16 -20
-16 -18 0 -18 5 2 25 19 19 27 15 18 -9z m215 -16 c6 0 11 -4 11 -10 0 -21
-27 -9 -39 18 -10 23 -10 25 2 10 8 -10 19 -18 26 -18z m417 -5 c-3 -8 -10
-15 -16 -15 -14 0 -12 37 3 43 15 5 21 -8 13 -28z m437 10 c-17 -7 -33 -20
-36 -28 -6 -16 21 -47 41 -47 7 0 12 -4 12 -8 0 -10 -80 -100 -80 -90 0 3 -3
14 -6 22 -4 11 -2 15 8 11 8 -3 25 6 38 20 l24 26 -27 26 -26 27 -26 -24 c-14
-13 -25 -29 -25 -37 0 -7 -4 -13 -8 -13 -5 0 -32 -23 -61 -51 -52 -50 -52 -51
-34 -72 10 -12 19 -24 20 -26 1 -2 14 4 27 13 l25 16 -17 -30 c-17 -31 -42
-40 -42 -17 0 8 -9 22 -20 32 -11 10 -20 24 -20 32 0 8 38 53 85 101 47 48 89
92 93 97 12 17 66 44 75 38 5 -3 -4 -11 -20 -18z m-973 -6 c0 -6 -4 -7 -10 -4
-5 3 -10 11 -10 16 0 6 5 7 10 4 6 -3 10 -11 10 -16z m337 6 c8 -22 -6 -33
-17 -15 -13 20 -12 30 0 30 6 0 13 -7 17 -15z m1153 -16 c-6 -10 -17 -19 -25
-19 -19 0 -19 9 1 31 21 23 38 14 24 -12z m-100 12 c0 -5 -6 -14 -14 -20 -11
-9 -16 -9 -21 0 -4 6 -1 15 6 20 18 11 29 11 29 0z m-1150 -4 c0 -2 -11 -14
-25 -27 l-25 -23 13 26 c6 15 18 27 25 27 6 0 12 -1 12 -3z m485 -26 c-7 -23
-25 -29 -25 -8 0 14 21 39 28 33 2 -3 1 -14 -3 -25z m534 -2 c-16 -23 -24 -28
-30 -17 -19 29 -12 37 44 47 5 0 -2 -13 -14 -30z m341 16 c0 -8 -5 -15 -10
-15 -6 0 -22 -12 -37 -26 -36 -36 -41 -22 -7 20 31 37 54 46 54 21z m110 -6
c0 -5 -6 -9 -12 -9 -7 0 -24 -16 -37 -35 -13 -19 -28 -35 -34 -35 -5 0 -16 -8
-23 -17 -7 -10 -15 -15 -19 -12 -3 4 20 33 52 66 54 55 73 67 73 42z m-666 -4
c-4 -8 -8 -15 -10 -15 -2 0 -4 7 -4 15 0 8 4 15 10 15 5 0 7 -7 4 -15z m96 -5
c-6 -11 -15 -20 -20 -20 -14 0 -12 27 3 33 23 10 28 7 17 -13z m890 13 c0 -10
-62 -73 -72 -73 -4 0 -8 7 -8 15 0 8 7 15 15 15 8 0 22 11 31 25 15 24 34 33
34 18z m-2170 -7 c0 -2 -3 -11 -6 -20 -9 -23 -24 -20 -24 4 0 11 7 20 15 20 8
0 15 -2 15 -4z m103 -22 c-11 -17 -19 -22 -21 -14 -3 7 3 19 14 27 26 19 27
17 7 -13z m863 15 c3 -6 -5 -23 -20 -37 -14 -15 -26 -21 -26 -15 0 7 5 15 10
18 6 3 10 15 10 26 0 21 15 26 26 8z m-741 -18 c-3 -6 -15 -16 -26 -21 -15 -9
-19 -7 -19 5 0 8 9 15 20 15 11 0 20 5 20 12 0 6 3 9 6 5 3 -3 3 -10 -1 -16z
m300 0 c-3 -6 -15 -16 -26 -22 -18 -9 -19 -9 -10 9 10 19 32 33 40 26 1 -1 0
-7 -4 -13z m105 -2 c0 -6 -15 -24 -32 -40 -26 -22 -36 -25 -46 -16 -12 9 -12
12 -1 15 32 8 59 26 59 39 0 7 5 13 10 13 6 0 10 -5 10 -11z m858 -1 c-3 -7
-13 -15 -24 -17 -16 -3 -17 -1 -5 13 16 19 34 21 29 4z m92 -8 c0 -13 -7 -20
-20 -20 -23 0 -26 10 -8 28 18 18 28 15 28 -8z m443 3 c-4 -10 -19 -31 -35
-47 -15 -17 -28 -33 -28 -38 0 -17 -28 -7 -33 11 -3 13 0 18 8 15 15 -6 45 22
45 42 0 12 20 25 47 33 1 1 -1 -7 -4 -16z m-1296 -11 c-10 -10 -17 -24 -17
-30 0 -7 -7 -12 -15 -12 -21 0 -19 10 7 37 25 27 49 32 25 5z m122 -6 l23 -24
-22 -7 c-27 -8 -56 16 -47 39 9 22 20 20 46 -8z m1015 -40 c-34 -34 -39 -36
-53 -22 -13 14 -13 16 -1 16 8 0 31 15 50 33 47 43 51 20 4 -27z m-1536 34 c7
-11 9 -20 4 -20 -4 0 -13 9 -20 20 -7 11 -9 20 -4 20 4 0 13 -9 20 -20z m130
-16 c5 3 8 -5 8 -16 -1 -12 8 -27 19 -32 11 -6 21 -20 23 -31 3 -18 -22 6 -75
74 -11 14 -20 8 -68 -43 -31 -32 -58 -56 -61 -53 -3 3 19 31 50 63 31 32 56
63 56 69 1 5 9 0 20 -13 11 -13 23 -21 28 -18z m889 11 c-15 -30 -37 -41 -37
-17 0 9 10 22 23 28 12 7 23 12 24 13 0 0 -4 -10 -10 -24z m-1387 6 c0 -21
-13 -41 -26 -41 -15 0 -17 10 -8 34 7 17 34 22 34 7z m1274 -6 c3 -9 0 -15 -8
-15 -8 0 -16 7 -20 15 -3 9 0 15 8 15 8 0 16 -7 20 -15z m-963 -12 c21 6 21 5
-2 -20 -22 -22 -24 -23 -28 -6 -2 10 -8 25 -15 33 -10 13 -9 13 6 1 10 -7 27
-11 39 -8z m1169 1 c0 -8 -4 -12 -10 -9 -5 3 -10 10 -10 16 0 5 5 9 10 9 6 0
10 -7 10 -16z m-1280 -9 c-7 -8 -17 -15 -22 -15 -6 0 -5 7 2 15 7 8 17 15 22
15 6 0 5 -7 -2 -15z m1370 -14 c0 -14 -5 -18 -20 -14 -21 5 -25 15 -13 26 13
14 33 6 33 -12z m5160 4 c0 -8 -4 -15 -10 -15 -5 0 -10 7 -10 15 0 8 5 15 10
15 6 0 10 -7 10 -15z m-5800 -4 c0 -5 -7 -11 -15 -15 -15 -5 -20 5 -8 17 9 10
23 9 23 -2z m760 -11 c6 -11 16 -17 25 -14 8 4 15 1 15 -5 0 -16 -32 -14 -57
4 -12 8 -30 12 -40 9 -16 -5 -16 -4 1 10 26 21 43 20 56 -4z m420 9 c0 -18
-73 -80 -83 -70 -5 5 3 16 22 27 17 10 31 26 31 36 0 10 7 18 15 18 8 0 15 -5
15 -11z m100 -4 c0 -15 -26 -32 -36 -23 -2 3 -2 13 2 22 8 20 34 21 34 1z
m-977 -15 c-6 -22 -33 -24 -40 -3 -4 10 9 17 39 22 3 0 4 -8 1 -19z m-557 -16
c-11 -7 -22 -11 -25 -8 -3 3 3 12 13 20 11 7 22 11 25 8 3 -3 -3 -12 -13 -20z
m134 16 c16 -10 14 -15 -15 -24 -16 -5 -21 -1 -22 14 -2 21 13 26 37 10z m528
-8 c2 -7 -3 -12 -11 -12 -8 0 -29 -17 -45 -37 -17 -21 -34 -35 -38 -31 -4 4 9
23 29 42 21 19 37 40 37 46 0 15 22 8 28 -8z m92 -6 c0 -8 -4 -18 -10 -21 -5
-3 -10 3 -10 14 0 12 5 21 10 21 6 0 10 -6 10 -14z m-1280 -4 c0 -5 -9 -17
-20 -27 -22 -20 -26 -14 -10 16 11 19 30 26 30 11z m1370 -6 c0 -8 -7 -16 -15
-20 -15 -5 -21 14 -8 27 11 12 23 8 23 -7z m-1580 -2 c0 -13 -21 -44 -30 -44
-14 0 -12 24 2 38 13 13 28 16 28 6z m2000 -16 c0 -16 -3 -19 -11 -11 -6 6 -8
16 -5 22 11 17 16 13 16 -11z m220 13 c0 -6 -4 -13 -10 -16 -5 -3 -10 1 -10 9
0 9 5 16 10 16 6 0 10 -4 10 -9z m-1890 -11 c0 -5 -7 -10 -16 -10 -8 0 -12 5
-9 10 3 6 10 10 16 10 5 0 9 -4 9 -10z m626 -5 c-24 -18 -46 -19 -46 -2 0 7
14 13 33 14 30 2 31 1 13 -12z m169 -15 c-21 -23 -45 -26 -45 -7 0 12 50 38
59 30 2 -1 -4 -12 -14 -23z m113 1 c-7 -12 -17 -21 -23 -21 -5 0 -21 -16 -35
-35 -14 -19 -31 -35 -38 -35 -7 0 -24 -12 -38 -27 -19 -20 -27 -24 -36 -15 -9
9 -8 12 4 12 9 0 28 14 41 30 14 17 31 30 37 30 14 0 49 40 50 56 0 10 41 35
48 29 2 -2 -3 -12 -10 -24z m222 11 c0 -8 -32 -42 -39 -42 -3 0 -6 13 -6 28 0
24 3 28 23 24 12 -2 22 -7 22 -10z m425 8 c-3 -5 -12 -10 -18 -10 -7 0 -6 4 3
10 19 12 23 12 15 0z m-1755 -15 c11 -13 10 -14 -4 -9 -9 3 -16 10 -16 15 0
13 6 11 20 -6z m679 11 c-4 -4 -130 -56 -136 -56 -1 0 2 11 8 23 8 18 17 23
34 19 13 -2 31 1 42 7 17 10 61 16 52 7z m-295 -18 c-3 -4 -9 -8 -15 -8 -5 0
-9 4 -9 8 0 5 7 9 15 9 8 0 12 -4 9 -9z m1014 -5 c-2 -5 -12 -25 -21 -45 -15
-33 -37 -51 -37 -32 0 14 44 84 53 84 5 0 7 -3 5 -7z m-1243 -13 c-9 -14 13
-40 33 -40 9 0 26 10 39 22 13 12 23 17 22 12 0 -5 -15 -21 -32 -35 l-32 -27
-26 22 c-36 31 -44 56 -18 56 11 0 17 -4 14 -10z m598 -11 c-13 -13 -26 -18
-34 -14 -9 6 -7 11 6 22 11 7 26 13 34 13 12 0 11 -5 -6 -21z m1395 -2 c4 -19
-6 -21 -27 -8 -16 10 -5 34 12 28 7 -2 13 -11 15 -20z m-302 -14 c-7 -7 -26 7
-26 19 0 6 6 6 15 -2 9 -7 13 -15 11 -17z m65 -4 c-13 -11 -27 -17 -30 -13 -3
3 5 14 18 25 13 11 27 17 30 13 3 -3 -5 -14 -18 -25z m-1203 -15 c-5 -22 -22
-18 -28 6 -5 22 -5 22 -28 -2 -20 -22 -57 -41 -175 -93 -30 -13 -35 -19 -28
-33 4 -9 6 -23 4 -29 -7 -21 -33 -15 -33 7 0 11 -4 20 -9 20 -22 0 -106 -52
-113 -70 -4 -12 -13 -17 -25 -14 -10 3 -27 -2 -38 -10 -20 -15 -20 -15 0 -30
29 -21 13 -29 -21 -11 -16 8 -36 15 -44 15 -32 0 22 32 260 153 192 98 249
123 263 115 10 -5 17 -16 15 -24z m562 4 c0 -5 -7 -8 -15 -8 -8 0 -15 2 -15 4
0 2 -3 12 -6 21 -6 15 -4 15 15 4 11 -8 21 -17 21 -21z m760 22 c0 -5 -4 -10
-9 -10 -6 0 -13 5 -16 10 -3 6 1 10 9 10 9 0 16 -4 16 -10z m-876 -25 c-4 -8
-10 -12 -15 -9 -14 8 -10 24 6 24 9 0 12 -6 9 -15z m946 5 c0 -5 -5 -10 -11
-10 -5 0 -7 5 -4 10 3 6 8 10 11 10 2 0 4 -4 4 -10z m-1306 -49 c-9 -10 -26
18 -18 30 5 9 9 8 14 -7 4 -10 6 -21 4 -23z m326 22 c-1 -14 -35 -48 -62 -62
-16 -8 -28 -20 -28 -28 0 -7 -7 -13 -15 -13 -25 0 -17 27 10 34 14 4 25 13 25
21 0 8 6 15 13 15 7 0 18 9 25 20 12 19 32 28 32 13z m104 -15 c-10 -13 -20
-25 -21 -27 -1 -1 -7 0 -13 4 -8 5 -2 14 17 25 37 24 40 24 17 -2z m739 0
c-13 -12 -26 -18 -30 -14 -4 4 1 14 11 22 31 22 43 17 19 -8z m117 -3 c0 -8 8
-19 18 -24 9 -6 13 -11 8 -11 -15 0 -46 32 -46 47 0 8 5 11 10 8 6 -3 10 -12
10 -20z m-1432 -18 c2 -10 -3 -17 -12 -17 -8 0 -23 -11 -34 -25 -11 -14 -25
-25 -31 -25 -6 0 -11 -7 -11 -15 0 -8 -7 -15 -15 -15 -9 0 -24 -13 -33 -30
-19 -33 -37 -39 -46 -14 -4 10 3 18 24 26 17 5 30 16 30 24 0 7 9 18 20 24 11
6 20 17 20 24 0 8 11 17 24 20 13 3 26 15 29 27 6 24 30 21 35 -4z m663 10
c-1 -12 -15 -9 -19 4 -3 6 1 10 8 8 6 -3 11 -8 11 -12z m-457 -32 c-18 -28
-37 -29 -42 -2 -2 11 3 17 17 17 11 0 23 5 26 11 4 6 9 8 12 6 2 -3 -3 -17
-13 -32z m-119 5 c-20 -22 -31 -20 -22 5 4 8 14 15 23 15 16 0 16 -2 -1 -20z
m424 -17 c-23 -29 -81 -83 -89 -83 -4 0 -10 7 -13 14 -4 10 -1 13 9 9 9 -3 28
10 51 36 36 40 70 59 42 24z m104 3 c12 4 14 1 10 -15 -3 -12 -11 -21 -18 -21
-8 0 -25 -15 -39 -32 -22 -27 -28 -30 -36 -18 -7 11 -5 16 9 18 10 2 26 11 36
22 14 15 15 22 4 42 -11 20 -10 22 3 10 9 -7 22 -10 31 -6z m749 -12 c-3 -17
-8 -22 -15 -15 -11 11 -3 41 11 41 5 0 7 -12 4 -26z m-1319 -1 c8 -7 -21 -43
-34 -43 -5 0 -3 11 3 25 11 26 19 30 31 18z m221 -8 c-6 -16 -24 -21 -24 -7 0
11 11 22 21 22 5 0 6 -7 3 -15z m1556 5 c0 -5 -15 -9 -32 -9 l-33 1 30 8 c17
4 31 8 33 9 1 0 2 -3 2 -9z m-1100 -9 c0 -5 -6 -14 -14 -20 -12 -10 -13 -8 -9
8 5 21 23 30 23 12z m730 5 c0 -3 -4 -8 -10 -11 -5 -3 -10 -1 -10 4 0 6 5 11
10 11 6 0 10 -2 10 -4z m-236 -57 c-9 -10 -24 -19 -33 -19 -11 0 -8 7 12 25
15 14 28 31 28 38 1 7 3 4 6 -6 3 -10 -3 -27 -13 -38z m-1094 20 c0 -5 -4 -9
-10 -9 -5 0 -10 7 -10 16 0 8 5 12 10 9 6 -3 10 -10 10 -16z m1189 8 c8 -11 6
-18 -9 -32 -25 -22 -30 -18 -23 18 6 30 15 34 32 14z m-1081 -14 c-2 -10 -11
-19 -21 -21 -16 -3 -17 -1 -7 17 13 25 33 28 28 4z m107 -3 c-18 -20 -45 -27
-45 -12 0 7 37 28 54 31 5 0 1 -8 -9 -19z m335 -12 c0 -12 -14 -10 -28 4 -19
19 -14 29 8 16 11 -7 20 -16 20 -20z m-676 1 c-8 -14 -24 -10 -24 6 0 9 6 12
15 9 8 -4 12 -10 9 -15z m86 -8 c0 -13 -29 -35 -37 -28 -7 8 15 37 28 37 5 0
9 -4 9 -9z m-330 -27 c0 -14 -21 -19 -33 -7 -9 9 13 34 24 27 5 -3 9 -12 9
-20z m210 -4 c0 -6 -7 -10 -15 -10 -8 0 -15 2 -15 4 0 2 -3 12 -7 21 -5 15 -3
16 15 6 12 -7 22 -16 22 -21z m220 5 c0 -8 -4 -15 -10 -15 -5 0 -10 7 -10 15
0 8 5 15 10 15 6 0 10 -7 10 -15z m1170 5 c0 -5 -5 -10 -11 -10 -5 0 -7 5 -4
10 3 6 8 10 11 10 2 0 4 -4 4 -10z m-960 -15 c-7 -9 -15 -13 -19 -10 -3 3 1
10 9 15 21 14 24 12 10 -5z m238 -5 c-7 -11 -17 -20 -22 -20 -5 0 -1 9 9 20
10 11 20 20 22 20 2 0 -2 -9 -9 -20z m-118 4 c0 -11 -73 -74 -79 -68 -3 3 2
10 12 16 10 5 22 21 27 34 8 20 40 35 40 18z m740 -15 c0 -6 -4 -7 -10 -4 -5
3 -10 11 -10 16 0 6 5 7 10 4 6 -3 10 -11 10 -16z m160 -4 c0 -15 -21 -12 -30
5 -11 20 -10 21 9 10 12 -6 21 -13 21 -15z m-1398 -17 c-12 -12 -24 -19 -28
-15 -4 3 4 15 17 26 31 25 39 17 11 -11z m-314 -1 c2 -10 -3 -17 -12 -17 -9 0
-23 -11 -31 -24 -21 -32 -45 -41 -45 -17 0 12 9 21 24 25 15 4 26 16 30 32 7
27 29 28 34 1z m102 -2 c0 -8 -5 -15 -11 -15 -6 0 -24 -14 -40 -31 -16 -18
-32 -29 -35 -26 -4 3 6 17 20 30 14 13 26 32 26 41 0 9 8 16 20 16 11 0 20 -7
20 -15z m320 0 c0 -8 -7 -15 -15 -15 -16 0 -20 12 -8 23 11 12 23 8 23 -8z
m220 -5 c0 -5 -4 -12 -10 -15 -5 -3 -10 -4 -10 -1 0 2 -3 12 -6 20 -5 12 -2
15 10 10 9 -3 16 -10 16 -14z m-436 -5 c-4 -8 -12 -15 -20 -15 -8 0 -14 7 -14
15 0 8 9 15 20 15 13 0 18 -5 14 -15z m1386 5 c0 -5 -4 -10 -10 -10 -5 0 -10
5 -10 10 0 6 5 10 10 10 6 0 10 -4 10 -10z m58 -32 c-4 -27 -28 -36 -28 -10 0
20 8 32 22 32 5 0 8 -10 6 -22z m-1498 -19 c0 -5 -4 -9 -10 -9 -5 0 -10 7 -10
16 0 8 5 12 10 9 6 -3 10 -10 10 -16z m840 17 c0 -2 -8 -10 -17 -17 -16 -13
-17 -12 -4 4 13 16 21 21 21 13z m-740 -15 c0 -12 -20 -25 -27 -18 -7 7 6 27
18 27 5 0 9 -4 9 -9z m224 -6 c-4 -8 -12 -15 -20 -15 -17 0 -18 17 -1 23 22 9
27 7 21 -8z m-634 -5 c0 -5 -2 -10 -4 -10 -3 0 -8 5 -11 10 -3 6 -1 10 4 10 6
0 11 -4 11 -10z m510 5 c0 -9 -53 -65 -58 -61 -5 6 40 65 51 65 4 1 7 -1 7 -4z
m1110 -15 c0 -5 -5 -10 -11 -10 -5 0 -7 5 -4 10 3 6 8 10 11 10 2 0 4 -4 4
-10z m-1578 -27 c4 -13 -1 -18 -18 -18 -18 0 -20 3 -13 18 5 9 14 17 18 17 5
0 11 -8 13 -17z m113 -5 c-3 -9 -17 -20 -30 -26 -23 -11 -24 -10 -13 13 6 13
18 26 27 28 21 4 23 3 16 -15z m105 1 c0 -15 -22 -21 -31 -8 -14 22 -11 28 11
22 11 -3 20 -9 20 -14z m108 3 c2 -7 -3 -12 -12 -12 -9 0 -16 7 -16 16 0 17
22 14 28 -4z m1382 -9 c0 -13 -3 -13 -15 -3 -8 7 -12 16 -9 21 8 13 24 1 24
-18z m-1170 8 c0 -5 -6 -14 -14 -20 -11 -9 -16 -9 -21 0 -4 6 -1 15 6 20 18
11 29 11 29 0z m-710 -23 c0 -6 7 -20 17 -30 21 -24 4 -23 -25 2 -13 11 -21
24 -17 30 8 14 25 13 25 -2z m114 -23 c-4 -8 -10 -15 -15 -15 -5 0 -9 7 -9 15
0 8 7 15 15 15 9 0 12 -6 9 -15z m226 -4 c0 -5 -11 -16 -25 -25 -25 -16 -25
-16 -13 9 11 24 38 35 38 16z m103 -6 c-6 -17 -25 -15 -31 3 -2 7 5 12 17 12
14 0 19 -5 14 -15z m99 -7 c-7 -7 -12 -8 -12 -2 0 6 3 14 7 17 3 4 9 5 12 2 2
-3 -1 -11 -7 -17z m-322 2 c0 -5 -4 -10 -10 -10 -5 0 -10 5 -10 10 0 6 5 10
10 10 6 0 10 -4 10 -10z m-266 -16 c4 -9 4 -19 2 -22 -10 -9 -36 8 -36 23 0
20 26 19 34 -1z m916 6 c0 -5 -2 -10 -4 -10 -3 0 -8 5 -11 10 -3 6 -1 10 4 10
6 0 11 -4 11 -10z m-690 -30 c-11 -21 -22 -25 -34 -13 -3 4 4 13 16 20 30 16
30 16 18 -7z m330 0 c-11 -20 -30 -28 -30 -12 0 11 22 32 32 32 5 0 4 -9 -2
-20z m120 6 c0 -3 -4 -8 -10 -11 -5 -3 -10 -1 -10 4 0 6 5 11 10 11 6 0 10 -2
10 -4z m-350 -22 c0 -17 -22 -14 -28 4 -2 7 3 12 12 12 9 0 16 -7 16 -16z
m105 -4 c0 -7 -6 -15 -12 -17 -8 -3 -13 4 -13 17 0 13 5 20 13 18 6 -3 12 -11
12 -18z m-375 -14 c0 -2 -7 -9 -15 -16 -12 -10 -15 -10 -15 4 0 9 7 16 15 16
8 0 15 -2 15 -4z m564 -21 c-6 -16 -24 -21 -24 -7 0 11 11 22 21 22 5 0 6 -7
3 -15z m-460 -10 c-4 -8 -12 -15 -20 -15 -8 0 -11 6 -8 15 4 8 12 15 20 15 8
0 11 -6 8 -15z m-74 -16 c0 -5 -4 -9 -10 -9 -5 0 -10 7 -10 16 0 8 5 12 10 9
6 -3 10 -10 10 -16z m290 6 c0 -8 -7 -15 -15 -15 -9 0 -12 6 -9 15 4 8 10 15
15 15 5 0 9 -7 9 -15z m100 -1 c0 -8 -4 -12 -10 -9 -5 3 -10 10 -10 16 0 5 5
9 10 9 6 0 10 -7 10 -16z m-150 -54 c0 -5 -9 -14 -20 -20 -19 -10 -20 -10 -8
9 13 22 28 28 28 11z m-284 -37 c-4 -4 -11 -1 -16 7 -16 25 -11 35 7 17 9 -9
13 -20 9 -24z"/>
<path d="M5907 5479 c-24 -14 -47 -62 -47 -100 0 -39 61 -103 108 -112 36 -7
95 8 112 28 30 36 -17 133 -85 175 -36 22 -61 25 -88 9z"/>
<path d="M6117 4818 c-17 -14 -47 -90 -47 -123 0 -11 9 -34 20 -52 54 -90 200
-82 245 13 28 60 1 119 -69 154 -47 22 -124 27 -149 8z"/>
<path d="M6853 4749 c-7 -7 -13 -21 -13 -31 0 -11 -7 -18 -20 -18 -12 0 -32
-11 -46 -25 -21 -21 -24 -31 -19 -58 14 -66 100 -127 179 -127 53 0 97 33 120
90 19 47 3 85 -58 135 -51 41 -120 58 -143 34z"/>
<path d="M7622 4308 c-17 -17 -15 -52 6 -71 72 -65 252 -77 252 -16 0 56 -216
129 -258 87z"/>
<path d="M7553 4015 c-35 -15 -83 -79 -83 -111 0 -43 84 -94 156 -94 80 0 155
58 140 108 -25 79 -137 130 -213 97z"/>
<path d="M1626 3285 c-10 -8 -16 -19 -14 -25 2 -7 9 -6 22 3 10 8 17 19 15 25
-3 7 -10 6 -23 -3z"/>
<path d="M3220 3290 c0 -5 4 -10 9 -10 6 0 13 5 16 10 3 6 -1 10 -9 10 -9 0
-16 -4 -16 -10z"/>
<path d="M3324 3246 c-15 -12 -17 -18 -8 -33 19 -31 50 -28 67 6 8 16 12 32 9
35 -10 11 -48 6 -68 -8z"/>
<path d="M1495 3210 c-7 -12 2 -30 16 -30 5 0 9 9 9 20 0 21 -15 27 -25 10z"/>
<path d="M1457 3173 c-11 -10 -8 -63 3 -63 6 0 10 16 10 35 0 36 -2 40 -13 28z"/>
<path d="M1390 3106 c0 -14 5 -28 10 -31 6 -3 10 5 10 19 0 14 -4 28 -10 31
-6 3 -10 -5 -10 -19z"/>
<path d="M1483 3109 c-15 -15 14 -71 35 -67 24 5 27 36 6 59 -20 22 -26 23
-41 8z"/>
<path d="M1443 3058 c-12 -15 -6 -78 8 -78 4 0 13 9 19 20 14 27 -10 79 -27
58z"/>
<path d="M1354 3044 c3 -9 6 -24 6 -35 0 -10 5 -19 10 -19 11 0 13 30 4 54 -3
9 -11 16 -16 16 -6 0 -7 -7 -4 -16z"/>
<path d="M3940 3015 c0 -8 5 -15 10 -15 6 0 10 7 10 15 0 8 -4 15 -10 15 -5 0
-10 -7 -10 -15z"/>
<path d="M1401 2972 c-14 -25 -14 -52 -1 -52 17 0 32 39 22 57 -9 14 -11 14
-21 -5z"/>
<path d="M1315 2957 c-8 -31 0 -46 15 -31 7 7 7 19 1 35 l-9 24 -7 -28z"/>
<path d="M3925 2970 c3 -5 8 -10 11 -10 2 0 4 5 4 10 0 6 -5 10 -11 10 -5 0
-7 -4 -4 -10z"/>
<path d="M1432 2918 c-17 -17 -15 -32 7 -52 19 -17 20 -17 30 3 9 15 8 26 -1
41 -15 23 -20 24 -36 8z"/>
<path d="M1352 2898 c-16 -16 -15 -28 2 -28 16 0 29 27 17 34 -4 3 -13 0 -19
-6z"/>
<path d="M1270 2870 c0 -5 5 -10 10 -10 6 0 10 5 10 10 0 6 -4 10 -10 10 -5 0
-10 -4 -10 -10z"/>
<path d="M1382 2853 c-10 -19 1 -63 16 -63 22 0 33 27 21 54 -14 30 -25 33
-37 9z"/>
<path d="M1479 2845 c-7 -17 -22 -37 -33 -47 -17 -14 -18 -20 -8 -42 14 -32
28 -33 43 -4 7 13 18 29 26 36 17 17 17 43 -1 67 -14 19 -15 19 -27 -10z"/>
<path d="M1303 2815 c-3 -9 -3 -18 0 -21 9 -9 27 6 27 22 0 19 -19 18 -27 -1z"/>
<path d="M1336 2774 c-9 -23 -7 -54 3 -54 17 0 33 29 26 50 -8 24 -21 26 -29
4z"/>
<path d="M1260 2756 c0 -9 5 -16 10 -16 6 0 10 4 10 9 0 6 -4 13 -10 16 -5 3
-10 -1 -10 -9z"/>
<path d="M1394 2725 c-9 -36 10 -55 33 -32 13 13 15 21 7 34 -17 27 -33 26
-40 -2z"/>
<path d="M1280 2675 c-15 -28 -10 -38 14 -29 16 6 23 54 8 54 -5 0 -15 -11
-22 -25z"/>
<path d="M1350 2651 c0 -35 13 -47 30 -27 8 11 9 20 0 35 -16 30 -30 26 -30
-8z"/>
<path d="M1434 2655 c-4 -15 -1 -30 9 -39 13 -14 16 -14 27 0 10 11 10 20 2
39 -15 32 -30 32 -38 0z"/>
<path d="M1240 2605 c0 -8 4 -15 10 -15 5 0 7 7 4 15 -4 8 -8 15 -10 15 -2 0
-4 -7 -4 -15z"/>
<path d="M1391 2592 c-12 -23 -3 -62 14 -62 17 0 22 16 17 52 -5 32 -17 36
-31 10z"/>
<path d="M1310 2581 c-6 -12 -10 -30 -8 -39 3 -14 7 -11 22 11 13 20 16 31 8
39 -7 7 -14 4 -22 -11z"/>
<path d="M1337 2504 c-18 -24 -15 -70 4 -58 5 3 7 10 4 15 -4 5 1 12 9 15 16
6 23 54 9 54 -5 0 -16 -12 -26 -26z"/>
<path d="M1506 2505 c-20 -30 -22 -55 -4 -37 21 21 39 14 32 -12 -4 -18 -1
-25 18 -29 12 -4 26 -3 31 2 11 11 -2 40 -24 52 -11 5 -19 16 -19 24 0 25 -17
25 -34 0z"/>
<path d="M1251 2494 c0 -11 3 -14 6 -6 3 7 2 16 -1 19 -3 4 -6 -2 -5 -13z"/>
<path d="M1290 2410 c0 -5 5 -10 10 -10 6 0 10 5 10 10 0 6 -4 10 -10 10 -5 0
-10 -4 -10 -10z"/>
<path d="M1482 2393 c2 -22 9 -29 31 -31 32 -4 35 10 7 38 -28 28 -42 25 -38
-7z"/>
<path d="M1432 2101 c-9 -5 -11 -17 -7 -34 9 -35 26 -24 23 14 -1 16 -2 29 -3
29 0 0 -6 -4 -13 -9z"/>
<path d="M1520 2085 c0 -15 25 -55 35 -55 19 0 38 28 31 45 -5 13 -66 23 -66
10z"/>
<path d="M1480 2041 c0 -30 11 -51 25 -51 24 0 27 19 8 45 -22 29 -33 32 -33
6z"/>
<path d="M1440 1965 c0 -20 4 -26 18 -23 9 2 17 12 17 23 0 11 -8 21 -17 23
-14 3 -18 -3 -18 -23z"/>
<path d="M8420 2710 c0 -5 5 -10 10 -10 6 0 10 5 10 10 0 6 -4 10 -10 10 -5 0
-10 -4 -10 -10z"/>
</g>
</svg>
