<?xml version="1.0" standalone="no"?>
<!DOCTYPE svg PUBLIC "-//W3C//DTD SVG 20010904//EN"
 "http://www.w3.org/TR/2001/REC-SVG-20010904/DTD/svg10.dtd">
<svg version="1.0" xmlns="http://www.w3.org/2000/svg"
 width="1080.000000pt" height="724.000000pt" viewBox="0 0 1080.000000 724.000000"
 preserveAspectRatio="xMidYMid meet">

<g transform="translate(0.000000,724.000000) scale(0.100000,-0.100000)"
fill="#000000" stroke="none">
<path d="M3242 6097 c-63 -20 -121 -91 -188 -232 -34 -71 -76 -147 -93 -169
-17 -21 -31 -42 -31 -47 0 -5 -13 -23 -29 -41 -16 -18 -56 -73 -89 -123 -34
-49 -81 -116 -106 -148 -70 -89 -82 -158 -46 -262 43 -125 149 -267 409 -551
234 -255 340 -402 315 -441 -18 -28 -219 -111 -384 -158 -286 -82 -464 -100
-815 -84 -409 20 -456 7 -484 -131 -6 -30 -20 -77 -31 -105 -10 -27 -22 -67
-25 -87 -5 -29 -16 -46 -52 -75 -102 -83 -127 -110 -194 -211 -84 -126 -140
-235 -174 -338 -27 -83 -55 -268 -55 -365 0 -59 -1 -62 -55 -122 -143 -160
-225 -454 -195 -701 37 -308 152 -519 380 -696 114 -88 335 -180 435 -181 39
-1 62 -7 80 -21 19 -15 53 -23 130 -31 l105 -11 36 35 c34 32 37 33 48 15 29
-50 39 -53 165 -61 131 -8 162 0 176 45 10 30 31 24 55 -15 l22 -35 153 0 153
0 22 35 c27 44 43 44 69 0 l20 -35 129 0 129 0 36 40 c19 22 42 40 49 40 8 0
32 -18 53 -40 l39 -40 162 0 c158 0 163 1 192 25 l29 25 19 -21 c18 -20 26
-21 154 -16 121 5 153 10 300 51 91 26 206 53 255 61 148 23 404 38 670 39
293 0 361 -10 550 -81 92 -35 143 -47 221 -56 97 -10 103 -9 138 11 46 27 51
27 83 2 23 -18 41 -20 164 -20 l139 0 27 30 c33 38 44 38 66 0 l18 -30 160 0
161 0 26 30 c32 37 39 37 74 3 29 -27 29 -27 163 -25 139 2 185 13 198 47 9
22 26 19 49 -10 19 -24 24 -25 137 -25 169 0 218 11 259 57 l34 38 30 -37 c30
-38 31 -38 101 -37 40 0 108 4 152 8 71 8 82 12 107 40 15 17 31 31 34 31 3 0
15 -11 26 -25 15 -19 29 -25 58 -25 73 0 142 21 173 52 l30 29 22 -21 23 -22
89 21 c120 29 142 39 159 72 17 33 23 35 50 14 28 -21 59 -18 164 17 65 21
103 40 122 60 16 17 32 26 41 22 20 -7 102 29 149 66 21 17 49 30 65 30 28 0
204 81 236 109 10 8 40 27 67 41 27 14 88 56 135 93 219 175 320 385 332 693
6 160 -8 244 -57 344 -15 30 -30 82 -34 115 -8 71 -41 147 -84 197 -85 96
-240 110 -642 58 -135 -18 -312 -37 -394 -43 -132 -10 -150 -9 -160 5 -7 9
-26 94 -44 190 -55 290 -61 314 -95 365 -38 55 -82 80 -168 94 -358 59 -565
119 -926 268 -157 65 -229 101 -333 169 -112 72 -471 330 -537 384 -28 24
-127 106 -220 183 -92 77 -204 176 -248 221 -44 45 -94 89 -112 98 -17 9 -78
69 -135 133 -176 201 -329 350 -382 374 -87 38 -159 9 -320 -127 -145 -124
-330 -273 -353 -285 -22 -12 -28 -8 -110 82 -130 142 -635 644 -738 733 -254
221 -507 385 -650 421 -67 17 -184 18 -233 2z m264 -655 c44 -39 209 -240 295
-361 41 -57 107 -149 147 -205 70 -96 108 -156 98 -156 -2 0 -37 45 -76 100
-40 55 -133 168 -208 251 -154 170 -242 282 -278 352 -28 53 -22 58 22 19z
m-450 -312 c4 0 22 9 40 21 44 27 45 9 4 -52 -16 -24 -30 -49 -30 -54 0 -33
111 -163 327 -384 59 -60 64 -63 98 -57 34 7 36 6 26 -13 -15 -27 -45 -35 -87
-21 -48 16 -330 328 -374 414 -34 69 -46 122 -35 163 7 27 7 28 16 6 4 -13 11
-23 15 -23z m342 -54 c40 -21 219 -207 231 -239 16 -41 14 -54 -11 -78 -64
-60 -108 -42 -207 86 -117 149 -136 205 -79 233 31 14 35 14 66 -2z m1972 -35
c0 -12 -89 -121 -98 -121 -4 0 -34 -25 -67 -56 -33 -31 -80 -73 -105 -93 -25
-20 -49 -42 -53 -49 -17 -26 -197 -140 -447 -282 -74 -42 -179 -90 -196 -90
-28 0 -11 16 84 79 133 88 324 225 587 423 250 187 295 216 295 189z m-2248
-338 c66 -70 158 -188 158 -204 0 -47 -212 179 -235 250 -11 36 9 23 77 -46z
m1133 -299 c64 -101 90 -153 81 -161 -3 -4 -33 46 -193 316 -94 160 -29 69
112 -155z m61 17 c6 -12 23 -34 37 -49 27 -29 61 -91 54 -98 -7 -7 -127 155
-127 172 0 13 26 -5 36 -25z m1735 -70 c-17 -22 -88 -93 -157 -160 -69 -66
-127 -129 -129 -141 -5 -25 5 -25 37 -1 31 25 72 18 65 -10 -3 -12 0 -19 9
-19 8 0 14 -4 14 -9 0 -5 9 -13 21 -16 16 -6 19 -12 14 -36 -6 -26 -4 -29 17
-27 18 2 24 -2 26 -24 2 -18 11 -28 28 -32 14 -4 29 -4 34 -1 9 6 32 -35 34
-59 2 -19 25 -16 36 4 6 12 14 19 17 16 3 -3 0 -12 -6 -20 -17 -20 -5 -38 22
-34 16 2 22 -2 21 -14 -2 -17 7 -22 34 -19 6 1 12 -3 12 -9 0 -5 -7 -10 -15
-10 -8 0 -15 -2 -15 -4 0 -2 -3 -12 -7 -22 -5 -14 -2 -16 20 -12 15 3 27 1 27
-4 0 -6 7 -7 16 -4 11 4 18 -1 21 -14 3 -11 12 -20 19 -20 21 0 17 -10 -12
-33 -55 -43 -64 -119 -22 -179 22 -32 101 -72 186 -93 68 -18 108 -14 159 15
30 18 31 18 36 -1 3 -11 21 -26 40 -34 20 -8 38 -19 42 -25 3 -5 15 -10 26
-10 10 0 19 -4 19 -8 0 -4 13 -15 29 -25 26 -15 29 -22 30 -71 1 -114 76 -186
193 -186 78 0 138 33 159 88 10 25 27 29 35 7 4 -8 11 -15 17 -15 17 0 107
-44 107 -52 0 -4 -11 -24 -25 -44 -30 -44 -32 -78 -5 -121 58 -96 236 -97 286
-1 16 30 12 81 -9 106 -17 21 -2 24 24 4 41 -31 81 -42 175 -46 50 -2 100 -9
111 -14 11 -6 29 -9 41 -5 11 3 31 -2 44 -11 28 -20 68 -21 94 -1 29 22 33 19
27 -24 -10 -76 3 -108 60 -146 151 -100 315 -10 253 139 -16 39 -59 72 -112
86 -39 10 -39 10 11 6 61 -5 144 -39 168 -69 16 -20 18 -21 28 -4 5 9 16 17
24 17 23 0 65 -46 75 -81 16 -54 12 -171 -6 -197 -20 -29 -29 -28 -50 7 -19
33 -15 32 -167 5 -44 -8 -82 -12 -86 -10 -4 3 -48 6 -97 7 -49 1 -92 3 -96 6
-4 2 -45 6 -90 8 -192 11 -272 20 -393 46 -27 5 -86 14 -130 19 -44 5 -100 14
-125 19 -25 6 -92 21 -150 34 -58 13 -118 31 -135 39 -16 8 -52 18 -80 22 -53
7 -135 36 -135 49 0 4 -12 7 -27 7 -16 0 -41 7 -57 15 -15 8 -35 15 -44 15 -8
0 -20 6 -26 14 -6 8 -45 32 -86 54 -41 22 -95 51 -120 66 -25 14 -51 26 -58
26 -7 0 -22 9 -34 20 -12 11 -28 20 -35 20 -7 0 -17 9 -23 20 -6 11 -17 20
-24 20 -7 0 -24 8 -37 19 -13 10 -53 33 -88 52 -35 19 -68 44 -74 56 -5 12
-17 24 -26 28 -32 12 -61 30 -61 37 0 5 -9 17 -20 28 -11 11 -20 17 -20 13 0
-4 -7 3 -16 15 -8 12 -22 22 -30 22 -8 0 -14 5 -14 11 0 6 -6 9 -14 6 -8 -3
-13 1 -12 11 1 11 -9 18 -29 22 -21 4 -29 11 -27 23 2 9 -2 17 -8 17 -5 0 -10
7 -10 16 0 8 -5 12 -10 9 -6 -3 -15 6 -20 21 -8 20 -8 29 1 35 19 11 0 29 -31
29 -15 0 -30 6 -33 14 -4 9 -16 12 -34 9 l-28 -4 25 15 c14 8 21 16 15 17 -5
0 1 5 15 9 l25 8 -27 1 c-15 1 -30 6 -34 12 -5 8 -10 7 -16 -4 -7 -14 -13 -14
-35 -4 -14 6 -38 23 -52 38 -14 14 -33 28 -41 32 -13 5 -12 8 3 17 25 16 21
31 -8 24 -14 -3 -32 -3 -42 0 -14 6 -14 8 3 21 21 16 8 20 -16 5 -10 -6 -20
-4 -30 5 -17 16 -25 13 -175 -60 -58 -29 -85 -32 -85 -10 0 19 20 56 40 72 8
7 10 13 5 13 -6 0 -15 -4 -20 -9 -6 -4 -23 -12 -39 -15 -26 -6 -28 -5 -17 8 7
9 68 53 135 98 125 84 178 123 381 277 65 49 121 88 124 85 3 -3 -27 -37 -67
-77 -40 -40 -75 -76 -80 -81 -10 -11 89 43 108 60 8 7 26 17 40 23 43 19 113
62 189 117 40 30 78 54 83 54 5 0 -4 -18 -21 -39z m436 -70 c128 -97 160 -128
146 -141 -8 -9 -38 11 -126 84 -64 53 -119 100 -122 106 -17 27 31 4 102 -49z
m-2360 3 c94 -45 155 -160 156 -295 1 -140 -55 -214 -203 -270 -68 -26 -180
-28 -236 -4 -156 65 -202 293 -91 458 92 136 234 179 374 111z m1901 -356 c-6
-18 -28 -21 -28 -4 0 9 7 16 16 16 9 0 14 -5 12 -12z m1112 -251 c0 -18 -2
-19 -10 -7 -13 20 -13 43 0 35 6 -3 10 -16 10 -28z m-1379 -90 c-13 -13 -26
-3 -16 12 3 6 11 8 17 5 6 -4 6 -10 -1 -17z m1797 -28 c40 -12 72 -28 72 -34
0 -9 -24 -4 -76 15 -118 44 -116 54 4 19z m-4493 -29 c163 -15 307 -38 319
-50 8 -8 4 -10 -14 -6 -14 3 -128 17 -255 31 -289 33 -325 50 -50 25z m4354
-174 c-2 -2 -13 8 -23 22 l-19 27 24 -22 c12 -12 21 -24 18 -27z m-189 -52
c36 -13 58 -23 49 -23 -27 -1 -106 25 -130 44 -19 14 -20 16 -4 10 11 -5 49
-19 85 -31z m665 -15 c17 -6 15 -8 -10 -8 -16 0 -43 6 -60 14 l-30 13 40 -5
c22 -3 49 -10 60 -14z m-3250 -53 c207 -37 604 -148 745 -207 199 -84 527
-255 644 -336 76 -52 71 -51 -39 7 -375 199 -593 301 -775 364 -99 35 -382
108 -542 141 -70 14 -138 30 -150 35 -22 8 -21 9 7 9 17 1 66 -5 110 -13z
m1360 -349 c6 -6 0 -6 -15 -2 -14 4 -32 14 -40 22 -13 13 -11 13 15 2 17 -7
35 -17 40 -22z m-675 -2 c14 -8 21 -14 15 -14 -5 0 -21 6 -35 14 -14 8 -20 14
-15 14 6 0 21 -6 35 -14z m209 -96 c90 -44 161 -82 159 -85 -3 -2 -81 34 -174
81 -93 46 -164 85 -158 85 6 0 84 -36 173 -81z m3921 -79 c0 -5 -5 -10 -11
-10 -5 0 -7 5 -4 10 3 6 8 10 11 10 2 0 4 -4 4 -10z m-86 -9 c7 -10 -45 -22
-59 -13 -5 3 1 9 15 13 36 10 38 10 44 0z m-144 -20 c0 -10 -42 -23 -49 -15
-7 6 20 24 37 24 6 0 12 -4 12 -9z m-160 -41 c0 -5 -2 -10 -4 -10 -3 0 -8 5
-11 10 -3 6 -1 10 4 10 6 0 11 -4 11 -10z m-6610 -14 c0 -3 -4 -8 -10 -11 -5
-3 -10 -1 -10 4 0 6 5 11 10 11 6 0 10 -2 10 -4z m160 -62 c0 -7 -9 -19 -21
-28 -17 -12 -20 -20 -14 -48 l7 -33 -31 36 c-33 40 -61 48 -226 65 -68 7 -69
8 -30 15 55 10 229 14 243 5 6 -4 19 2 29 12 16 17 19 18 31 4 6 -9 12 -21 12
-28z m-745 -44 c4 -22 3 -54 -1 -72 -8 -32 -9 -30 -14 22 -4 30 -10 69 -15 85
-7 27 -7 29 8 17 8 -7 18 -31 22 -52z m1404 34 c46 -3 93 -10 105 -16 20 -11
19 -12 -13 -19 -19 -4 -39 -5 -45 -3 -24 9 -202 10 -226 2 -23 -9 -23 -8 -7
10 9 10 14 22 10 27 -5 4 2 4 14 1 12 -4 24 -2 28 4 4 7 17 9 29 5 11 -3 59
-9 105 -11z m-1669 -38 c0 -3 -4 -8 -10 -11 -5 -3 -10 -1 -10 4 0 6 5 11 10
11 6 0 10 -2 10 -4z m81 -19 c-13 -13 -26 -3 -16 12 3 6 11 8 17 5 6 -4 6 -10
-1 -17z m99 3 c0 -5 -4 -10 -10 -10 -5 0 -10 5 -10 10 0 6 5 10 10 10 6 0 10
-4 10 -10z m370 -15 c0 -14 -4 -25 -10 -25 -5 0 -10 11 -10 25 0 14 5 25 10
25 6 0 10 -11 10 -25z m108 8 c-2 -10 -10 -18 -18 -18 -8 0 -16 8 -18 18 -2
12 3 17 18 17 15 0 20 -5 18 -17z m112 -8 c0 -27 -18 -33 -38 -13 -20 20 -14
38 13 38 20 0 25 -5 25 -25z m128 1 c2 -10 0 -22 -5 -27 -16 -16 -43 2 -43 28
0 20 4 24 22 21 13 -2 24 -11 26 -22z m693 14 c19 -11 27 -50 10 -50 -15 0
-41 30 -41 46 0 17 5 17 31 4z m147 -23 c2 -12 -3 -17 -17 -17 -12 0 -21 6
-21 13 0 31 32 34 38 4z m-238 -7 c0 -12 -28 -25 -36 -17 -9 9 6 27 22 27 8 0
14 -5 14 -10z m-1350 -85 c0 -8 -6 -15 -14 -15 -17 0 -28 14 -19 24 12 12 33
6 33 -9z m559 -9 c21 -25 -9 -31 -32 -7 l-21 21 21 0 c11 0 26 -6 32 -14z
m122 4 c20 -11 26 -30 10 -30 -5 0 -22 5 -38 11 -22 8 -24 12 -13 19 19 12 17
12 41 0z m-251 -10 c0 -5 -4 -10 -10 -10 -5 0 -10 5 -10 10 0 6 5 10 10 10 6
0 10 -4 10 -10z m945 -10 c-21 -23 -45 -26 -45 -6 0 16 15 24 44 25 18 1 18 0
1 -19z m160 10 c7 -12 -34 -30 -53 -23 -9 4 -8 9 5 19 22 16 40 18 48 4z
m-115 -10 c0 -5 -2 -10 -4 -10 -3 0 -8 5 -11 10 -3 6 -1 10 4 10 6 0 11 -4 11
-10z m250 -10 c0 -12 -28 -20 -46 -13 -15 6 -15 7 1 19 17 13 45 9 45 -6z
m640 0 c0 -5 -4 -10 -10 -10 -5 0 -10 5 -10 10 0 6 5 10 10 10 6 0 10 -4 10
-10z m2686 -74 c26 -15 27 -16 4 -10 -30 8 -100 42 -100 49 0 6 56 -17 96 -39z
m-4536 -16 c0 -5 -4 -10 -9 -10 -6 0 -13 5 -16 10 -3 6 1 10 9 10 9 0 16 -4
16 -10z m126 -5 c18 -14 18 -14 -8 -15 -27 0 -43 12 -31 24 9 9 17 8 39 -9z
m1828 9 c22 -9 20 -34 -3 -34 -19 0 -35 23 -24 34 8 7 8 7 27 0z m-1684 -19
c0 -9 -9 -15 -25 -15 -24 0 -32 10 -18 23 12 13 43 7 43 -8z m690 -15 c-9 -6
-19 -5 -25 1 -6 6 -5 13 5 19 9 6 19 5 25 -1 6 -6 5 -13 -5 -19z m680 9 c0 -5
-9 -9 -20 -9 -22 0 -27 16 -7 23 15 5 27 -1 27 -14z m120 11 c0 -5 -7 -10 -15
-10 -8 0 -15 5 -15 10 0 6 7 10 15 10 8 0 15 -4 15 -10z m359 1 c7 -5 10 -14
7 -20 -8 -13 -46 3 -46 19 0 12 20 13 39 1z m-319 -11 c0 -5 -2 -10 -4 -10 -3
0 -8 5 -11 10 -3 6 -1 10 4 10 6 0 11 -4 11 -10z m-645 -9 c3 -5 1 -13 -5 -16
-15 -9 -43 3 -35 15 8 13 32 13 40 1z m900 -114 c18 -4 17 -5 -3 -6 -30 -1
-64 17 -56 30 4 7 12 5 22 -4 10 -8 26 -17 37 -20z m-184 6 c13 -15 12 -15
-11 -3 -34 17 -36 20 -18 20 9 0 22 -7 29 -17z m367 0 c2 -8 -6 -13 -22 -13
-26 0 -40 12 -29 24 11 11 46 2 51 -11z m-538 3 c0 -2 -13 -6 -30 -8 -16 -3
-30 -1 -30 4 0 4 14 8 30 8 17 0 30 -2 30 -4z m440 -130 c0 -3 -4 -8 -10 -11
-5 -3 -10 -1 -10 4 0 6 5 11 10 11 6 0 10 -2 10 -4z m-1395 -316 c3 -5 1 -10
-4 -10 -6 0 -11 5 -11 10 0 6 2 10 4 10 3 0 8 -4 11 -10z m-55 -150 c0 -5 -2
-10 -4 -10 -3 0 -8 5 -11 10 -3 6 -1 10 4 10 6 0 11 -4 11 -10z"/>
<path d="M5880 3935 c-10 -12 -10 -15 3 -15 19 0 31 16 18 24 -5 3 -14 -1 -21
-9z"/>
<path d="M3793 4167 c-48 -52 -83 -139 -83 -208 0 -148 138 -258 285 -227 62
13 134 81 153 144 19 64 16 161 -5 173 -15 9 -13 10 12 11 34 0 63 15 52 27
-4 4 -17 2 -28 -5 -11 -7 -24 -10 -29 -7 -13 8 -13 48 1 62 8 8 8 13 0 18 -6
3 -32 -12 -58 -34 -45 -40 -73 -52 -73 -30 0 17 -21 -1 -30 -27 -12 -30 -39
-42 -51 -23 -6 8 -8 31 -5 52 3 26 0 40 -11 45 -25 15 12 35 73 40 55 5 70 16
34 27 -33 11 -125 -14 -174 -46 -70 -47 -112 -129 -66 -129 13 0 20 7 20 19 0
10 7 24 15 31 12 10 16 9 21 -4 10 -26 24 -18 24 14 0 20 5 30 15 30 8 0 15
-3 16 -7 9 -86 9 -103 -5 -103 -8 0 -17 -6 -19 -12 -4 -10 -7 -10 -15 0 -7 10
-11 10 -22 -3 -13 -16 -15 -15 -27 1 -12 16 -13 16 -20 -2 -4 -10 -13 -24 -21
-30 -17 -12 0 -30 18 -19 6 4 17 2 24 -4 10 -9 15 -8 20 5 4 10 13 14 26 11
13 -3 20 0 20 9 0 12 26 19 53 15 4 -1 18 8 30 19 12 12 34 27 49 35 27 13 28
12 28 -10 0 -35 -10 -54 -26 -48 -7 3 -17 -2 -20 -11 -3 -9 -11 -16 -16 -16
-6 0 -19 -11 -30 -25 -11 -14 -24 -25 -30 -25 -20 0 -87 -35 -88 -45 0 -19 31
-55 60 -70 64 -33 142 -10 189 56 35 48 39 73 14 88 -10 6 -13 11 -7 11 5 0
20 9 32 20 l22 21 0 -41 c0 -51 -28 -108 -75 -148 -43 -38 -69 -46 -139 -40
-73 6 -140 54 -179 128 -25 48 -28 62 -22 110 9 71 34 128 80 179 21 22 35 41
32 41 -2 0 -22 -19 -44 -43z m313 -135 c-15 -15 -16 -14 -16 9 0 14 3 29 7 33
4 3 11 -1 16 -10 6 -11 4 -21 -7 -32z"/>
<path d="M4251 3955 c-1 -25 -55 -140 -70 -149 -6 -4 -11 -13 -11 -19 1 -7 14
3 30 22 33 38 64 121 57 148 -4 15 -5 15 -6 -2z"/>
</g>
</svg>
