<?xml version="1.0" standalone="no"?>
<!DOCTYPE svg PUBLIC "-//W3C//DTD SVG 20010904//EN"
 "http://www.w3.org/TR/2001/REC-SVG-20010904/DTD/svg10.dtd">
<svg version="1.0" xmlns="http://www.w3.org/2000/svg"
 width="1080.000000pt" height="780.000000pt" viewBox="0 0 1080.000000 780.000000"
 preserveAspectRatio="xMidYMid meet">

<g transform="translate(0.000000,780.000000) scale(0.100000,-0.100000)"
fill="#000000" stroke="none">
<path d="M3235 6870 c-33 -11 -94 -24 -135 -30 -136 -19 -196 -63 -287 -210
-22 -36 -69 -111 -105 -168 -36 -57 -90 -150 -119 -208 l-54 -105 0 -117 c0
-108 3 -126 37 -232 41 -126 47 -137 204 -350 58 -80 142 -197 187 -260 98
-138 288 -375 386 -483 39 -42 71 -82 71 -87 0 -15 -15 -20 -152 -45 -73 -13
-171 -31 -218 -40 -47 -8 -143 -22 -215 -30 -160 -18 -693 -39 -795 -31 -41 3
-120 7 -176 7 -156 2 -185 -24 -199 -173 -5 -63 -12 -85 -36 -117 -16 -22 -39
-47 -52 -56 -33 -21 -193 -203 -239 -273 -159 -234 -224 -507 -166 -700 l21
-73 -69 -68 c-143 -140 -224 -341 -224 -556 1 -295 158 -617 397 -815 172
-143 306 -205 504 -237 103 -16 185 -18 829 -17 529 1 788 6 995 18 154 9 298
19 320 21 22 3 202 19 400 35 428 36 995 60 1410 60 365 0 1089 16 1355 30
978 52 1141 66 1704 151 614 92 932 214 1282 494 133 107 222 236 259 375 17
63 19 205 4 269 -14 61 -62 154 -121 236 -36 49 -54 85 -61 119 -12 69 -59
157 -103 196 l-38 33 -115 -7 c-64 -3 -213 -11 -331 -16 -118 -6 -253 -15
-300 -20 -141 -15 -417 -33 -432 -27 -10 3 -18 40 -26 120 -13 128 -66 328
-110 417 -35 72 -79 93 -249 124 -95 18 -144 32 -184 54 -59 33 -133 62 -374
147 -263 93 -470 199 -760 390 -201 133 -357 259 -735 594 -302 267 -365 327
-469 444 -271 308 -372 377 -476 327 -42 -20 -45 -25 -45 -59 0 -50 -37 -98
-171 -222 -170 -157 -418 -346 -569 -434 -35 -20 17 29 89 85 42 33 89 75 104
95 l28 36 -52 47 c-29 26 -74 74 -102 107 -27 33 -131 148 -231 255 -101 107
-210 227 -243 265 -107 124 -321 347 -436 454 -194 180 -292 241 -424 267 -95
18 -115 17 -188 -6z m-178 -206 c9 -25 -11 -49 -38 -46 -35 5 -41 15 -23 40
18 26 52 29 61 6z m97 -80 c-1 -16 -5 -52 -9 -81 l-8 -51 39 -25 c53 -33 79
-62 429 -472 154 -180 328 -404 460 -595 33 -47 100 -139 149 -205 100 -135
114 -161 99 -176 -5 -5 -36 -21 -68 -33 l-57 -24 -32 36 c-17 19 -49 48 -70
64 -22 16 -123 115 -225 221 -102 106 -259 268 -349 361 -169 175 -286 309
-339 386 -37 55 -72 160 -83 244 -12 99 3 329 24 361 22 33 41 27 40 -11z
m-387 -350 c-13 -33 -27 -72 -31 -87 -11 -47 -9 -230 4 -278 20 -75 118 -259
192 -359 39 -52 74 -106 79 -119 14 -36 78 -140 121 -195 21 -27 36 -52 32
-55 -3 -3 -10 2 -15 12 -6 10 -63 84 -126 165 -273 345 -325 451 -327 662 -1
144 10 201 52 264 20 31 38 54 40 52 2 -2 -8 -30 -21 -62z m2643 -521 c0 -23
-95 -124 -163 -174 -143 -104 -128 -71 34 77 105 97 129 114 129 97z m170
-327 c0 -11 -71 -78 -132 -125 -120 -91 -68 -19 57 81 55 44 75 55 75 44z
m-1619 -381 c80 -41 114 -65 92 -65 -4 0 -44 12 -88 26 -91 30 -143 64 -183
120 -50 69 -43 75 25 19 37 -30 106 -75 154 -100z m554 120 c-44 -38 -139
-105 -150 -105 -15 0 164 138 180 139 6 0 -8 -15 -30 -34z m1238 -16 c3 -12 1
-32 -4 -46 -5 -13 -9 -34 -9 -45 0 -30 -47 -89 -65 -82 -8 4 -15 16 -15 29 0
19 4 22 21 18 27 -8 43 16 24 37 -9 10 -11 20 -5 30 14 22 12 27 -10 33 -27 7
-25 25 3 37 36 14 54 11 60 -11z m-148 1 c3 -5 -3 -10 -14 -10 -12 0 -21 5
-21 10 0 6 6 10 14 10 8 0 18 -4 21 -10z m-2375 -45 l25 -30 -27 24 c-16 14
-28 29 -28 34 0 6 1 8 3 6 1 -2 13 -17 27 -34z m2406 -32 c-11 -11 -36 7 -36
26 0 29 24 32 34 4 4 -13 6 -27 2 -30z m154 -78 l23 -25 -31 0 c-24 0 -32 4
-32 18 0 15 8 32 15 32 1 0 12 -11 25 -25z m-2469 -2 c13 -16 12 -17 -3 -4
-17 13 -22 21 -14 21 2 0 10 -8 17 -17z m2643 -39 c10 -25 7 -31 -14 -37 -22
-6 -29 17 -9 29 8 4 7 9 -2 15 -11 7 -11 9 2 9 9 0 20 -7 23 -16z m-44 -30 c0
-8 -4 -12 -10 -9 -5 3 -10 13 -10 21 0 8 5 12 10 9 6 -3 10 -13 10 -21z
m-1710 1 c0 -8 -2 -15 -4 -15 -2 0 -6 7 -10 15 -3 8 -1 15 4 15 6 0 10 -7 10
-15z m1660 5 c0 -5 -9 -10 -21 -10 -11 0 -17 5 -14 10 3 6 13 10 21 10 8 0 14
-4 14 -10z m-1844 -56 c43 -21 56 -39 22 -31 -14 4 -45 15 -69 26 -41 18 -42
20 -16 20 16 1 44 -6 63 -15z m1899 6 c7 -11 -42 -33 -55 -25 -5 3 -7 12 -3
20 6 17 49 20 58 5z m-65 -65 c0 -8 -10 -21 -22 -29 -42 -30 -51 -15 -17 28
21 26 39 27 39 1z m-1814 -10 c2 -5 -11 -17 -29 -25 -25 -12 -33 -22 -35 -47
-5 -46 26 -63 96 -54 29 4 55 4 58 -1 8 -12 7 -12 -43 -27 -24 -6 -43 -16 -43
-20 0 -5 -19 -7 -41 -4 l-42 6 5 -71 c3 -40 3 -72 -1 -72 -3 0 -22 29 -41 65
-19 36 -38 65 -41 65 -4 0 -27 -12 -53 -26 -50 -28 -54 -26 -31 14 31 57 62
140 56 150 -13 21 -56 31 -80 18 -82 -44 -81 -159 2 -281 l21 -30 -28 25 c-75
67 -93 185 -41 260 16 23 37 46 48 52 24 12 97 2 123 -17 28 -21 44 -18 66 11
20 25 68 31 74 9z m1916 -96 c2 -6 19 -14 38 -18 26 -5 36 -13 38 -29 2 -13 0
-28 -5 -35 -10 -15 -9 -154 2 -184 5 -18 4 -23 -8 -23 -9 0 -19 9 -22 20 -3
11 -10 20 -14 20 -4 0 -13 11 -19 25 -9 20 -19 25 -46 25 -42 0 -60 21 -52 60
4 24 2 30 -13 30 -23 0 -33 10 -22 24 5 6 11 22 13 36 4 31 30 33 43 2 14 -32
49 -26 53 11 2 15 -1 27 -7 27 -6 0 -11 5 -11 10 0 13 27 13 32 -1z m-162 -25
c0 -2 -7 -4 -15 -4 -8 0 -15 4 -15 10 0 5 7 7 15 4 8 -4 15 -8 15 -10z m637
-284 c26 0 31 -21 8 -44 -25 -24 -18 -39 15 -33 23 5 33 1 50 -20 18 -23 23
-25 43 -15 12 7 36 13 52 15 17 2 36 6 42 10 11 7 103 -76 103 -92 0 -5 13
-11 30 -14 16 -4 48 -23 71 -44 25 -22 51 -37 67 -38 17 0 30 -8 38 -23 6 -13
17 -29 23 -35 6 -6 11 -21 11 -32 0 -25 40 -51 64 -42 9 4 19 0 23 -7 5 -7 15
-16 23 -20 72 -34 68 -37 -35 -30 -76 4 -112 12 -151 30 -28 13 -67 24 -86 24
-23 0 -81 23 -174 70 -76 38 -145 70 -152 70 -46 0 -132 72 -132 110 0 14 -5
31 -11 37 -16 16 -1 71 22 83 10 6 19 15 19 21 0 6 -4 7 -10 4 -11 -7 -14 38
-3 49 4 4 12 -2 17 -13 5 -13 18 -21 33 -21z m-1187 -210 c85 -32 170 -61 188
-65 31 -6 39 -15 26 -28 -3 -3 -43 8 -88 25 -44 17 -112 41 -151 53 -38 13
-101 35 -140 50 -38 15 -80 29 -92 32 -13 3 -23 9 -23 12 0 14 125 -22 280
-79z m-2545 50 c197 -21 502 -72 630 -105 188 -48 272 -82 314 -125 20 -20 83
-65 140 -100 58 -34 114 -71 125 -81 11 -11 27 -19 36 -19 10 0 29 -11 44 -25
15 -14 35 -25 44 -25 10 0 34 -11 54 -25 20 -14 48 -25 62 -25 28 0 76 -42 76
-66 0 -9 9 -18 19 -21 19 -5 19 -6 3 -23 -9 -9 -33 -22 -52 -29 -19 -6 -44
-21 -56 -32 -19 -18 -43 -23 -151 -31 -138 -11 -709 -4 -983 11 -91 6 -266 13
-390 16 -124 3 -333 10 -464 15 -230 9 -240 9 -271 -10 -39 -24 -67 -25 -129
-4 -54 19 -118 14 -145 -10 -22 -20 -81 -21 -127 -1 -19 8 -37 14 -40 14 -3
-1 -24 14 -46 31 -38 31 -40 35 -34 73 18 109 160 312 330 471 59 55 109 102
112 105 3 3 65 13 137 23 106 14 184 16 397 13 146 -2 310 -9 365 -15z m2910
-210 c17 -9 98 -46 180 -82 83 -37 246 -109 363 -162 117 -52 241 -104 275
-115 124 -40 128 -42 70 -37 -70 6 -223 69 -563 229 -313 147 -390 185 -390
192 0 6 28 -5 65 -25z m2688 -67 c-7 -2 -21 -2 -30 0 -10 3 -4 5 12 5 17 0 24
-2 18 -5z m-3733 -38 c508 -136 877 -282 1290 -509 223 -123 693 -359 855
-430 355 -156 690 -235 1081 -257 269 -15 470 -7 774 31 285 35 377 50 600
101 47 10 95 19 106 19 58 0 478 156 643 239 68 35 80 44 73 59 -10 19 -5 43
12 54 18 12 27 -2 25 -40 -1 -32 6 -45 56 -97 41 -42 72 -88 104 -155 42 -88
46 -101 46 -171 -1 -62 -6 -86 -29 -132 -28 -57 -39 -67 -52 -45 -8 13 -34
-17 -34 -41 0 -9 -5 -23 -10 -31 -8 -13 -11 -12 -24 5 -14 17 -17 18 -26 5 -5
-8 -10 -23 -10 -32 0 -28 -22 -33 -41 -9 l-18 22 -7 -28 c-4 -15 -11 -36 -16
-46 -8 -16 -11 -15 -33 10 l-24 28 -1 -26 c0 -30 -27 -99 -38 -99 -4 0 -14 23
-22 52 -20 68 -36 71 -49 8 -14 -66 -38 -123 -50 -116 -4 3 -14 26 -20 52 -13
53 -39 96 -52 88 -5 -3 -9 -34 -9 -69 0 -129 -36 -150 -84 -50 -26 56 -41 74
-58 75 -12 0 -10 -42 3 -79 12 -34 4 -101 -11 -101 -5 0 -27 22 -47 50 -57 74
-117 82 -91 12 17 -44 -4 -84 -48 -93 -17 -3 -42 -13 -55 -22 -32 -23 -47 -21
-51 6 -2 16 -10 22 -28 22 -14 0 -38 9 -55 20 -35 24 -94 25 -149 1 -32 -13
-36 -18 -26 -31 7 -8 16 -13 20 -10 4 2 23 0 42 -5 27 -8 39 -19 53 -50 10
-22 15 -43 12 -46 -3 -3 -39 0 -79 6 -55 10 -78 18 -94 37 -11 13 -42 32 -70
42 -39 15 -49 24 -50 43 0 38 -29 40 -46 3 -6 -14 -17 -25 -25 -25 -7 0 -13
-7 -13 -15 0 -8 -7 -15 -15 -15 -14 0 -19 -14 -18 -47 1 -38 -109 -10 -156 41
-28 30 -66 34 -80 8 -11 -21 -3 -69 18 -102 15 -23 15 -24 -4 -15 -11 4 -34 9
-51 9 -33 1 -77 33 -112 84 -27 37 -51 41 -77 12 -17 -19 -18 -25 -6 -63 7
-23 15 -55 18 -70 5 -28 5 -28 -33 -21 -22 3 -61 15 -89 25 -27 11 -58 19 -67
19 -23 0 -24 37 -2 68 25 36 7 42 -50 17 l-54 -24 -41 19 c-22 11 -43 24 -46
30 -8 12 -55 13 -55 1 0 -4 15 -28 33 -52 19 -24 39 -54 46 -66 6 -13 26 -26
43 -31 32 -8 51 -32 26 -32 -7 0 -44 16 -82 36 -41 21 -91 38 -120 41 -78 8
-117 22 -170 64 -52 42 -116 55 -116 24 0 -8 37 -52 83 -96 92 -91 87 -93 -58
-23 -50 24 -97 44 -104 44 -8 0 -29 -9 -47 -21 -50 -30 -62 -19 -25 23 33 37
41 78 16 78 -8 0 -31 -15 -51 -32 -36 -32 -40 -33 -118 -31 -70 2 -90 7 -148
37 -54 28 -79 35 -130 36 -1422 21 -1801 22 -2258 6 -261 -9 -554 -21 -650
-26 -698 -38 -843 -43 -1145 -36 -384 8 -751 33 -825 55 -67 21 -73 17 -68
-39 5 -45 4 -48 -14 -39 -10 5 -25 21 -34 35 -16 23 -15 26 1 44 10 11 16 22
14 24 -2 2 -49 -23 -104 -56 -127 -76 -231 -126 -283 -134 -36 -6 -44 -3 -77
28 -33 30 -39 42 -42 89 -4 49 9 105 42 182 5 12 3 17 -8 17 -9 0 -19 -9 -22
-20 -7 -23 -14 -24 -36 -7 -18 14 -49 70 -49 88 0 25 -34 49 -92 65 -50 14
-64 23 -83 55 -14 20 -29 40 -35 44 -17 10 -28 -3 -23 -30 4 -17 16 -28 39
-37 19 -7 33 -15 31 -18 -15 -28 -43 -70 -47 -70 -3 0 -16 26 -30 58 -33 76
-39 191 -15 270 33 107 115 252 181 318 62 62 184 134 229 134 12 0 50 -12 86
-26 53 -22 79 -27 147 -26 57 1 89 6 105 17 12 8 36 15 53 15 18 0 67 6 110
14 44 8 102 17 129 20 28 3 89 10 136 16 48 5 151 11 228 12 78 1 134 6 124
10 -11 4 -1 7 27 7 248 4 548 19 568 30 30 15 239 23 599 22 362 -1 414 -4
495 -22 26 -6 52 -8 58 -4 5 3 25 2 43 -4 17 -6 71 -13 120 -17 49 -3 93 -11
100 -18 7 -7 35 -16 62 -19 28 -3 95 -15 150 -26 55 -10 103 -17 107 -15 4 3
17 0 28 -6 11 -6 37 -12 57 -14 21 -2 61 -9 88 -14 28 -6 118 -18 200 -27 83
-9 170 -21 195 -27 25 -6 83 -14 130 -19 220 -22 370 -54 370 -79 0 -12 -3
-12 -110 0 -139 15 -597 40 -745 39 -49 0 -113 3 -142 7 -32 4 -58 2 -70 -6
-17 -10 -16 -11 4 -7 12 3 70 -2 130 -9 229 -30 541 -58 768 -69 72 -4 171
-11 220 -16 50 -5 117 -12 150 -15 305 -26 411 -37 419 -42 5 -3 26 -9 45 -13
74 -16 127 -30 146 -38 27 -12 165 -28 165 -20 0 11 -74 45 -170 78 -181 64
-419 174 -742 343 -103 54 -238 123 -300 154 -62 30 -134 66 -159 80 -26 13
-53 24 -61 24 -8 0 -54 20 -104 44 -49 25 -127 59 -174 76 -88 32 -312 121
-365 145 -42 19 -261 96 -381 134 -150 48 -202 86 -159 117 29 21 110 17 215
-11z m3901 9 c21 -4 26 -10 22 -25 -5 -18 -6 -18 -18 -2 -8 10 -28 17 -56 19
-24 1 -45 7 -47 14 -4 11 11 10 99 -6z m-1136 -54 c3 -5 2 -10 -4 -10 -5 0
-13 5 -16 10 -3 6 -2 10 4 10 5 0 13 -4 16 -10z m941 -38 c4 -20 2 -89 -5
-152 -17 -161 -35 -210 -60 -162 -10 20 13 295 29 337 13 34 27 24 36 -23z
m129 18 c22 -24 41 -26 49 -3 5 11 10 13 17 6 13 -13 -5 -253 -21 -283 -9 -17
-14 -19 -26 -9 -12 10 -21 8 -46 -11 -25 -18 -32 -20 -39 -9 -19 29 19 329 41
329 4 0 15 -9 25 -20z m-927 -27 c19 -8 42 -11 53 -8 12 4 39 -6 77 -30 32
-20 90 -47 128 -60 112 -39 93 -63 -22 -26 -68 22 -264 108 -278 122 -6 5 -18
9 -28 9 -10 0 -18 5 -18 10 0 12 36 4 88 -17z m-6133 -485 c-8 -21 -19 -38
-24 -38 -17 0 -23 40 -10 78 18 56 21 58 36 26 12 -25 12 -34 -2 -66z m-103
-995 c21 -25 35 -70 43 -130 7 -68 -6 -68 -44 -1 -52 91 -52 192 1 131z m-146
-28 c7 -19 14 -51 14 -72 l-1 -38 -19 35 c-24 47 -36 110 -21 110 7 0 19 -16
27 -35z m5598 -257 c16 -26 -13 -49 -68 -55 -42 -5 -46 -4 -46 16 0 11 9 30
21 42 24 24 77 23 93 -3z m201 3 c3 -10 24 -47 46 -81 22 -34 38 -65 34 -68
-10 -10 -119 72 -142 107 -18 26 -20 37 -12 47 17 21 67 18 74 -5z m-4554 -6
c30 -16 49 -49 49 -87 0 -18 -4 -20 -32 -14 -34 6 -88 56 -88 81 0 8 8 19 18
24 22 13 18 14 53 -4z m-203 -17 c13 -13 17 -58 4 -58 -18 0 -52 33 -52 51 0
22 29 26 48 7z m552 -38 c13 -25 3 -70 -17 -70 -17 0 -63 48 -63 66 0 28 65
32 80 4z m304 4 c29 -28 15 -61 -22 -50 -21 7 -45 43 -37 56 9 15 42 12 59 -6z"/>
<path d="M4823 2933 c9 -2 23 -2 30 0 6 3 -1 5 -18 5 -16 0 -22 -2 -12 -5z"/>
<path d="M4530 2523 c-243 -6 -606 -24 -760 -38 -91 -9 -226 -20 -300 -26
-156 -12 -189 -23 -50 -16 548 25 1500 39 1864 27 421 -14 1075 -21 1043 -11
-28 10 -40 11 -362 36 -405 31 -910 41 -1435 28z"/>
<path d="M3253 2433 c9 -2 25 -2 35 0 9 3 1 5 -18 5 -19 0 -27 -2 -17 -5z"/>
<path d="M1470 2314 c17 -15 34 -24 37 -20 10 10 -28 46 -49 46 -16 0 -14 -5
12 -26z"/>
<path d="M2000 2296 c-75 -23 -155 -60 -166 -77 -10 -17 36 -9 98 16 34 14 68
25 76 25 19 0 92 41 92 52 0 12 -17 9 -100 -16z"/>
<path d="M1511 2244 c-6 -14 -11 -38 -11 -53 0 -31 40 -81 65 -81 19 0 123 34
188 63 48 20 48 21 25 33 -20 11 -26 10 -43 -5 -59 -54 -101 -54 -149 -1 -20
22 -36 44 -36 49 0 21 -28 18 -39 -5z"/>
<path d="M5300 2191 c0 -4 11 -6 25 -3 14 2 25 6 25 8 0 2 -11 4 -25 4 -14 0
-25 -4 -25 -9z"/>
</g>
</svg>
