<?xml version="1.0" standalone="no"?>
<!DOCTYPE svg PUBLIC "-//W3C//DTD SVG 20010904//EN"
 "http://www.w3.org/TR/2001/REC-SVG-20010904/DTD/svg10.dtd">
<svg version="1.0" xmlns="http://www.w3.org/2000/svg"
 width="1080.000000pt" height="810.000000pt" viewBox="0 0 1080.000000 810.000000"
 preserveAspectRatio="xMidYMid meet">

<g transform="translate(0.000000,810.000000) scale(0.100000,-0.100000)"
fill="#000000" stroke="none">
<path d="M3270 7120 c-25 -9 -84 -36 -133 -59 -48 -22 -94 -41 -102 -41 -12 0
-56 -19 -115 -49 -8 -5 -18 -23 -21 -42 -3 -19 -11 -44 -17 -56 -7 -12 -12
-37 -12 -57 0 -19 -4 -38 -10 -41 -5 -3 -24 -27 -41 -53 l-32 -47 39 38 c55
52 65 46 15 -8 -58 -63 -114 -152 -152 -243 -44 -107 -51 -227 -19 -366 23
-102 21 -135 -5 -72 -36 85 -47 158 -42 266 2 58 7 114 11 125 3 11 -4 0 -16
-25 -19 -39 -23 -61 -23 -160 0 -147 27 -233 132 -427 136 -249 281 -452 537
-752 87 -101 154 -187 149 -192 -12 -12 -269 -67 -443 -95 -252 -39 -639 -73
-845 -74 -100 0 -180 14 -170 29 11 19 -154 28 -173 9 -15 -15 -16 -74 -2 -83
5 -3 10 -29 10 -56 0 -31 4 -48 10 -44 6 3 10 22 10 42 l0 36 114 -7 c62 -4
140 -11 172 -17 33 -5 88 -14 123 -20 36 -5 72 -15 80 -23 9 -7 36 -18 61 -24
60 -16 321 -32 495 -32 77 1 181 -4 230 -9 50 -5 133 -13 185 -16 52 -4 147
-16 210 -27 420 -75 482 -79 730 -39 145 24 199 20 280 -20 44 -21 176 -56
260 -69 119 -17 513 -124 680 -185 68 -25 368 -143 430 -169 30 -13 80 -34
110 -46 59 -24 185 -81 343 -154 54 -25 100 -46 102 -46 2 0 30 -12 62 -26 85
-37 91 -39 183 -72 47 -16 137 -49 200 -72 63 -23 121 -44 130 -46 123 -32
150 -41 164 -53 10 -8 25 -16 34 -17 43 -5 126 -25 136 -32 16 -13 90 -32 120
-32 14 0 26 -4 26 -9 0 -11 20 -18 65 -26 17 -2 50 -9 75 -16 25 -6 60 -12 78
-14 18 -1 35 -5 39 -9 3 -3 17 -6 31 -6 13 0 43 -13 66 -29 35 -23 57 -29 119
-33 43 -3 77 -2 77 2 0 4 9 10 20 13 11 3 20 14 20 25 0 11 7 35 15 53 l14 34
1 -71 c0 -57 4 -77 21 -98 36 -45 100 -25 118 37 l9 32 13 -32 13 -33 158 0
c110 0 159 -4 164 -12 4 -6 9 -57 12 -113 3 -79 1 -103 -10 -112 -17 -15 -264
-39 -478 -48 -288 -12 -591 24 -932 109 -315 79 -768 277 -1173 513 -146 85
-477 245 -650 314 -481 192 -608 229 -1070 315 -132 25 -265 51 -295 59 -30 8
-140 28 -245 45 -104 17 -271 46 -370 65 -203 38 -330 56 -590 84 -345 37
-446 44 -574 37 -69 -3 -198 -9 -286 -12 l-160 -6 -41 -42 c-22 -22 -63 -59
-90 -81 -72 -57 -149 -165 -244 -340 -76 -140 -89 -173 -120 -282 -37 -132
-46 -322 -14 -290 4 4 10 48 15 99 10 124 22 171 74 304 50 127 78 187 103
213 9 10 44 55 76 100 60 82 153 168 215 197 48 23 144 33 306 33 149 1 351
-21 369 -39 13 -14 -39 -60 -68 -60 -10 0 -30 -10 -44 -22 -49 -44 -102 -103
-102 -115 0 -6 -6 -13 -12 -16 -34 -12 20 -22 214 -38 242 -20 291 -26 368
-41 125 -24 81 -38 -120 -38 -187 0 -322 -18 -390 -52 -25 -12 -48 -21 -52
-20 -4 1 -16 -10 -26 -23 -11 -14 -24 -25 -30 -25 -6 0 -16 -13 -24 -30 -7
-16 -16 -30 -20 -30 -5 0 -8 -7 -8 -15 0 -8 -6 -15 -14 -15 -23 0 -50 -79 -47
-135 2 -27 4 -51 5 -52 16 -17 535 -69 821 -83 387 -18 736 -54 938 -96 88
-18 117 -18 156 2 30 15 34 15 50 0 15 -13 47 -16 199 -16 115 0 182 4 182 10
0 6 25 10 55 10 30 0 55 5 55 10 0 6 -10 10 -22 10 -21 0 -21 0 -1 17 11 10
22 26 26 35 3 9 18 18 32 20 l27 3 -25 28 c-22 22 -23 27 -9 27 16 1 16 1 0
11 -10 5 -18 21 -18 34 0 38 -11 55 -34 55 -13 0 -31 12 -44 30 -15 20 -27 27
-39 23 -10 -4 -14 -2 -10 4 4 6 -9 18 -28 27 -19 9 -35 21 -35 26 0 5 -12 13
-27 17 -16 3 -47 15 -71 25 -23 11 -46 17 -51 14 -5 -3 -11 2 -13 12 -4 14
-28 24 -94 39 -49 12 -107 25 -129 28 -104 16 -215 47 -215 60 0 8 -10 21 -22
30 -20 13 -21 17 -8 25 8 5 21 10 28 10 7 0 10 4 7 10 -3 6 -1 10 5 10 6 0 18
6 25 14 23 23 158 29 265 12 268 -43 581 -98 639 -112 103 -25 397 -112 491
-146 218 -78 645 -274 771 -354 172 -108 824 -446 964 -499 301 -114 511 -157
879 -177 192 -11 244 -10 435 6 255 21 404 38 601 72 362 62 498 108 930 315
204 98 219 103 290 107 83 4 120 26 120 68 0 21 -3 22 -25 14 -13 -5 -62 -8
-107 -8 -80 2 -87 0 -188 -46 -58 -27 -136 -61 -175 -76 -38 -15 -113 -48
-165 -73 -52 -24 -138 -58 -190 -75 -130 -42 -463 -114 -514 -110 -48 4 -58
26 -27 57 28 28 26 35 -6 47 l-28 11 40 10 c22 5 135 33 251 61 207 51 430
128 648 224 199 87 294 126 347 141 70 21 84 35 63 65 -25 36 -62 27 -164 -38
-36 -24 -329 -148 -475 -202 -204 -75 -385 -122 -550 -142 -178 -22 -165 -24
-165 28 0 26 6 51 15 60 8 8 15 19 15 24 0 5 9 12 20 15 11 3 23 13 27 24 20
52 74 121 104 132 21 7 161 11 421 11 428 0 421 -1 493 63 57 51 43 59 -97 59
-113 0 -209 -8 -433 -39 -129 -17 -352 -21 -398 -6 -27 8 -28 11 -32 83 -2 42
-17 143 -34 226 -39 202 -68 268 -86 197 -3 -16 -15 -46 -25 -68 -13 -28 -24
-93 -35 -220 -16 -171 -25 -215 -44 -215 -10 0 -21 35 -21 68 0 12 -4 22 -10
22 -6 0 -10 -42 -10 -105 0 -58 -2 -105 -4 -105 -3 0 -16 4 -31 10 -14 5 -92
12 -172 16 -81 3 -151 8 -156 11 -4 3 -5 74 -1 159 l7 153 -31 -8 c-17 -5 -33
-7 -36 -4 -9 10 -23 -39 -40 -147 -22 -138 -22 -137 -46 -115 -20 19 -92 38
-207 55 -34 5 -81 16 -105 24 -24 7 -67 16 -97 20 -30 3 -59 10 -65 16 -5 5
-21 10 -33 10 -13 0 -38 7 -56 17 -18 9 -43 18 -57 20 -14 2 -44 6 -68 9 -23
3 -45 10 -48 15 -3 5 -15 9 -27 9 -25 0 -272 64 -327 84 -19 8 -57 21 -85 29
-67 21 -165 55 -190 66 -11 4 -37 16 -58 25 -21 9 -43 16 -50 16 -15 0 -305
127 -347 151 -22 13 -23 14 -170 65 -74 25 -139 50 -144 55 -6 5 -18 9 -28 9
-10 0 -18 3 -18 8 0 10 -62 36 -132 57 -32 9 -58 21 -58 26 0 5 -18 18 -40 29
-23 12 -59 39 -81 61 -22 22 -51 44 -66 50 -18 7 -24 15 -20 29 3 12 0 20 -8
20 -13 0 -75 64 -75 78 0 5 -20 30 -45 56 -45 49 -47 61 -11 87 4 4 3 10 -3
14 -9 5 -9 10 0 21 9 11 8 14 -2 15 -8 0 -4 4 9 10 17 6 22 14 17 28 -3 10 1
23 10 31 8 7 15 19 15 26 0 8 8 14 18 14 14 0 15 2 2 10 -12 8 -11 10 8 10 26
0 30 20 5 21 -17 0 -17 1 -1 7 12 5 15 11 8 22 -5 9 -5 19 1 26 9 11 -15 71
-35 85 -12 9 2 29 20 29 22 0 17 17 -7 23 -20 5 -20 7 -5 22 21 22 20 42 -3
57 -15 9 -17 15 -9 25 8 10 6 13 -6 13 -18 0 -22 25 -6 35 15 9 12 25 -5 25
-9 0 -15 9 -15 25 0 15 -6 25 -15 25 -8 0 -18 12 -21 28 -12 50 -56 109 -91
121 -18 7 -33 19 -33 27 0 8 -8 14 -17 14 -9 0 -24 7 -34 16 -17 15 -19 15
-35 -1 -12 -11 -26 -15 -46 -11 -16 3 -46 0 -68 -8 -21 -7 -44 -10 -51 -5 -17
10 19 49 200 219 142 133 363 374 384 418 22 47 -6 34 -66 -30 -34 -37 -123
-115 -197 -174 -74 -59 -162 -131 -195 -159 -33 -29 -90 -77 -126 -106 -37
-30 -104 -86 -150 -124 -209 -175 -530 -395 -577 -395 -5 0 -65 57 -133 126
-132 134 -333 326 -595 567 -294 271 -391 402 -429 583 -52 245 30 491 200
599 28 18 70 39 93 47 24 8 44 19 45 24 4 17 -97 13 -143 -6z m-200 -321 c-37
-143 -41 -171 -41 -284 0 -228 54 -344 264 -565 111 -116 134 -144 115 -137
-23 8 -53 -16 -45 -37 4 -10 1 -19 -7 -22 -8 -3 -12 -13 -9 -23 9 -36 -52
-170 -88 -191 -5 -4 -11 -28 -14 -54 -3 -28 -18 -71 -36 -102 l-31 -55 -59 73
c-92 112 -298 424 -339 513 -93 201 -101 351 -27 532 22 55 161 286 196 327
25 29 133 118 138 113 2 -3 -6 -42 -17 -88z m1079 -1713 c1 -10 -167 167 -188
198 -7 12 32 -26 87 -84 56 -58 101 -109 101 -114z m-400 -23 c-39 -68 -4
-133 71 -133 40 0 156 36 257 80 148 64 1 -48 -179 -135 -110 -54 -165 -59
-203 -20 -20 19 -25 34 -25 77 0 56 19 99 68 150 34 37 39 29 11 -19z m1182
-171 c70 -37 108 -90 116 -163 4 -41 1 -64 -12 -88 -23 -46 -27 -34 -8 25 15
49 15 52 -7 100 -16 34 -24 44 -27 31 -4 -15 -10 -13 -43 17 -44 40 -107 60
-153 51 -46 -10 -107 -54 -125 -91 -28 -60 11 -153 78 -186 110 -54 121 -56
177 -33 41 17 52 13 33 -10 -43 -52 -144 -69 -215 -36 -85 40 -130 118 -119
211 19 165 163 246 305 172z m-1225 -174 l29 -33 -32 29 c-31 28 -38 36 -30
36 2 0 16 -15 33 -32z m119 -79 c42 -20 65 -24 143 -24 51 0 83 -3 70 -7 -36
-10 -129 -9 -168 2 -19 5 -53 21 -75 36 -46 29 -40 28 30 -7z"/>
<path d="M3395 7093 c-35 -18 -115 -93 -115 -108 0 -5 -28 -46 -60 -90 -67
-88 -92 -153 -111 -288 -9 -59 -9 -96 -2 -132 l11 -50 1 71 c1 83 14 158 36
210 l15 37 107 -109 c234 -239 321 -348 561 -700 71 -106 179 -254 239 -330
60 -77 142 -184 182 -239 41 -55 75 -102 77 -104 7 -8 66 23 83 45 11 13 21
24 24 24 17 0 370 263 397 295 11 13 10 19 -6 38 -19 22 -19 22 2 5 11 -10 28
-18 37 -18 14 0 57 44 57 59 0 9 -186 217 -375 417 -136 145 -278 306 -330
374 -85 112 -372 387 -502 482 -92 67 -217 128 -262 128 -20 -1 -49 -8 -66
-17z m932 -840 c83 -88 131 -148 98 -123 -35 26 -195 184 -195 192 0 22 30 1
97 -69z"/>
<path d="M3121 6404 c0 -11 3 -14 6 -6 3 7 2 16 -1 19 -3 4 -6 -2 -5 -13z"/>
<path d="M5905 5438 c-23 -27 -26 -39 -22 -76 11 -98 132 -158 194 -96 21 21
25 32 20 65 -15 115 -131 179 -192 107z"/>
<path d="M6145 4798 c-33 -19 -44 -41 -45 -88 0 -53 20 -86 64 -107 17 -8 43
-21 59 -29 32 -18 56 -12 97 23 26 21 30 32 30 73 0 54 -29 99 -81 125 -33 18
-96 19 -124 3z"/>
<path d="M6810 4700 c-58 -58 -21 -158 75 -201 49 -23 87 -24 125 -4 25 13 30
22 30 53 0 30 -9 48 -46 90 -72 82 -141 105 -184 62z"/>
<path d="M7574 4020 c-34 -13 -64 -59 -64 -97 0 -49 22 -85 68 -111 86 -48
177 -13 189 73 4 35 1 46 -23 74 -30 35 -95 71 -129 70 -11 0 -30 -4 -41 -9z"/>
<path d="M9905 3424 c-434 -181 -702 -284 -739 -284 -12 0 -39 -9 -61 -19
l-40 -19 45 6 c25 3 83 16 130 29 205 57 258 73 300 89 25 9 92 33 150 54 112
40 299 114 340 136 14 7 26 22 28 33 5 32 -29 27 -153 -25z"/>
<path d="M2270 3433 c19 -3 39 -9 45 -14 5 -5 -51 -9 -148 -9 -147 0 -161 -2
-224 -27 -65 -26 -66 -27 -38 -35 26 -7 71 -14 222 -33 21 -3 69 -9 106 -14
38 -5 77 -7 87 -4 10 3 21 0 24 -5 3 -6 -2 -8 -13 -5 -10 3 -22 0 -25 -6 -4
-6 -16 -7 -29 -3 -12 4 -52 7 -88 7 -65 -1 -99 -16 -99 -44 0 -6 -13 -11 -30
-11 -25 0 -30 -4 -30 -25 0 -16 -6 -25 -15 -25 -10 0 -15 -10 -15 -30 0 -32
-14 -40 -24 -15 -3 8 -10 15 -16 15 -19 0 -10 -24 17 -47 23 -20 24 -25 12
-36 -20 -16 -14 -147 6 -147 8 0 15 -10 17 -22 2 -13 9 -24 16 -24 6 -1 17 -2
22 -3 6 0 10 -14 10 -31 0 -23 4 -30 20 -30 17 0 18 4 10 25 -7 19 -6 25 4 25
8 0 16 -16 20 -40 6 -39 7 -40 46 -40 22 0 40 -4 40 -10 0 -6 53 -10 140 -10
87 0 140 4 140 10 0 6 14 10 30 10 17 0 30 -4 30 -10 0 -5 11 -10 25 -10 14 0
25 5 25 10 0 6 -11 10 -25 10 -16 0 -25 6 -25 15 0 12 18 15 105 15 87 0 105
3 105 15 0 12 15 15 76 15 54 0 73 3 68 12 -4 6 1 17 12 25 16 12 17 16 5 35
-12 19 -11 20 13 16 31 -6 35 -2 38 43 1 20 12 44 26 58 18 17 22 30 17 51 -3
16 -2 31 4 35 16 9 13 25 -3 25 -7 0 -16 9 -19 20 -3 13 -14 20 -30 20 -14 0
-28 7 -31 16 -3 8 -10 13 -16 9 -5 -3 -18 -1 -29 5 -13 7 -22 7 -26 0 -8 -12
-85 -13 -104 -1 -13 8 -13 12 -1 26 12 15 25 16 80 11 36 -4 78 -14 94 -22 34
-17 70 -19 60 -3 -4 7 9 9 43 5 54 -5 113 -31 91 -39 -10 -4 -10 -6 0 -6 6 -1
27 7 46 17 28 15 52 18 123 15 94 -3 749 -79 763 -88 5 -3 53 -10 107 -15 54
-5 134 -15 178 -21 44 -7 152 -12 240 -13 121 -1 170 -5 200 -17 22 -9 63 -24
90 -34 192 -68 315 -131 416 -212 23 -18 38 -33 34 -33 -4 0 -59 22 -123 49
-125 52 -178 69 -167 51 3 -5 11 -10 17 -10 22 0 78 -33 78 -46 0 -18 -71 -19
-89 -1 -11 10 -14 10 -18 0 -3 -8 -24 -13 -53 -13 -42 0 -54 -5 -82 -32 l-33
-32 -8 31 c-9 30 -10 30 -28 12 -11 -11 -19 -33 -19 -54 0 -22 -6 -38 -15 -41
-8 -4 -13 -9 -11 -13 3 -4 -10 -8 -27 -9 -18 -2 -59 -7 -92 -12 -189 -30 -348
-35 -1115 -34 -540 0 -824 4 -910 13 -69 6 -188 16 -265 21 -172 10 -287 34
-484 99 -152 51 -187 59 -177 42 4 -5 -3 -7 -14 -4 -11 3 -20 0 -20 -6 0 -6 7
-11 17 -11 9 0 48 -18 88 -39 39 -22 89 -43 111 -47 21 -4 53 -17 69 -29 17
-12 36 -20 43 -18 10 4 12 -8 10 -46 l-3 -51 -37 0 c-40 0 -42 3 -38 63 1 17
-3 27 -13 27 -16 0 -47 -31 -47 -48 0 -7 -7 -12 -15 -12 -8 0 -15 -4 -15 -10
0 -5 7 -10 15 -10 8 0 15 -7 15 -15 0 -9 9 -15 25 -15 20 0 29 -8 40 -32 15
-37 12 -48 -13 -48 -9 0 -30 -7 -46 -15 -15 -8 -36 -15 -46 -15 -9 0 -27 -9
-40 -20 -13 -11 -31 -20 -41 -20 -10 0 -21 -4 -24 -10 -3 -5 -16 -10 -29 -10
-12 0 -27 -5 -33 -11 -15 -15 -98 -3 -118 17 -17 18 -19 63 -5 116 13 44 0 78
-30 78 -56 0 -162 -173 -159 -258 1 -22 3 -19 10 13 11 48 39 102 91 173 43
58 64 68 53 25 -19 -74 -17 -122 6 -162 28 -50 63 -66 133 -57 52 6 253 73
515 170 143 54 180 56 101 7 -30 -19 -84 -53 -120 -76 -98 -63 -361 -212 -443
-251 -116 -55 -209 -58 -281 -9 -20 13 -36 21 -36 16 0 -11 67 -55 107 -71 48
-18 234 2 266 28 8 7 17 9 20 6 9 -9 98 17 92 27 -3 4 0 11 6 15 8 4 9 3 5 -5
-5 -8 2 -11 23 -9 17 1 31 6 31 11 0 5 -7 7 -15 3 -8 -3 -15 -2 -15 2 0 12 52
32 83 32 18 0 27 4 25 12 -6 16 38 52 52 43 16 -10 12 -55 -5 -55 -10 0 -15
-10 -15 -30 0 -25 -4 -30 -25 -30 -20 0 -25 -5 -25 -25 0 -21 -5 -25 -30 -25
-28 0 -30 -2 -30 -40 0 -32 -4 -40 -18 -40 -22 0 -56 -27 -65 -52 -4 -10 -17
-18 -30 -18 -13 0 -28 -5 -34 -11 -7 -7 -63 -14 -128 -18 -64 -3 -119 -10
-123 -16 -33 -47 -136 26 -266 188 -129 161 -216 448 -201 661 10 141 55 315
101 390 50 82 51 84 25 61 -30 -26 -85 -143 -111 -235 -18 -67 -33 -182 -45
-363 -3 -41 3 -90 21 -160 32 -131 94 -297 110 -297 21 0 43 -41 38 -69 -5
-23 5 -38 65 -101 39 -41 71 -78 71 -81 0 -17 154 -119 180 -119 6 0 26 -11
43 -24 18 -14 55 -30 82 -37 28 -6 66 -18 85 -25 159 -62 800 -63 2020 -3 118
5 274 16 345 24 72 8 211 19 310 25 99 6 243 19 320 30 302 42 444 50 1205 60
563 8 885 8 1320 -1 576 -13 718 -10 1206 21 232 15 724 115 847 173 40 19 90
40 112 47 22 6 94 38 160 70 66 32 150 72 187 88 38 18 74 41 83 56 10 15 27
26 40 26 31 0 138 82 164 126 11 19 27 34 33 33 27 -3 37 2 43 20 5 17 18 34
76 97 10 12 19 29 19 37 0 8 7 20 16 28 22 18 58 93 80 164 25 83 23 212 -4
287 -18 51 -100 164 -110 153 -6 -6 58 -108 76 -121 12 -9 15 -34 15 -125 0
-212 -67 -390 -174 -459 -28 -18 -59 -46 -68 -61 -8 -15 -22 -27 -31 -26 -8 0
-101 -45 -206 -101 -214 -113 -234 -122 -354 -164 -312 -108 -713 -171 -1105
-172 -205 -1 -353 8 -402 24 -15 5 -48 11 -72 14 -24 3 -49 10 -55 15 -6 5
-37 17 -70 27 -36 11 -71 31 -91 51 -18 18 -40 33 -49 33 -9 0 -18 11 -22 25
-3 14 -12 25 -20 25 -8 0 -14 5 -14 10 0 6 -7 10 -15 10 -8 0 -15 8 -15 18 0
10 -13 31 -30 45 -16 15 -30 34 -30 42 0 8 -7 15 -15 15 -10 0 -15 10 -15 30
0 20 -5 30 -15 30 -9 0 -15 9 -15 23 -1 25 -22 57 -38 57 -6 0 -12 15 -14 33
-2 27 -8 33 -30 35 -16 2 -28 9 -28 18 0 8 -9 13 -22 11 -16 -1 -25 6 -32 28
-13 37 -23 45 -59 45 -16 0 -26 4 -23 8 2 4 -11 12 -30 18 -19 6 -34 7 -34 3
0 -18 -18 -8 -23 13 -4 12 -9 19 -12 16 -4 -3 -23 5 -42 18 -20 13 -42 24 -50
24 -8 0 -26 9 -40 20 -14 11 -38 20 -52 20 -15 0 -42 11 -61 25 -19 14 -40 23
-47 21 -7 -3 -13 -1 -13 4 0 6 -11 10 -25 10 -16 0 -25 6 -25 16 0 9 -7 14
-17 12 -10 -1 -24 1 -32 6 -7 5 -32 9 -55 9 -25 0 -34 2 -23 6 33 12 -3 29
-67 33 -32 2 -62 9 -68 15 -6 7 -25 13 -44 13 -18 0 -36 4 -39 10 -3 5 -28 12
-55 16 -33 4 -50 11 -50 21 0 11 -17 13 -85 10 -46 -2 -86 0 -87 4 -5 13 -167
28 -277 25 -88 -2 -105 -5 -113 -20 -8 -14 -12 -15 -18 -6 -12 20 -104 29
-132 13 -13 -7 -35 -12 -50 -13 -16 0 -28 -5 -28 -10 0 -6 -11 -21 -25 -34
-14 -13 -25 -29 -25 -36 0 -29 -13 2 -14 32 -1 29 -4 33 -33 35 -37 3 -46 -14
-10 -19 18 -2 23 -10 25 -45 2 -24 8 -43 13 -43 13 0 99 -91 99 -105 0 -5 -4
-4 -8 2 -9 14 -290 155 -332 168 -14 4 -52 20 -85 36 -34 16 -76 31 -95 34
-30 4 -31 4 -10 -4 32 -12 152 -74 125 -65 -11 3 -33 10 -50 14 -33 9 -144 47
-190 65 -113 46 -306 102 -445 129 -278 55 -897 135 -1470 190 -201 20 -409
40 -463 46 -54 5 -128 9 -165 8 -38 -1 -52 -3 -32 -5z m193 -160 c3 -5 1 -17
-3 -27 -7 -20 -12 -16 -23 17 -6 17 17 26 26 10z m-286 -9 c-3 -3 -12 -4 -19
-1 -8 3 -5 6 6 6 11 1 17 -2 13 -5z m403 -34 c6 0 10 7 10 15 0 10 11 15 35
15 31 0 35 -3 35 -25 0 -23 -4 -25 -45 -25 -25 0 -45 5 -45 10 0 6 -8 10 -18
10 -24 0 -32 8 -26 25 4 10 10 9 25 -6 10 -10 24 -19 29 -19z m-460 -40 c0 -5
-4 -10 -10 -10 -5 0 -10 5 -10 10 0 6 5 10 10 10 6 0 10 -4 10 -10z m730 -20
c0 -5 -2 -10 -4 -10 -3 0 -8 5 -11 10 -3 6 -1 10 4 10 6 0 11 -4 11 -10z m80
-5 c0 -8 -7 -15 -15 -15 -8 0 -15 7 -15 15 0 8 7 15 15 15 8 0 15 -7 15 -15z
m-50 -259 c0 -8 -4 -18 -10 -21 -5 -3 -10 3 -10 14 0 12 5 21 10 21 6 0 10 -6
10 -14z m-63 -32 c-3 -3 -12 -4 -19 -1 -8 3 -5 6 6 6 11 1 17 -2 13 -5z m-700
-270 c-3 -3 -12 -4 -19 -1 -8 3 -5 6 6 6 11 1 17 -2 13 -5z m2493 -60 c0 -17
-22 -14 -28 4 -2 7 3 12 12 12 9 0 16 -7 16 -16z m-190 -5 c0 -9 -66 -15 -135
-11 -22 1 -51 -1 -65 -4 -25 -6 -25 -6 -5 -21 17 -14 18 -15 2 -9 -10 3 -25 6
-34 6 -9 0 -13 6 -9 15 4 12 -5 15 -54 15 -33 0 -60 3 -60 8 0 4 81 8 180 9
106 1 180 -2 180 -8z m-424 -8 c5 -5 22 -11 38 -13 28 -3 29 -4 12 -20 -10
-10 -28 -18 -42 -18 -13 0 -24 -4 -24 -10 0 -6 -9 -6 -26 0 -14 6 -50 7 -81 3
-41 -4 -54 -3 -49 5 5 8 2 10 -8 6 -12 -5 -16 0 -16 18 0 14 3 28 7 31 10 11
178 8 189 -2z m-436 -13 c0 -9 3 -9 12 0 18 18 88 16 88 -3 0 -11 -13 -15 -53
-15 -29 0 -57 4 -62 9 -6 5 -21 11 -35 14 -18 3 -15 5 13 6 23 0 37 -4 37 -11z
m970 2 c0 -5 -4 -10 -10 -10 -5 0 -10 5 -10 10 0 6 5 10 10 10 6 0 10 -4 10
-10z m-1235 -10 c23 -6 13 -8 -40 -9 -49 0 -65 2 -55 9 17 11 51 11 95 0z
m1045 -4 c0 -3 -4 -8 -10 -11 -5 -3 -10 -1 -10 4 0 6 5 11 10 11 6 0 10 -2 10
-4z m-370 -60 c0 -2 -8 -10 -17 -17 -16 -13 -17 -12 -4 4 13 16 21 21 21 13z
m-96 -179 c4 -19 3 -26 -4 -22 -5 3 -10 18 -10 32 0 32 5 28 14 -10z m-1767
-49 c-3 -8 -6 -5 -6 6 -1 11 2 17 5 13 3 -3 4 -12 1 -19z"/>
<path d="M3185 3123 c-36 -9 -101 -55 -124 -89 -50 -72 -49 -156 1 -225 42
-58 103 -83 182 -75 68 7 99 24 126 69 21 33 27 107 10 107 -5 0 -10 -3 -10
-7 0 -5 -11 -21 -24 -38 l-25 -30 3 25 c1 14 5 31 9 37 10 16 -2 43 -19 43 -8
0 -14 5 -14 10 0 6 7 10 15 10 18 0 21 50 3 68 -27 27 -37 13 -38 -55 -1 -106
-7 -157 -18 -161 -15 -5 -25 134 -14 195 5 29 7 55 4 58 -3 3 -21 5 -41 5 -27
0 -32 -3 -23 -12 13 -13 17 -174 6 -215 -9 -33 -19 -28 -21 10 -1 17 -5 71
-10 118 -5 57 -4 90 2 96 33 31 133 16 165 -25 24 -30 26 -22 5 18 -25 48 -93
77 -150 63z m-75 -130 c0 -20 -3 -24 -11 -16 -7 7 -9 19 -6 27 10 24 17 19 17
-11z m-21 -123 c0 -10 -3 -8 -9 5 -12 27 -12 43 0 25 5 -8 9 -22 9 -30z"/>
<path d="M8950 3093 c-47 -7 -100 -16 -117 -19 -50 -8 -41 -27 10 -21 97 11
183 30 197 43 8 8 10 13 5 13 -6 -1 -48 -8 -95 -16z"/>
<path d="M1010 2994 c-20 -50 -32 -111 -28 -140 3 -24 7 -17 25 41 30 99 35
125 23 125 -6 0 -15 -12 -20 -26z"/>
<path d="M3371 2974 c0 -11 3 -14 6 -6 3 7 2 16 -1 19 -3 4 -6 -2 -5 -13z"/>
<path d="M2557 2733 c-14 -13 -6 -33 13 -33 13 0 20 7 20 20 0 19 -20 27 -33
13z"/>
<path d="M2663 2733 c9 -2 23 -2 30 0 6 3 -1 5 -18 5 -16 0 -22 -2 -12 -5z"/>
<path d="M974 2556 c7 -66 21 -106 37 -106 6 0 8 7 5 15 -3 9 -11 45 -18 80
-14 80 -33 88 -24 11z"/>
<path d="M8735 2595 c-5 -2 -77 -12 -160 -21 -103 -12 -234 -18 -419 -18 -284
-1 -331 -9 -209 -36 122 -27 356 -19 578 19 105 17 215 38 245 46 54 13 54 13
15 13 -22 0 -44 -1 -50 -3z"/>
<path d="M1030 2346 c0 -2 11 -28 25 -57 14 -30 23 -45 20 -34 -24 78 -31 95
-37 95 -5 0 -8 -2 -8 -4z"/>
<path d="M1350 2191 c0 -6 4 -13 10 -16 6 -3 7 1 4 9 -7 18 -14 21 -14 7z"/>
</g>
</svg>
